<svg width="489" height="401" viewBox="0 0 489 401" fill="none" xmlns="http://www.w3.org/2000/svg">
<g id="a" filter="url(#filter0_d_2_11)">
<g id="d" filter="url(#filter1_f_2_11)">
<path d="M1.72815 -4.9943L490.664 -3.38191L488.888 401.451L-0.047551 399.838L1.72815 -4.9943Z" fill="url(#paint0_linear_2_11)"/>
<path d="M2.22595 -4.49266L490.162 -2.88357L488.391 400.949L0.454639 399.34L2.22595 -4.49266Z" stroke="black"/>
</g>
<g id="c" filter="url(#filter2_i_2_11)">
<path d="M374.061 -4.30636C374.061 -4.30636 327.561 25.4878 306.889 72.1629C299.308 88.8933 293.827 106.157 290.528 123.697C263.721 128.299 214.534 152.85 214.534 152.85L177.144 149.853L189.849 165.277L151.221 170.361L167.987 182.879L135.538 181.903L139.022 192.779L110.148 192.378L112.811 209.937L87.5863 206.282L90.2199 226.277L70.0727 223.236L69.2116 239.574L37.4497 235.77L40.0965 254.641L1.61338 263.742L7.94826e-06 401L190.808 399.848L264.229 301.327L226.203 262.715L239.812 254.303L286.739 301.94C291.51 305.696 296.552 309.192 300.017 310.332C318.864 316.545 356.892 317.018 374.318 325.314C384.148 329.941 395.841 347.89 406.64 351C408.522 351.422 410.481 351.599 412.445 351.528C421.928 351.471 436.689 348.734 436.689 348.734L449.946 358.964L462.501 350.418L430.112 324.063L442.457 314.51L476.746 342.341L479.095 341.026C479.095 341.026 490.039 295.078 483.231 281.246C475.101 264.799 434.765 244.409 422.647 229.614C412.669 217.465 404.963 187.705 393.905 176.243C383.159 164.954 360.901 147.947 338.596 136.213C349.819 120.89 359.125 104.742 366.376 88.0075C387.005 41.3688 374.165 -4.30699 374.165 -4.30699L374.061 -4.30636ZM444.24 13.6883C444.24 13.6883 420.597 23.4623 394.777 42.6455C393.636 59.5627 389.512 76.3075 382.526 92.3858C376.55 106 369.371 119.274 361.043 132.106C364.525 134.205 367.903 136.376 371.207 138.571C384.265 126.837 396.184 114.332 406.857 101.167C440.831 59.6147 444.24 13.6883 444.24 13.6883V13.6883ZM349.653 195.666C352.887 195.647 356.039 196.384 358.712 197.784C361.377 199.178 363.449 201.178 364.666 203.532C365.875 205.877 366.169 208.469 365.509 210.973C364.844 213.483 363.259 215.79 360.956 217.6C358.64 219.42 355.714 220.664 352.543 221.178C349.366 221.694 346.085 221.459 343.105 220.501C340.137 219.549 337.603 217.912 335.824 215.798C334.054 213.695 333.123 211.207 333.151 208.654C333.192 205.236 334.953 201.947 338.048 199.511C341.157 197.071 345.327 195.689 349.653 195.666V195.666ZM463.09 281.368C465.959 281.351 468.252 287.265 468.165 294.647C468.079 302.029 465.617 307.973 462.643 307.991C459.67 308.008 457.496 302.07 457.583 294.723C457.669 287.377 460.087 281.375 462.956 281.358L463.09 281.368Z" fill="#108410"/>
</g>
<g id="b">
<g filter="url(#filter3_i_2_11)">
<path d="M59.8015 18.0064C59.0442 17.6306 58.1875 17.4466 57.3183 17.4714C56.4492 17.4962 55.5969 17.73 54.8481 18.1478L43.5503 24.6647L35.8716 28.9238L24.5738 35.4406C23.825 35.8594 22.9728 36.0922 22.1036 36.117C21.2345 36.1419 20.3777 35.9568 19.6204 35.582L10.5352 30.9933C9.78874 30.609 9.16613 30.0556 8.72609 29.3854C8.28586 28.7151 8.04082 27.9488 8.01655 27.1598L7.91382 17.602C7.89062 16.8068 8.1054 16.0172 8.53428 15.3169C8.96261 14.6171 9.58988 14.0329 10.3486 13.6272L19.1856 8.66134C19.9344 8.24255 20.7866 8.00976 21.6558 7.98495C22.5249 7.96014 23.3817 8.14518 24.139 8.51995L33.0773 12.9784C33.8238 13.3627 34.4464 13.916 34.8865 14.5863C35.3267 15.2566 35.5717 16.0229 35.596 16.8119L35.6626 23.0044L43.3398 18.6108L43.2732 12.4183C43.2793 11.6223 43.0477 10.8453 42.604 10.17C42.1609 9.49501 41.5215 8.94695 40.7546 8.58481L24.1936 0.16951C23.4363 -0.206293 22.5795 -0.390303 21.7104 -0.365494C20.8412 -0.340684 19.989 -0.106865 19.2402 0.3109L2.57939 9.67449C1.82071 10.0802 1.19344 10.6644 0.76511 11.3642C0.336235 12.0645 0.121458 12.8552 0.144653 13.6494L0.337102 31.5544C0.330999 32.3505 0.562626 33.1274 1.00629 33.8028C1.44939 34.4777 2.08883 35.0258 2.85576 35.3879L19.7076 43.7949C20.4649 44.1707 21.3216 44.3548 22.1908 44.3299C23.0599 44.3051 23.9122 44.0713 24.661 43.6535L35.9602 37.2711L43.6375 32.8776L54.9367 26.4952C55.6855 26.0764 56.5378 25.8436 57.4069 25.8188C58.2761 25.794 59.1328 25.979 59.8901 26.3538L68.8285 30.8122C69.5749 31.1965 70.1976 31.7499 70.6376 32.4201C71.0778 33.0904 71.3229 33.8567 71.3471 34.6457L71.4499 44.2044C71.4731 44.9996 71.2583 45.7893 70.8294 46.4896C70.4011 47.1894 69.7738 47.7736 69.0151 48.1793L60.1795 53.2796C59.4308 53.6984 58.5785 53.9312 57.7093 53.956C56.8402 53.9809 55.9834 53.7958 55.2261 53.421L46.2878 48.9626C45.5413 48.5783 44.9187 48.0249 44.4787 47.3547C44.0373 46.6844 43.7934 45.9181 43.7691 45.1291L43.7026 38.9366L36.0254 43.3302L36.0919 49.5227C36.0858 50.3187 36.3175 51.0957 36.7611 51.771C37.2042 52.446 37.8437 52.994 38.6106 53.3562L55.4624 61.7632C56.2197 62.139 57.0764 62.323 57.9456 62.2982C58.8148 62.2734 59.667 62.0396 60.4158 61.6218L77.0766 52.2582C77.8129 51.8326 78.4234 51.2442 78.8501 50.5481C79.2767 49.852 79.504 49.0732 79.5125 48.2833L79.32 30.3772C79.3261 29.5811 79.0945 28.8042 78.6508 28.1288C78.2077 27.4539 77.5683 26.9058 76.8013 26.5437L59.8027 18.0064L59.8015 18.0064Z" fill="#DAA520"/>
</g>
<path d="M59.8015 18.0064C59.0442 17.6306 58.1875 17.4466 57.3183 17.4714C56.4492 17.4962 55.5969 17.73 54.8481 18.1478L43.5503 24.6647L35.8716 28.9238L24.5738 35.4406C23.825 35.8594 22.9728 36.0922 22.1036 36.117C21.2345 36.1419 20.3777 35.9568 19.6204 35.582L10.5352 30.9933C9.78874 30.609 9.16613 30.0556 8.72609 29.3854C8.28586 28.7151 8.04082 27.9488 8.01655 27.1598L7.91382 17.602C7.89062 16.8068 8.1054 16.0172 8.53428 15.3169C8.96261 14.6171 9.58988 14.0329 10.3486 13.6272L19.1856 8.66134C19.9344 8.24255 20.7866 8.00976 21.6558 7.98495C22.5249 7.96014 23.3817 8.14518 24.139 8.51995L33.0773 12.9784C33.8238 13.3627 34.4464 13.916 34.8865 14.5863C35.3267 15.2566 35.5717 16.0229 35.596 16.8119L35.6626 23.0044L43.3398 18.6108L43.2732 12.4183C43.2793 11.6223 43.0477 10.8453 42.604 10.17C42.1609 9.49501 41.5215 8.94695 40.7546 8.58481L24.1936 0.16951C23.4363 -0.206293 22.5795 -0.390303 21.7104 -0.365494C20.8412 -0.340684 19.989 -0.106865 19.2402 0.3109L2.57939 9.67449C1.82071 10.0802 1.19344 10.6644 0.76511 11.3642C0.336235 12.0645 0.121458 12.8552 0.144653 13.6494L0.337102 31.5544C0.330999 32.3505 0.562626 33.1274 1.00629 33.8028C1.44939 34.4777 2.08883 35.0258 2.85576 35.3879L19.7076 43.7949C20.4649 44.1707 21.3216 44.3548 22.1908 44.3299C23.0599 44.3051 23.9122 44.0713 24.661 43.6535L35.9602 37.2711L43.6375 32.8776L54.9367 26.4952C55.6855 26.0764 56.5378 25.8436 57.4069 25.8188C58.2761 25.794 59.1328 25.979 59.8901 26.3538L68.8285 30.8122C69.5749 31.1965 70.1976 31.7499 70.6376 32.4201C71.0778 33.0904 71.3229 33.8567 71.3471 34.6457L71.4499 44.2044C71.4731 44.9996 71.2583 45.7893 70.8294 46.4896C70.4011 47.1894 69.7738 47.7736 69.0151 48.1793L60.1795 53.2796C59.4308 53.6984 58.5785 53.9312 57.7093 53.956C56.8402 53.9809 55.9834 53.7958 55.2261 53.421L46.2878 48.9626C45.5413 48.5783 44.9187 48.0249 44.4787 47.3547C44.0373 46.6844 43.7934 45.9181 43.7691 45.1291L43.7026 38.9366L36.0254 43.3302L36.0919 49.5227C36.0858 50.3187 36.3175 51.0957 36.7611 51.771C37.2042 52.446 37.8437 52.994 38.6106 53.3562L55.4624 61.7632C56.2197 62.139 57.0764 62.323 57.9456 62.2982C58.8148 62.2734 59.667 62.0396 60.4158 61.6218L77.0766 52.2582C77.8129 51.8326 78.4234 51.2442 78.8501 50.5481C79.2767 49.852 79.504 49.0732 79.5125 48.2833L79.32 30.3772C79.3261 29.5811 79.0945 28.8042 78.6508 28.1288C78.2077 27.4539 77.5683 26.9058 76.8013 26.5437L59.8027 18.0064L59.8015 18.0064Z" stroke="#CD2020"/>
</g>
</g>
<defs>
<filter id="filter0_d_2_11" x="-4.35687" y="-4.9943" width="499.021" height="414.445" filterUnits="userSpaceOnUse" color-interpolation-filters="sRGB">
<feFlood flood-opacity="0" result="BackgroundImageFix"/>
<feColorMatrix in="SourceAlpha" type="matrix" values="0 0 0 0 0 0 0 0 0 0 0 0 0 0 0 0 0 0 127 0" result="hardAlpha"/>
<feOffset dy="4"/>
<feGaussianBlur stdDeviation="2"/>
<feComposite in2="hardAlpha" operator="out"/>
<feColorMatrix type="matrix" values="0 0 0 0 0 0 0 0 0 0 0 0 0 0 0 0 0 0 0.25 0"/>
<feBlend mode="normal" in2="BackgroundImageFix" result="effect1_dropShadow_2_11"/>
<feBlend mode="normal" in="SourceGraphic" in2="effect1_dropShadow_2_11" result="shape"/>
</filter>
<filter id="filter1_f_2_11" x="-4.04755" y="-8.9943" width="498.712" height="414.445" filterUnits="userSpaceOnUse" color-interpolation-filters="sRGB">
<feFlood flood-opacity="0" result="BackgroundImageFix"/>
<feBlend mode="normal" in="SourceGraphic" in2="BackgroundImageFix" result="shape"/>
<feGaussianBlur stdDeviation="2" result="effect1_foregroundBlur_2_11"/>
</filter>
<filter id="filter2_i_2_11" x="0" y="-4.30698" width="485.462" height="409.307" filterUnits="userSpaceOnUse" color-interpolation-filters="sRGB">
<feFlood flood-opacity="0" result="BackgroundImageFix"/>
<feBlend mode="normal" in="SourceGraphic" in2="BackgroundImageFix" result="shape"/>
<feColorMatrix in="SourceAlpha" type="matrix" values="0 0 0 0 0 0 0 0 0 0 0 0 0 0 0 0 0 0 127 0" result="hardAlpha"/>
<feOffset dy="4"/>
<feGaussianBlur stdDeviation="2"/>
<feComposite in2="hardAlpha" operator="arithmetic" k2="-1" k3="1"/>
<feColorMatrix type="matrix" values="0 0 0 0 0 0 0 0 0 0 0 0 0 0 0 0 0 0 0.25 0"/>
<feBlend mode="normal" in2="shape" result="effect1_innerShadow_2_11"/>
</filter>
<filter id="filter3_i_2_11" x="-0.356873" y="-0.867882" width="80.3692" height="67.6684" filterUnits="userSpaceOnUse" color-interpolation-filters="sRGB">
<feFlood flood-opacity="0" result="BackgroundImageFix"/>
<feBlend mode="normal" in="SourceGraphic" in2="BackgroundImageFix" result="shape"/>
<feColorMatrix in="SourceAlpha" type="matrix" values="0 0 0 0 0 0 0 0 0 0 0 0 0 0 0 0 0 0 127 0" result="hardAlpha"/>
<feOffset dy="4"/>
<feGaussianBlur stdDeviation="2"/>
<feComposite in2="hardAlpha" operator="arithmetic" k2="-1" k3="1"/>
<feColorMatrix type="matrix" values="0 0 0 0 0 0 0 0 0 0 0 0 0 0 0 0 0 0 0.25 0"/>
<feBlend mode="normal" in2="shape" result="effect1_innerShadow_2_11"/>
</filter>
<linearGradient id="paint0_linear_2_11" x1="1.72815" y1="-4.9943" x2="397.447" y2="476.588" gradientUnits="userSpaceOnUse">
<stop stop-color="#92A80D"/>
<stop offset="1" stop-color="#0CD7E4" stop-opacity="0.99"/>
</linearGradient>
</defs>
</svg>
