<svg width="353" height="329" viewBox="0 0 353 329" fill="none" xmlns="http://www.w3.org/2000/svg">
<rect width="353" height="329" fill="#FFF9F9"/>
<g id="Component 1">
<rect width="350" height="325" transform="translate(3)" fill="#6D3D3D"/>
<g id="Donkey">
<g filter="url(#filter0_i_0_1)">
<path d="M269.928 0C269.928 0 236.571 23.7983 222.026 61.3344C216.688 74.7881 212.873 88.682 210.638 102.81C191.301 106.39 155.957 125.947 155.957 125.947L128.906 123.349L138.22 135.848L110.343 139.759L122.568 149.934L99.1054 148.99L101.716 157.776L80.8429 157.313L82.9164 171.485L64.6531 168.414L66.7265 184.551L52.1382 182L51.6547 195.17L28.6648 191.948L30.7383 207.178L3 214.33V325H140.906L193.138 245.914L165.325 214.594L175.09 207.877L209.413 246.518C212.894 249.57 216.568 252.413 219.082 253.349C232.758 258.451 260.248 259.018 272.914 265.792C280.058 269.57 288.663 284.101 296.495 286.661C297.858 287.01 299.276 287.163 300.695 287.115C307.549 287.115 318.195 284.98 318.195 284.98L327.864 293.294L336.866 286.463L313.232 265.055L322.073 257.411L347.094 280.02L348.78 278.971C348.78 278.971 356.301 241.974 351.262 230.788C345.246 217.486 315.918 200.848 307.033 188.859C299.718 179.014 293.895 154.98 285.805 145.683C277.942 136.528 261.709 122.706 245.487 113.136C253.469 100.835 260.059 87.8592 265.158 74.4002C279.672 36.8933 270.003 0 270.003 0H269.928ZM320.806 14.8516C320.806 14.8516 303.8 22.6178 285.301 37.9606C284.62 51.5963 281.781 65.0785 276.868 78.0093C272.664 88.9583 267.588 99.6267 261.677 109.933C264.212 111.643 266.672 113.41 269.079 115.196C278.418 105.798 286.926 95.7724 294.529 85.2085C318.733 51.8679 320.806 14.8516 320.806 14.8516V14.8516ZM253.985 161.13C256.322 161.13 258.607 161.74 260.551 162.881C262.489 164.018 264.004 165.642 264.903 167.545C265.797 169.442 266.031 171.534 265.576 173.55C265.116 175.57 263.99 177.423 262.341 178.871C260.682 180.328 258.578 181.317 256.29 181.715C253.999 182.116 251.625 181.911 249.463 181.124C247.309 180.341 245.464 179.009 244.16 177.296C242.863 175.592 242.169 173.581 242.168 171.523C242.168 168.766 243.413 166.123 245.63 164.174C247.856 162.221 250.858 161.127 253.985 161.13V161.13ZM336.705 230.788C338.779 230.788 340.486 235.568 340.486 241.52C340.486 247.472 338.758 252.253 336.608 252.253C334.46 252.253 332.838 247.454 332.838 241.53C332.838 235.606 334.535 230.779 336.608 230.779L336.705 230.788Z" fill="#108410"/>
</g>
<path d="M222.492 61.5151L222.49 61.5188C217.166 74.9387 213.361 88.797 211.132 102.888L211.077 103.237L210.729 103.301C201.132 105.078 187.516 110.835 176.26 116.173C170.641 118.838 165.625 121.391 162.013 123.279C160.207 124.222 158.753 124.999 157.751 125.54C157.25 125.81 156.861 126.022 156.598 126.165C156.467 126.237 156.367 126.292 156.3 126.329L156.224 126.371L156.205 126.381L156.2 126.384L156.199 126.384C156.199 126.384 156.199 126.385 156.147 126.29L156.199 126.385L156.063 126.46L155.909 126.445L129.981 123.955L138.621 135.549L139.125 136.226L138.29 136.343L111.531 140.097L122.888 149.55L124.021 150.493L122.548 150.434L99.7838 149.518L102.196 157.634L102.391 158.292L101.705 158.276L81.4233 157.826L83.4111 171.413L83.5105 172.092L82.8335 171.978L65.2349 169.019L67.2224 184.487L67.3089 185.16L66.6404 185.043L52.6169 182.591L52.1543 195.188L52.134 195.742L51.5853 195.665L29.2493 192.535L31.2337 207.111L31.2937 207.552L30.8631 207.663L3.5 214.717V324.5H140.637L192.509 245.959L164.951 214.926L164.575 214.503L165.042 214.182L174.806 207.465L175.17 207.215L175.464 207.545L209.766 246.163C211.493 247.676 213.26 249.131 214.903 250.322C216.562 251.525 218.065 252.437 219.256 252.881L219.257 252.881C225.222 255.106 233.855 256.464 242.792 257.87C244.01 258.062 245.233 258.254 246.456 258.45C256.598 260.072 266.728 261.916 273.15 265.351C275.004 266.332 276.924 267.992 278.865 269.933C280.43 271.499 282.034 273.272 283.645 275.054C284.035 275.485 284.426 275.917 284.817 276.347C286.828 278.559 288.845 280.715 290.842 282.477C292.838 284.238 294.778 285.57 296.635 286.181C297.947 286.515 299.312 286.662 300.678 286.615L300.687 286.615H300.695C304.082 286.615 308.426 286.086 311.94 285.553C313.694 285.287 315.234 285.021 316.335 284.821C316.886 284.722 317.327 284.639 317.63 284.581C317.782 284.551 317.899 284.529 317.978 284.513L318.067 284.496L318.09 284.491L318.095 284.49L318.096 284.49L318.097 284.49L318.336 284.442L318.521 284.601L327.883 292.651L336.084 286.429L312.896 265.425L312.477 265.046L312.905 264.676L321.746 257.033L322.081 256.744L322.408 257.04L347.149 279.397L348.332 278.661L348.339 278.629C348.349 278.579 348.36 278.521 348.373 278.456C348.403 278.304 348.44 278.113 348.484 277.883C348.52 277.701 348.559 277.495 348.602 277.266C348.798 276.235 349.071 274.749 349.384 272.931C350.009 269.293 350.79 264.328 351.414 259.016C352.038 253.702 352.503 248.05 352.5 243.036C352.496 238 352.019 233.685 350.806 230.993C349.342 227.756 346.437 224.276 342.715 220.67C338.999 217.07 334.508 213.382 329.912 209.722C328.678 208.74 327.435 207.759 326.199 206.782C322.839 204.129 319.521 201.509 316.524 198.98C312.427 195.523 308.89 192.204 306.632 189.157L222.492 61.5151ZM222.492 61.5151C229.732 42.8296 241.662 27.5506 251.793 16.9364C256.857 11.6311 261.467 7.49581 264.81 4.68786C266.482 3.28398 267.836 2.21217 268.771 1.49209C269.144 1.20508 269.45 0.973955 269.684 0.799976L222.492 61.5151ZM269.079 115.196C278.418 105.798 286.926 95.7724 294.529 85.2085C316.974 54.2903 320.388 20.2112 320.766 15.4222C320.641 15.4809 320.471 15.562 320.257 15.6654C320.252 15.6675 320.248 15.6697 320.243 15.6718M269.079 115.196L269.377 114.794C269.261 114.708 269.145 114.622 269.029 114.536M269.079 115.196L268.724 114.843C268.826 114.741 268.927 114.639 269.029 114.536M269.079 115.196C266.672 113.41 264.212 111.643 261.677 109.933C267.588 99.6267 272.664 88.9583 276.868 78.0093L285.789 38.2055M269.029 114.536C278.23 105.246 286.619 95.3435 294.123 84.9165L294.124 84.9148C306.18 68.3086 312.727 50.7811 316.26 37.3997C318.027 30.7102 319.039 25.0604 319.609 21.0853C319.894 19.0979 320.069 17.5294 320.172 16.4592C320.201 16.1562 320.225 15.8931 320.243 15.6718M269.029 114.536C266.851 112.926 264.627 111.33 262.341 109.779C268.166 99.5754 273.177 89.0192 277.335 78.1885L277.335 78.1868C282.24 65.2773 285.086 51.8191 285.789 38.2055M320.243 15.6718C319.746 15.9125 319.018 16.2718 318.088 16.7495C316.212 17.7134 313.517 19.1591 310.244 21.0836C303.737 24.9093 294.952 30.6247 285.789 38.2055M320.243 15.6718C320.258 15.5024 320.269 15.3574 320.278 15.2377C320.282 15.1853 320.286 15.1378 320.289 15.0952C317.311 16.5197 301.907 24.1873 285.301 37.9606L285.789 38.2055M260.804 162.45C258.781 161.262 256.408 160.63 253.985 160.63L260.804 162.45ZM260.804 162.45C262.823 163.634 264.41 165.331 265.355 167.332L265.355 167.332C266.296 169.328 266.544 171.533 266.063 173.66L266.063 173.661C265.579 175.79 264.394 177.734 262.671 179.247C260.94 180.767 258.749 181.794 256.376 182.208M260.804 162.45L256.376 182.208M256.376 182.208L256.29 181.715L256.377 182.208C256.377 182.208 256.376 182.208 256.376 182.208ZM256.376 182.208C253.999 182.624 251.537 182.411 249.292 181.594M256.376 182.208L249.292 181.594M249.292 181.594C249.292 181.594 249.292 181.594 249.292 181.594L249.463 181.124L249.292 181.594ZM336.655 230.281L336.632 230.279H336.608C335.881 230.279 335.258 230.703 334.759 231.307C334.257 231.914 333.826 232.763 333.474 233.767C332.767 235.781 332.338 238.527 332.338 241.53C332.338 244.531 332.748 247.27 333.445 249.277C333.793 250.278 334.222 251.125 334.73 251.731C335.237 252.337 335.868 252.753 336.608 252.753C337.346 252.753 337.984 252.341 338.5 251.738C339.019 251.135 339.462 250.29 339.824 249.288C340.549 247.282 340.986 244.538 340.986 241.52C340.986 238.503 340.554 235.761 339.845 233.755C339.491 232.755 339.058 231.911 338.555 231.307C338.059 230.714 337.445 230.297 336.73 230.288L336.655 230.281Z" stroke="black"/>
</g>
<g id="text" filter="url(#filter1_d_0_1)">
<mask id="path-3-outside-1_0_1" maskUnits="userSpaceOnUse" x="4" y="297" width="132" height="24" fill="black">
<rect fill="white" x="4" y="297" width="132" height="24"/>
<path d="M7.815 315.312L7.447 301.671C7.257 301.684 7.074 301.705 6.897 301.732C6.72 301.759 6.557 301.786 6.408 301.813L6 300.019C6.394 299.938 6.877 299.849 7.447 299.754C8.71844 299.548 9.99741 299.392 11.281 299.285C11.8913 299.233 12.5035 299.206 13.116 299.203C14.666 299.203 15.991 299.53 17.092 300.182C18.207 300.821 19.063 301.759 19.661 302.996C20.259 304.219 20.558 305.715 20.558 307.482C20.558 308.637 20.375 309.691 20.008 310.642C19.6731 311.562 19.1604 312.408 18.499 313.13C17.8502 313.82 17.0658 314.369 16.195 314.741C15.311 315.121 14.346 315.312 13.299 315.312H7.815ZM10.322 313.313C11.016 313.313 11.709 313.3 12.402 313.273C13.0194 313.242 13.6332 313.16 14.237 313.028C14.822 312.892 15.379 312.593 15.909 312.131C16.44 311.655 16.868 311.023 17.194 310.234C17.534 309.446 17.704 308.522 17.704 307.461C17.704 306.075 17.486 304.933 17.051 304.036C16.63 303.139 16.059 302.473 15.338 302.038C14.618 301.589 13.802 301.365 12.892 301.365C12.035 301.365 11.179 301.385 10.322 301.426V313.313ZM28.348 315.536C27.165 315.536 26.139 315.298 25.269 314.822C24.4198 314.341 23.7262 313.626 23.27 312.763C22.795 311.879 22.557 310.846 22.557 309.664C22.557 308.467 22.795 307.427 23.27 306.544C23.7261 305.681 24.4197 304.966 25.269 304.484C26.139 303.995 27.165 303.75 28.348 303.75C29.544 303.75 30.57 303.995 31.426 304.484C32.281 304.958 32.9765 305.675 33.425 306.544C33.887 307.427 34.118 308.467 34.118 309.664C34.118 310.846 33.887 311.879 33.425 312.763C32.9765 313.632 32.281 314.348 31.426 314.822C30.57 315.298 29.544 315.536 28.348 315.536ZM28.674 313.66C29.53 313.592 30.196 313.232 30.672 312.579C31.148 311.913 31.386 311.064 31.386 310.031V309.725C31.386 309.616 31.379 309.507 31.365 309.398C31.27 308.229 30.944 307.312 30.387 306.646C29.843 305.98 29.15 305.647 28.307 305.647C28.2586 305.646 28.2104 305.653 28.164 305.667H28.021C27.192 305.721 26.526 306.082 26.023 306.748C25.534 307.414 25.289 308.27 25.289 309.317V309.623C25.289 309.718 25.296 309.82 25.309 309.929C25.405 311.084 25.738 312.002 26.309 312.681C26.88 313.347 27.58 313.68 28.409 313.68H28.531C28.5777 313.668 28.6257 313.661 28.674 313.66ZM44.036 315.577V307.971C44.036 307.292 43.825 306.775 43.404 306.422C42.996 306.055 42.5 305.871 41.915 305.871C41.331 305.871 40.794 306.027 40.304 306.34C39.829 306.653 39.496 307.108 39.305 307.706V315.312L36.818 315.577L36.41 303.648L39.305 303.995V305.32C39.5689 304.812 39.9912 304.404 40.508 304.158C41.052 303.886 41.793 303.75 42.731 303.75C43.56 303.75 44.287 303.927 44.913 304.281C45.5305 304.613 46.0399 305.115 46.381 305.728C46.734 306.326 46.89 307.006 46.85 307.767L46.442 315.312L44.036 315.577ZM57.215 315.577L53.341 310.194L52.566 310.928V315.312L50.201 315.597L49.793 299L52.566 299.407V308.685L56.501 303.648L59.539 304.281L54.544 309.052L60.029 315.026L57.215 315.577ZM71.349 313.313C70.955 313.843 70.534 314.272 70.085 314.598C69.6333 314.932 69.1207 315.175 68.576 315.312C68.005 315.461 67.305 315.536 66.476 315.536C65.293 315.536 64.281 315.278 63.438 314.761C62.6089 314.246 61.9385 313.512 61.501 312.64C61.052 311.743 60.828 310.744 60.828 309.643C60.828 308.529 61.059 307.529 61.521 306.646C61.9598 305.775 62.6299 305.041 63.458 304.525C64.301 304.009 65.28 303.75 66.394 303.75C67.482 303.75 68.413 304.002 69.188 304.505C69.976 304.994 70.581 305.701 71.002 306.625C71.424 307.536 71.635 308.624 71.635 309.888V310.234H64.253L63.805 308.644L68.821 308.236C68.78 307.516 68.576 306.931 68.209 306.483C67.856 306.021 67.285 305.789 66.496 305.789C65.585 305.789 64.831 306.129 64.233 306.809C63.648 307.475 63.356 308.427 63.356 309.664C63.356 310.547 63.519 311.281 63.846 311.866C64.185 312.437 64.607 312.865 65.11 313.15C65.626 313.422 66.143 313.558 66.659 313.558C67.529 313.558 68.304 313.415 68.984 313.13C69.677 312.831 70.221 312.43 70.615 311.927L71.349 313.313ZM73.7 317.636C74.489 317.582 75.127 317.425 75.617 317.167C76.0984 316.927 76.5171 316.578 76.84 316.148C77.153 315.726 77.411 315.25 77.615 314.72L72.742 304.219L75.821 303.648L78.696 311.927L81.897 303.648L84.12 304.219L79.878 315.883C79.416 317.133 78.723 318.037 77.799 318.594C76.874 319.165 75.685 319.451 74.23 319.451L73.7 317.636ZM88.771 313.782C88.771 314.285 88.594 314.713 88.241 315.067C87.888 315.407 87.459 315.577 86.956 315.577C86.453 315.577 86.025 315.407 85.672 315.067C85.5005 314.9 85.365 314.7 85.2739 314.479C85.1827 314.258 85.1378 314.021 85.142 313.782C85.142 313.279 85.318 312.851 85.672 312.498C86.025 312.144 86.453 311.968 86.956 311.968C87.459 311.968 87.888 312.144 88.241 312.498C88.594 312.851 88.771 313.279 88.771 313.782ZM92.293 315.515L91.885 299L94.781 299.407V305.096C95.025 304.675 95.433 304.349 96.004 304.117C96.6044 303.867 97.2496 303.742 97.9 303.75C99.395 303.75 100.592 304.253 101.489 305.259C102.386 306.252 102.835 307.713 102.835 309.643C102.835 311.587 102.379 313.055 101.468 314.047C100.558 315.04 99.375 315.536 97.921 315.536C97.2072 315.543 96.4994 315.404 95.841 315.128C95.216 314.843 94.767 314.469 94.495 314.007L94.291 315.047L92.293 315.515ZM94.719 312.049C94.937 312.484 95.256 312.851 95.678 313.15C96.099 313.449 96.609 313.599 97.207 313.599C97.724 313.599 98.206 313.476 98.655 313.232C99.117 312.974 99.491 312.559 99.776 311.988C100.062 311.403 100.204 310.622 100.204 309.643C100.204 308.678 100.068 307.917 99.796 307.359C99.525 306.789 99.158 306.381 98.695 306.136C98.2317 305.887 97.7127 305.761 97.187 305.769C96.738 305.769 96.323 305.885 95.943 306.116C95.5737 306.335 95.2653 306.644 95.046 307.013C94.828 307.393 94.719 307.828 94.719 308.318V312.049ZM115.036 313.313C114.642 313.843 114.221 314.272 113.772 314.598C113.32 314.932 112.808 315.175 112.263 315.312C111.692 315.461 110.992 315.536 110.163 315.536C108.98 315.536 107.968 315.278 107.125 314.761C106.296 314.246 105.625 313.512 105.188 312.64C104.739 311.743 104.515 310.744 104.515 309.643C104.515 308.529 104.746 307.529 105.208 306.646C105.647 305.775 106.317 305.041 107.145 304.525C107.988 304.009 108.967 303.75 110.082 303.75C111.169 303.75 112.1 304.002 112.875 304.505C113.663 304.994 114.268 305.701 114.69 306.625C115.111 307.536 115.322 308.624 115.322 309.888V310.234H107.941L107.492 308.644L112.508 308.236C112.467 307.516 112.263 306.931 111.896 306.483C111.543 306.021 110.972 305.789 110.183 305.789C109.273 305.789 108.518 306.129 107.92 306.809C107.336 307.475 107.043 308.427 107.043 309.664C107.043 310.547 107.207 311.281 107.533 311.866C107.873 312.437 108.294 312.865 108.797 313.15C109.313 313.422 109.83 313.558 110.347 313.558C111.217 313.558 111.991 313.415 112.671 313.13C113.364 312.831 113.908 312.43 114.302 311.927L115.036 313.313ZM122.872 315.536C121.295 315.536 120.154 315.223 119.447 314.598C118.74 313.973 118.386 313.069 118.386 311.886V305.891H116.837L116.429 304.321L118.386 304.117V300.447L121.261 300.855L121.159 303.832L123.198 303.628V305.891H121.078L120.874 311.519V311.723C120.874 312.389 121.044 312.919 121.384 313.313C121.737 313.694 122.369 313.884 123.28 313.884L122.872 315.536ZM124.842 315.312V313.273L130.776 306.258L125.699 306.279L125.291 304.403L133.916 303.669L134.324 306.238L127.493 313.334L134.589 312.661V315.312H124.842Z"/>
</mask>
<path d="M7.815 315.312L7.447 301.671C7.257 301.684 7.074 301.705 6.897 301.732C6.72 301.759 6.557 301.786 6.408 301.813L6 300.019C6.394 299.938 6.877 299.849 7.447 299.754C8.71844 299.548 9.99741 299.392 11.281 299.285C11.8913 299.233 12.5035 299.206 13.116 299.203C14.666 299.203 15.991 299.53 17.092 300.182C18.207 300.821 19.063 301.759 19.661 302.996C20.259 304.219 20.558 305.715 20.558 307.482C20.558 308.637 20.375 309.691 20.008 310.642C19.6731 311.562 19.1604 312.408 18.499 313.13C17.8502 313.82 17.0658 314.369 16.195 314.741C15.311 315.121 14.346 315.312 13.299 315.312H7.815ZM10.322 313.313C11.016 313.313 11.709 313.3 12.402 313.273C13.0194 313.242 13.6332 313.16 14.237 313.028C14.822 312.892 15.379 312.593 15.909 312.131C16.44 311.655 16.868 311.023 17.194 310.234C17.534 309.446 17.704 308.522 17.704 307.461C17.704 306.075 17.486 304.933 17.051 304.036C16.63 303.139 16.059 302.473 15.338 302.038C14.618 301.589 13.802 301.365 12.892 301.365C12.035 301.365 11.179 301.385 10.322 301.426V313.313ZM28.348 315.536C27.165 315.536 26.139 315.298 25.269 314.822C24.4198 314.341 23.7262 313.626 23.27 312.763C22.795 311.879 22.557 310.846 22.557 309.664C22.557 308.467 22.795 307.427 23.27 306.544C23.7261 305.681 24.4197 304.966 25.269 304.484C26.139 303.995 27.165 303.75 28.348 303.75C29.544 303.75 30.57 303.995 31.426 304.484C32.281 304.958 32.9765 305.675 33.425 306.544C33.887 307.427 34.118 308.467 34.118 309.664C34.118 310.846 33.887 311.879 33.425 312.763C32.9765 313.632 32.281 314.348 31.426 314.822C30.57 315.298 29.544 315.536 28.348 315.536ZM28.674 313.66C29.53 313.592 30.196 313.232 30.672 312.579C31.148 311.913 31.386 311.064 31.386 310.031V309.725C31.386 309.616 31.379 309.507 31.365 309.398C31.27 308.229 30.944 307.312 30.387 306.646C29.843 305.98 29.15 305.647 28.307 305.647C28.2586 305.646 28.2104 305.653 28.164 305.667H28.021C27.192 305.721 26.526 306.082 26.023 306.748C25.534 307.414 25.289 308.27 25.289 309.317V309.623C25.289 309.718 25.296 309.82 25.309 309.929C25.405 311.084 25.738 312.002 26.309 312.681C26.88 313.347 27.58 313.68 28.409 313.68H28.531C28.5777 313.668 28.6257 313.661 28.674 313.66ZM44.036 315.577V307.971C44.036 307.292 43.825 306.775 43.404 306.422C42.996 306.055 42.5 305.871 41.915 305.871C41.331 305.871 40.794 306.027 40.304 306.34C39.829 306.653 39.496 307.108 39.305 307.706V315.312L36.818 315.577L36.41 303.648L39.305 303.995V305.32C39.5689 304.812 39.9912 304.404 40.508 304.158C41.052 303.886 41.793 303.75 42.731 303.75C43.56 303.75 44.287 303.927 44.913 304.281C45.5305 304.613 46.0399 305.115 46.381 305.728C46.734 306.326 46.89 307.006 46.85 307.767L46.442 315.312L44.036 315.577ZM57.215 315.577L53.341 310.194L52.566 310.928V315.312L50.201 315.597L49.793 299L52.566 299.407V308.685L56.501 303.648L59.539 304.281L54.544 309.052L60.029 315.026L57.215 315.577ZM71.349 313.313C70.955 313.843 70.534 314.272 70.085 314.598C69.6333 314.932 69.1207 315.175 68.576 315.312C68.005 315.461 67.305 315.536 66.476 315.536C65.293 315.536 64.281 315.278 63.438 314.761C62.6089 314.246 61.9385 313.512 61.501 312.64C61.052 311.743 60.828 310.744 60.828 309.643C60.828 308.529 61.059 307.529 61.521 306.646C61.9598 305.775 62.6299 305.041 63.458 304.525C64.301 304.009 65.28 303.75 66.394 303.75C67.482 303.75 68.413 304.002 69.188 304.505C69.976 304.994 70.581 305.701 71.002 306.625C71.424 307.536 71.635 308.624 71.635 309.888V310.234H64.253L63.805 308.644L68.821 308.236C68.78 307.516 68.576 306.931 68.209 306.483C67.856 306.021 67.285 305.789 66.496 305.789C65.585 305.789 64.831 306.129 64.233 306.809C63.648 307.475 63.356 308.427 63.356 309.664C63.356 310.547 63.519 311.281 63.846 311.866C64.185 312.437 64.607 312.865 65.11 313.15C65.626 313.422 66.143 313.558 66.659 313.558C67.529 313.558 68.304 313.415 68.984 313.13C69.677 312.831 70.221 312.43 70.615 311.927L71.349 313.313ZM73.7 317.636C74.489 317.582 75.127 317.425 75.617 317.167C76.0984 316.927 76.5171 316.578 76.84 316.148C77.153 315.726 77.411 315.25 77.615 314.72L72.742 304.219L75.821 303.648L78.696 311.927L81.897 303.648L84.12 304.219L79.878 315.883C79.416 317.133 78.723 318.037 77.799 318.594C76.874 319.165 75.685 319.451 74.23 319.451L73.7 317.636ZM88.771 313.782C88.771 314.285 88.594 314.713 88.241 315.067C87.888 315.407 87.459 315.577 86.956 315.577C86.453 315.577 86.025 315.407 85.672 315.067C85.5005 314.9 85.365 314.7 85.2739 314.479C85.1827 314.258 85.1378 314.021 85.142 313.782C85.142 313.279 85.318 312.851 85.672 312.498C86.025 312.144 86.453 311.968 86.956 311.968C87.459 311.968 87.888 312.144 88.241 312.498C88.594 312.851 88.771 313.279 88.771 313.782ZM92.293 315.515L91.885 299L94.781 299.407V305.096C95.025 304.675 95.433 304.349 96.004 304.117C96.6044 303.867 97.2496 303.742 97.9 303.75C99.395 303.75 100.592 304.253 101.489 305.259C102.386 306.252 102.835 307.713 102.835 309.643C102.835 311.587 102.379 313.055 101.468 314.047C100.558 315.04 99.375 315.536 97.921 315.536C97.2072 315.543 96.4994 315.404 95.841 315.128C95.216 314.843 94.767 314.469 94.495 314.007L94.291 315.047L92.293 315.515ZM94.719 312.049C94.937 312.484 95.256 312.851 95.678 313.15C96.099 313.449 96.609 313.599 97.207 313.599C97.724 313.599 98.206 313.476 98.655 313.232C99.117 312.974 99.491 312.559 99.776 311.988C100.062 311.403 100.204 310.622 100.204 309.643C100.204 308.678 100.068 307.917 99.796 307.359C99.525 306.789 99.158 306.381 98.695 306.136C98.2317 305.887 97.7127 305.761 97.187 305.769C96.738 305.769 96.323 305.885 95.943 306.116C95.5737 306.335 95.2653 306.644 95.046 307.013C94.828 307.393 94.719 307.828 94.719 308.318V312.049ZM115.036 313.313C114.642 313.843 114.221 314.272 113.772 314.598C113.32 314.932 112.808 315.175 112.263 315.312C111.692 315.461 110.992 315.536 110.163 315.536C108.98 315.536 107.968 315.278 107.125 314.761C106.296 314.246 105.625 313.512 105.188 312.64C104.739 311.743 104.515 310.744 104.515 309.643C104.515 308.529 104.746 307.529 105.208 306.646C105.647 305.775 106.317 305.041 107.145 304.525C107.988 304.009 108.967 303.75 110.082 303.75C111.169 303.75 112.1 304.002 112.875 304.505C113.663 304.994 114.268 305.701 114.69 306.625C115.111 307.536 115.322 308.624 115.322 309.888V310.234H107.941L107.492 308.644L112.508 308.236C112.467 307.516 112.263 306.931 111.896 306.483C111.543 306.021 110.972 305.789 110.183 305.789C109.273 305.789 108.518 306.129 107.92 306.809C107.336 307.475 107.043 308.427 107.043 309.664C107.043 310.547 107.207 311.281 107.533 311.866C107.873 312.437 108.294 312.865 108.797 313.15C109.313 313.422 109.83 313.558 110.347 313.558C111.217 313.558 111.991 313.415 112.671 313.13C113.364 312.831 113.908 312.43 114.302 311.927L115.036 313.313ZM122.872 315.536C121.295 315.536 120.154 315.223 119.447 314.598C118.74 313.973 118.386 313.069 118.386 311.886V305.891H116.837L116.429 304.321L118.386 304.117V300.447L121.261 300.855L121.159 303.832L123.198 303.628V305.891H121.078L120.874 311.519V311.723C120.874 312.389 121.044 312.919 121.384 313.313C121.737 313.694 122.369 313.884 123.28 313.884L122.872 315.536ZM124.842 315.312V313.273L130.776 306.258L125.699 306.279L125.291 304.403L133.916 303.669L134.324 306.238L127.493 313.334L134.589 312.661V315.312H124.842Z" fill="#DAA520"/>
<path d="M7.815 315.312L7.447 301.671C7.257 301.684 7.074 301.705 6.897 301.732C6.72 301.759 6.557 301.786 6.408 301.813L6 300.019C6.394 299.938 6.877 299.849 7.447 299.754C8.71844 299.548 9.99741 299.392 11.281 299.285C11.8913 299.233 12.5035 299.206 13.116 299.203C14.666 299.203 15.991 299.53 17.092 300.182C18.207 300.821 19.063 301.759 19.661 302.996C20.259 304.219 20.558 305.715 20.558 307.482C20.558 308.637 20.375 309.691 20.008 310.642C19.6731 311.562 19.1604 312.408 18.499 313.13C17.8502 313.82 17.0658 314.369 16.195 314.741C15.311 315.121 14.346 315.312 13.299 315.312H7.815ZM10.322 313.313C11.016 313.313 11.709 313.3 12.402 313.273C13.0194 313.242 13.6332 313.16 14.237 313.028C14.822 312.892 15.379 312.593 15.909 312.131C16.44 311.655 16.868 311.023 17.194 310.234C17.534 309.446 17.704 308.522 17.704 307.461C17.704 306.075 17.486 304.933 17.051 304.036C16.63 303.139 16.059 302.473 15.338 302.038C14.618 301.589 13.802 301.365 12.892 301.365C12.035 301.365 11.179 301.385 10.322 301.426V313.313ZM28.348 315.536C27.165 315.536 26.139 315.298 25.269 314.822C24.4198 314.341 23.7262 313.626 23.27 312.763C22.795 311.879 22.557 310.846 22.557 309.664C22.557 308.467 22.795 307.427 23.27 306.544C23.7261 305.681 24.4197 304.966 25.269 304.484C26.139 303.995 27.165 303.75 28.348 303.75C29.544 303.75 30.57 303.995 31.426 304.484C32.281 304.958 32.9765 305.675 33.425 306.544C33.887 307.427 34.118 308.467 34.118 309.664C34.118 310.846 33.887 311.879 33.425 312.763C32.9765 313.632 32.281 314.348 31.426 314.822C30.57 315.298 29.544 315.536 28.348 315.536ZM28.674 313.66C29.53 313.592 30.196 313.232 30.672 312.579C31.148 311.913 31.386 311.064 31.386 310.031V309.725C31.386 309.616 31.379 309.507 31.365 309.398C31.27 308.229 30.944 307.312 30.387 306.646C29.843 305.98 29.15 305.647 28.307 305.647C28.2586 305.646 28.2104 305.653 28.164 305.667H28.021C27.192 305.721 26.526 306.082 26.023 306.748C25.534 307.414 25.289 308.27 25.289 309.317V309.623C25.289 309.718 25.296 309.82 25.309 309.929C25.405 311.084 25.738 312.002 26.309 312.681C26.88 313.347 27.58 313.68 28.409 313.68H28.531C28.5777 313.668 28.6257 313.661 28.674 313.66ZM44.036 315.577V307.971C44.036 307.292 43.825 306.775 43.404 306.422C42.996 306.055 42.5 305.871 41.915 305.871C41.331 305.871 40.794 306.027 40.304 306.34C39.829 306.653 39.496 307.108 39.305 307.706V315.312L36.818 315.577L36.41 303.648L39.305 303.995V305.32C39.5689 304.812 39.9912 304.404 40.508 304.158C41.052 303.886 41.793 303.75 42.731 303.75C43.56 303.75 44.287 303.927 44.913 304.281C45.5305 304.613 46.0399 305.115 46.381 305.728C46.734 306.326 46.89 307.006 46.85 307.767L46.442 315.312L44.036 315.577ZM57.215 315.577L53.341 310.194L52.566 310.928V315.312L50.201 315.597L49.793 299L52.566 299.407V308.685L56.501 303.648L59.539 304.281L54.544 309.052L60.029 315.026L57.215 315.577ZM71.349 313.313C70.955 313.843 70.534 314.272 70.085 314.598C69.6333 314.932 69.1207 315.175 68.576 315.312C68.005 315.461 67.305 315.536 66.476 315.536C65.293 315.536 64.281 315.278 63.438 314.761C62.6089 314.246 61.9385 313.512 61.501 312.64C61.052 311.743 60.828 310.744 60.828 309.643C60.828 308.529 61.059 307.529 61.521 306.646C61.9598 305.775 62.6299 305.041 63.458 304.525C64.301 304.009 65.28 303.75 66.394 303.75C67.482 303.75 68.413 304.002 69.188 304.505C69.976 304.994 70.581 305.701 71.002 306.625C71.424 307.536 71.635 308.624 71.635 309.888V310.234H64.253L63.805 308.644L68.821 308.236C68.78 307.516 68.576 306.931 68.209 306.483C67.856 306.021 67.285 305.789 66.496 305.789C65.585 305.789 64.831 306.129 64.233 306.809C63.648 307.475 63.356 308.427 63.356 309.664C63.356 310.547 63.519 311.281 63.846 311.866C64.185 312.437 64.607 312.865 65.11 313.15C65.626 313.422 66.143 313.558 66.659 313.558C67.529 313.558 68.304 313.415 68.984 313.13C69.677 312.831 70.221 312.43 70.615 311.927L71.349 313.313ZM73.7 317.636C74.489 317.582 75.127 317.425 75.617 317.167C76.0984 316.927 76.5171 316.578 76.84 316.148C77.153 315.726 77.411 315.25 77.615 314.72L72.742 304.219L75.821 303.648L78.696 311.927L81.897 303.648L84.12 304.219L79.878 315.883C79.416 317.133 78.723 318.037 77.799 318.594C76.874 319.165 75.685 319.451 74.23 319.451L73.7 317.636ZM88.771 313.782C88.771 314.285 88.594 314.713 88.241 315.067C87.888 315.407 87.459 315.577 86.956 315.577C86.453 315.577 86.025 315.407 85.672 315.067C85.5005 314.9 85.365 314.7 85.2739 314.479C85.1827 314.258 85.1378 314.021 85.142 313.782C85.142 313.279 85.318 312.851 85.672 312.498C86.025 312.144 86.453 311.968 86.956 311.968C87.459 311.968 87.888 312.144 88.241 312.498C88.594 312.851 88.771 313.279 88.771 313.782ZM92.293 315.515L91.885 299L94.781 299.407V305.096C95.025 304.675 95.433 304.349 96.004 304.117C96.6044 303.867 97.2496 303.742 97.9 303.75C99.395 303.75 100.592 304.253 101.489 305.259C102.386 306.252 102.835 307.713 102.835 309.643C102.835 311.587 102.379 313.055 101.468 314.047C100.558 315.04 99.375 315.536 97.921 315.536C97.2072 315.543 96.4994 315.404 95.841 315.128C95.216 314.843 94.767 314.469 94.495 314.007L94.291 315.047L92.293 315.515ZM94.719 312.049C94.937 312.484 95.256 312.851 95.678 313.15C96.099 313.449 96.609 313.599 97.207 313.599C97.724 313.599 98.206 313.476 98.655 313.232C99.117 312.974 99.491 312.559 99.776 311.988C100.062 311.403 100.204 310.622 100.204 309.643C100.204 308.678 100.068 307.917 99.796 307.359C99.525 306.789 99.158 306.381 98.695 306.136C98.2317 305.887 97.7127 305.761 97.187 305.769C96.738 305.769 96.323 305.885 95.943 306.116C95.5737 306.335 95.2653 306.644 95.046 307.013C94.828 307.393 94.719 307.828 94.719 308.318V312.049ZM115.036 313.313C114.642 313.843 114.221 314.272 113.772 314.598C113.32 314.932 112.808 315.175 112.263 315.312C111.692 315.461 110.992 315.536 110.163 315.536C108.98 315.536 107.968 315.278 107.125 314.761C106.296 314.246 105.625 313.512 105.188 312.64C104.739 311.743 104.515 310.744 104.515 309.643C104.515 308.529 104.746 307.529 105.208 306.646C105.647 305.775 106.317 305.041 107.145 304.525C107.988 304.009 108.967 303.75 110.082 303.75C111.169 303.75 112.1 304.002 112.875 304.505C113.663 304.994 114.268 305.701 114.69 306.625C115.111 307.536 115.322 308.624 115.322 309.888V310.234H107.941L107.492 308.644L112.508 308.236C112.467 307.516 112.263 306.931 111.896 306.483C111.543 306.021 110.972 305.789 110.183 305.789C109.273 305.789 108.518 306.129 107.92 306.809C107.336 307.475 107.043 308.427 107.043 309.664C107.043 310.547 107.207 311.281 107.533 311.866C107.873 312.437 108.294 312.865 108.797 313.15C109.313 313.422 109.83 313.558 110.347 313.558C111.217 313.558 111.991 313.415 112.671 313.13C113.364 312.831 113.908 312.43 114.302 311.927L115.036 313.313ZM122.872 315.536C121.295 315.536 120.154 315.223 119.447 314.598C118.74 313.973 118.386 313.069 118.386 311.886V305.891H116.837L116.429 304.321L118.386 304.117V300.447L121.261 300.855L121.159 303.832L123.198 303.628V305.891H121.078L120.874 311.519V311.723C120.874 312.389 121.044 312.919 121.384 313.313C121.737 313.694 122.369 313.884 123.28 313.884L122.872 315.536ZM124.842 315.312V313.273L130.776 306.258L125.699 306.279L125.291 304.403L133.916 303.669L134.324 306.238L127.493 313.334L134.589 312.661V315.312H124.842Z" stroke="#CD2020" stroke-width="2" mask="url(#path-3-outside-1_0_1)"/>
</g>
</g>
<defs>
<filter id="filter0_i_0_1" x="3" y="0" width="350" height="329" filterUnits="userSpaceOnUse" color-interpolation-filters="sRGB">
<feFlood flood-opacity="0" result="BackgroundImageFix"/>
<feBlend mode="normal" in="SourceGraphic" in2="BackgroundImageFix" result="shape"/>
<feColorMatrix in="SourceAlpha" type="matrix" values="0 0 0 0 0 0 0 0 0 0 0 0 0 0 0 0 0 0 127 0" result="hardAlpha"/>
<feOffset dy="4"/>
<feGaussianBlur stdDeviation="2"/>
<feComposite in2="hardAlpha" operator="arithmetic" k2="-1" k3="1"/>
<feColorMatrix type="matrix" values="0 0 0 0 0 0 0 0 0 0 0 0 0 0 0 0 0 0 0.25 0"/>
<feBlend mode="normal" in2="shape" result="effect1_innerShadow_0_1"/>
</filter>
<filter id="filter1_d_0_1" x="0.798462" y="297.838" width="138.791" height="30.6127" filterUnits="userSpaceOnUse" color-interpolation-filters="sRGB">
<feFlood flood-opacity="0" result="BackgroundImageFix"/>
<feColorMatrix in="SourceAlpha" type="matrix" values="0 0 0 0 0 0 0 0 0 0 0 0 0 0 0 0 0 0 127 0" result="hardAlpha"/>
<feOffset dy="4"/>
<feGaussianBlur stdDeviation="2"/>
<feComposite in2="hardAlpha" operator="out"/>
<feColorMatrix type="matrix" values="0 0 0 0 0 0 0 0 0 0 0 0 0 0 0 0 0 0 0.25 0"/>
<feBlend mode="normal" in2="BackgroundImageFix" result="effect1_dropShadow_0_1"/>
<feBlend mode="normal" in="SourceGraphic" in2="effect1_dropShadow_0_1" result="shape"/>
</filter>
</defs>
</svg>
