<svg width="346" height="284" viewBox="0 0 346 284" fill="none" xmlns="http://www.w3.org/2000/svg">
<g filter="url(#filter0_i_1_17)">
<path d="M263.877 0C263.877 0 230.902 20.7964 216.522 53.5967C211.244 65.3602 207.473 77.5001 205.265 89.8398C186.149 92.9687 151.209 110.058 151.209 110.058L124.467 107.788L133.675 118.71L106.116 122.128L118.202 131.02L95.0073 130.194L97.588 137.872L76.9532 137.468L79.0028 149.851L60.9487 147.168L62.9984 161.269L48.5763 159.04L48.0984 170.549L25.3714 167.733L27.4211 181.042L0 187.291V284H136.33L187.965 214.891L160.47 187.523L170.123 181.653L204.054 215.419C207.495 218.086 211.127 220.571 213.612 221.388C227.132 225.846 254.309 226.341 266.83 232.261C273.892 235.563 282.399 248.261 290.141 250.498C291.489 250.802 292.891 250.936 294.293 250.894C301.069 250.894 311.593 249.028 311.593 249.028L321.151 256.293L330.051 250.325L306.687 231.617L315.427 224.938L340.161 244.694L341.829 243.778C341.829 243.778 349.263 211.448 344.282 201.673C338.335 190.049 309.342 175.51 300.559 165.034C293.327 156.431 287.571 135.428 279.574 127.305C271.8 119.305 255.753 107.227 239.717 98.8634C247.613 88.1042 254.126 76.7665 259.162 65.0145C273.51 32.239 263.952 0 263.952 0H263.877ZM314.174 12.9781C314.174 12.9781 297.362 19.7644 279.075 33.1719C278.402 45.0819 275.596 56.8608 270.738 68.1683C266.585 77.7309 261.567 87.053 255.721 96.0646C258.227 97.559 260.659 99.1028 263.038 100.663C272.278 92.4436 280.689 83.6831 288.197 74.4592C312.124 45.3244 314.174 12.9781 314.174 12.9781ZM248.117 140.803C250.428 140.803 252.686 141.336 254.607 142.333C256.528 143.331 258.026 144.75 258.91 146.409C259.794 148.068 260.025 149.894 259.575 151.656C259.124 153.418 258.011 155.036 256.378 156.306C254.744 157.576 252.662 158.441 250.396 158.791C248.13 159.142 245.781 158.962 243.647 158.274C241.512 157.587 239.687 156.423 238.404 154.93C237.12 153.436 236.435 151.68 236.435 149.884C236.435 147.476 237.666 145.166 239.857 143.463C242.047 141.76 245.019 140.803 248.117 140.803V140.803ZM329.892 201.673C331.941 201.673 333.63 205.85 333.63 211.052C333.63 216.253 331.92 220.43 329.796 220.43C327.672 220.43 326.069 216.236 326.069 211.06C326.069 205.883 327.747 201.665 329.796 201.665L329.892 201.673Z" fill="#108410"/>
</g>
<defs>
<filter id="filter0_i_1_17" x="0" y="0" width="346" height="288" filterUnits="userSpaceOnUse" color-interpolation-filters="sRGB">
<feFlood flood-opacity="0" result="BackgroundImageFix"/>
<feBlend mode="normal" in="SourceGraphic" in2="BackgroundImageFix" result="shape"/>
<feColorMatrix in="SourceAlpha" type="matrix" values="0 0 0 0 0 0 0 0 0 0 0 0 0 0 0 0 0 0 127 0" result="hardAlpha"/>
<feOffset dy="4"/>
<feGaussianBlur stdDeviation="2"/>
<feComposite in2="hardAlpha" operator="arithmetic" k2="-1" k3="1"/>
<feColorMatrix type="matrix" values="0 0 0 0 0 0 0 0 0 0 0 0 0 0 0 0 0 0 0.25 0"/>
<feBlend mode="normal" in2="shape" result="effect1_innerShadow_1_17"/>
</filter>
</defs>
</svg>
