<svg width="431" height="427" viewBox="0 0 431 427" fill="none" xmlns="http://www.w3.org/2000/svg">
<rect width="431" height="427" fill="#E5E5E5"/>
<g clip-path="url(#clip0_0_1)" filter="url(#filter0_d_0_1)">
<rect width="417" height="414" transform="translate(7)" fill="#99F4F4"/>
<rect width="417" height="414" transform="translate(7)" fill="#7E1313" fill-opacity="0.2"/>
<g style="mix-blend-mode:color-burn">
<path d="M325.025 -0.76947C325.025 -0.76947 285.284 29.6591 267.953 77.6514C261.592 94.8633 257.047 112.626 254.386 130.681C231.347 135.259 189.237 160.264 189.237 160.264L157.008 156.942L168.105 172.923L134.891 177.924L149.457 190.934L121.503 189.726L124.613 200.96L99.7441 200.368L102.214 218.488L80.4555 214.562L82.9258 235.194L65.5442 231.932L64.9683 248.771L37.5777 244.652L40.0479 264.125L7 273.269V414.77H171.305L233.536 313.651L200.398 273.607L212.033 265.019L252.927 314.424C257.074 318.326 261.451 321.962 264.446 323.158C280.74 329.681 313.493 330.405 328.584 339.067C337.095 343.898 347.348 362.477 356.678 365.751C358.303 366.196 359.993 366.392 361.683 366.33C369.849 366.33 382.533 363.6 382.533 363.6L394.052 374.23L404.778 365.497L376.62 338.124L387.154 328.352L416.963 357.259L418.973 355.918C418.973 355.918 427.932 308.614 421.929 294.312C414.762 277.303 379.82 256.031 369.235 240.702C360.518 228.115 353.581 197.385 343.943 185.498C334.574 173.793 315.234 156.121 295.907 143.884C305.423 128.142 313.273 111.553 319.343 94.3576C336.635 46.4015 325.115 -0.76947 325.115 -0.76947H325.025ZM385.643 18.2197C385.643 18.2197 365.382 28.1492 343.341 47.7665C342.531 65.1928 339.149 82.4274 333.294 98.972C328.289 112.964 322.242 126.604 315.196 139.789C318.216 141.975 321.147 144.234 324.014 146.517C335.15 134.491 345.287 121.673 354.336 108.177C383.173 65.5477 385.643 18.2197 385.643 18.2197ZM306.031 205.249C308.816 205.249 311.538 206.028 313.853 207.488C316.169 208.948 317.973 211.023 319.039 213.451C320.104 215.879 320.383 218.551 319.84 221.128C319.297 223.706 317.956 226.074 315.987 227.932C314.018 229.79 311.509 231.056 308.778 231.568C306.047 232.081 303.216 231.818 300.643 230.812C298.071 229.807 295.872 228.103 294.325 225.918C292.778 223.733 291.952 221.164 291.952 218.536C291.952 215.012 293.435 211.632 296.076 209.14C298.716 206.648 302.297 205.249 306.031 205.249ZM404.586 294.312C407.057 294.312 409.092 300.424 409.092 308.034C409.092 315.644 407.031 321.757 404.471 321.757C401.911 321.757 399.979 315.62 399.979 308.046C399.979 300.472 402.001 294.3 404.471 294.3L404.586 294.312Z" fill="#AE7F0A"/>
<path d="M325.025 -0.76947C325.025 -0.76947 285.284 29.6591 267.953 77.6514C261.592 94.8633 257.047 112.626 254.386 130.681C231.347 135.259 189.237 160.264 189.237 160.264L157.008 156.942L168.105 172.923L134.891 177.924L149.457 190.934L121.503 189.726L124.613 200.96L99.7441 200.368L102.214 218.488L80.4555 214.562L82.9258 235.194L65.5442 231.932L64.9683 248.771L37.5777 244.652L40.0479 264.125L7 273.269V414.77H171.305L233.536 313.651L200.398 273.607L212.033 265.019L252.927 314.424C257.074 318.326 261.451 321.962 264.446 323.158C280.74 329.681 313.493 330.405 328.584 339.067C337.095 343.898 347.348 362.477 356.678 365.751C358.303 366.196 359.993 366.392 361.683 366.33C369.849 366.33 382.533 363.6 382.533 363.6L394.052 374.23L404.778 365.497L376.62 338.124L387.154 328.352L416.963 357.259L418.973 355.918C418.973 355.918 427.932 308.614 421.929 294.312C414.762 277.303 379.82 256.031 369.235 240.702C360.518 228.115 353.581 197.385 343.943 185.498C334.574 173.793 315.234 156.121 295.907 143.884C305.423 128.142 313.273 111.553 319.343 94.3576C336.635 46.4015 325.115 -0.76947 325.115 -0.76947H325.025ZM385.643 18.2197C385.643 18.2197 365.382 28.1492 343.341 47.7665C342.531 65.1928 339.149 82.4274 333.294 98.972C328.289 112.964 322.242 126.604 315.196 139.789C318.216 141.975 321.147 144.234 324.014 146.517C335.15 134.491 345.287 121.673 354.336 108.177C383.173 65.5477 385.643 18.2197 385.643 18.2197ZM306.031 205.249C308.816 205.249 311.538 206.028 313.853 207.488C316.169 208.948 317.973 211.023 319.039 213.451C320.104 215.879 320.383 218.551 319.84 221.128C319.297 223.706 317.956 226.074 315.987 227.932C314.018 229.79 311.509 231.056 308.778 231.568C306.047 232.081 303.216 231.818 300.643 230.812C298.071 229.807 295.872 228.103 294.325 225.918C292.778 223.733 291.952 221.164 291.952 218.536C291.952 215.012 293.435 211.632 296.076 209.14C298.716 206.648 302.297 205.249 306.031 205.249ZM404.586 294.312C407.057 294.312 409.092 300.424 409.092 308.034C409.092 315.644 407.031 321.757 404.471 321.757C401.911 321.757 399.979 315.62 399.979 308.046C399.979 300.472 402.001 294.3 404.471 294.3L404.586 294.312Z" fill="black" fill-opacity="0.1"/>
<path d="M268.423 77.8213L268.422 77.8248C262.073 95.0043 257.537 112.733 254.881 130.754L254.829 131.103L254.483 131.171C243.04 133.445 226.809 140.81 213.399 147.635C206.703 151.043 200.725 154.308 196.421 156.722C194.27 157.928 192.537 158.922 191.342 159.613C190.745 159.959 190.282 160.23 189.969 160.413C189.812 160.505 189.693 160.575 189.613 160.623L189.523 160.676L189.5 160.69L189.494 160.693L189.493 160.694C189.493 160.694 189.492 160.694 189.237 160.264L189.492 160.694L189.35 160.778L189.186 160.761L158.04 157.551L168.516 172.638L168.974 173.298L168.18 173.418L136.018 178.26L149.79 190.561L150.834 191.494L149.435 191.434L122.168 190.255L125.095 200.827L125.275 201.476L124.601 201.46L100.319 200.882L102.71 218.42L102.803 219.102L102.126 218.98L81.0323 215.174L83.4222 235.134L83.5032 235.811L82.8335 235.685L66.0241 232.531L65.468 248.789L65.4488 249.349L64.8939 249.266L38.1569 245.245L40.544 264.062L40.5984 264.491L40.1813 264.607L7.5 273.649V414.27H171.026L232.922 313.694L200.013 273.926L199.676 273.519L200.101 273.205L211.736 264.616L212.116 264.335L212.418 264.7L253.292 314.081C255.352 316.019 257.462 317.884 259.425 319.411C261.404 320.95 263.202 322.122 264.632 322.693L264.632 322.694C271.746 325.542 282.04 327.279 292.686 329.077C294.137 329.322 295.594 329.568 297.051 329.818C309.139 331.893 321.195 334.25 328.833 338.633M268.423 77.8213L328.584 339.067M268.423 77.8213C277.06 53.9046 291.286 34.3535 303.362 20.7762C309.399 13.989 314.894 8.69866 318.88 5.10626C320.872 3.31016 322.487 1.93876 323.602 1.01721C324.102 0.604229 324.502 0.281609 324.79 0.0516083M268.423 77.8213L368.823 240.987M328.833 338.633L328.584 339.067M328.833 338.633C328.832 338.633 328.831 338.632 328.831 338.632L328.584 339.067M328.833 338.633C331.029 339.88 333.308 341.994 335.618 344.473C337.481 346.472 339.389 348.736 341.308 351.015C341.773 351.567 342.239 352.12 342.705 352.67C345.102 355.498 347.509 358.26 349.893 360.516C352.277 362.773 354.6 364.487 356.828 365.273M328.584 339.067C332.424 341.246 336.618 346.224 340.922 351.332C346.158 357.546 351.557 363.954 356.678 365.75M356.828 365.273C356.822 365.271 356.816 365.27 356.811 365.268L356.678 365.75M356.828 365.273C358.398 365.702 360.031 365.89 361.665 365.831L361.674 365.83H361.683C365.723 365.83 370.903 365.154 375.09 364.472C377.18 364.132 379.015 363.791 380.328 363.536C380.715 363.461 381.057 363.393 381.346 363.335C381.547 363.294 381.723 363.258 381.871 363.228C381.994 363.203 382.099 363.181 382.182 363.163L382.285 363.142L382.392 363.119L382.419 363.113L382.426 363.112L382.427 363.112L382.428 363.112L382.681 363.057L382.872 363.233L394.073 373.569M356.828 365.273C356.833 365.275 356.838 365.277 356.844 365.279L356.678 365.75M356.678 365.75L368.823 240.987M325.115 -0.76947H325.025C325.025 -0.76947 325.012 -0.758767 324.984 -0.737446L325.115 -0.76947ZM325.115 -0.76947V-0.652451C325.129 -0.633743 325.143 -0.616284 325.155 -0.599992C325.129 -0.712327 325.115 -0.76947 325.115 -0.76947ZM325.115 -0.76947C325.089 -0.762976 325.063 -0.756838 325.04 -0.751036L325.115 -0.76947ZM325.226 -0.292153L325.218 -0.286398C325.144 -0.228274 325.032 -0.140849 324.886 -0.0245169C324.856 -0.000384569 324.824 0.0249916 324.79 0.0516083M325.226 -0.292153L267.953 77.6515C284.32 32.3274 320.676 2.66836 324.668 -0.489503C324.688 -0.401272 324.717 -0.277278 324.752 -0.118541C324.764 -0.0656665 324.777 -0.0089376 324.79 0.0516083M325.226 -0.292153C326.367 4.76577 335.62 49.2138 319.343 94.3576C313.273 111.553 305.423 128.142 295.907 143.884C315.234 156.121 334.574 173.793 343.943 185.498L325.226 -0.292153ZM324.79 0.0516083C324.867 0.396462 324.967 0.865136 325.086 1.45066C325.366 2.82734 325.747 4.84985 326.151 7.42765C326.958 12.5835 327.855 19.9592 328.214 28.8307C328.93 46.5772 327.489 70.2897 318.872 94.188L318.871 94.1911C312.813 111.354 304.978 127.912 295.479 143.625L295.226 144.044L295.639 144.306C314.925 156.517 334.222 174.153 343.553 185.811L343.555 185.813C345.923 188.734 348.143 192.836 350.279 197.574C352.414 202.307 354.452 207.641 356.466 213.013C356.73 213.716 356.993 214.42 357.256 215.123C361.001 225.134 364.709 235.046 368.823 240.987M368.823 240.987C368.823 240.987 368.823 240.987 368.823 240.986L369.234 240.702L368.823 240.987ZM368.823 240.987C371.505 244.869 375.71 249.105 380.59 253.524C384.16 256.757 388.11 260.104 392.113 263.497C393.587 264.745 395.067 266 396.539 267.257C402.015 271.937 407.369 276.656 411.8 281.262C416.237 285.875 419.713 290.34 421.469 294.506M421.469 294.506C422.927 297.982 423.496 303.531 423.5 309.972C423.504 316.392 422.949 323.626 422.205 330.424C421.462 337.22 420.53 343.571 419.785 348.224C419.413 350.55 419.086 352.451 418.854 353.77C418.737 354.43 418.644 354.944 418.58 355.293C418.556 355.426 418.536 355.535 418.52 355.619M421.469 294.506L421.929 294.312L421.468 294.505C421.469 294.505 421.469 294.506 421.469 294.506ZM418.52 355.619L417.022 356.619M418.52 355.619L418.695 355.502L418.973 355.918C418.482 355.825 418.482 355.824 418.482 355.824L418.482 355.823L418.483 355.816L418.488 355.791L418.507 355.69C418.511 355.669 418.515 355.645 418.52 355.619ZM417.022 356.619L387.502 327.993L387.161 327.663L386.814 327.985L376.28 337.758L375.894 338.116L376.271 338.483L404.027 365.464M417.022 356.619L416.686 356.843L416.963 357.259L417.311 356.9L417.022 356.619ZM404.027 365.464L394.073 373.569M404.027 365.464L404.388 365.815M404.027 365.464L404.417 365.146L376.979 338.473L376.96 338.491L376.62 338.124M394.073 373.569L393.737 373.843L394.052 374.23M394.073 373.569L394.391 373.863L394.052 374.23M394.052 374.23L404.388 365.815M394.052 374.23L382.533 363.6C382.533 363.6 369.849 366.33 361.683 366.33L404.388 365.815M404.388 365.815L376.62 338.124M376.62 338.124L376.968 337.766L376.987 337.784L376.62 338.124ZM385.085 19.0637C385.061 19.3872 385.027 19.7982 384.983 20.2918C384.86 21.6625 384.651 23.6706 384.311 26.2145C383.631 31.3025 382.424 38.5327 380.318 47.0928C376.105 64.216 368.297 86.6455 353.922 107.897L353.921 107.898C344.972 121.245 334.956 133.928 323.962 145.837C321.319 143.738 318.618 141.66 315.842 139.64C322.811 126.552 328.801 113.019 333.765 99.1404L333.765 99.1388C339.613 82.6149 343.001 65.4042 343.831 48.0003C354.77 38.2832 365.259 30.9594 373.024 26.0594C376.925 23.598 380.138 21.7487 382.374 20.5155C383.493 19.899 384.366 19.4365 384.96 19.1285C385.003 19.1061 385.045 19.0845 385.085 19.0637ZM404.523 293.802L404.497 293.8H404.471C403.629 293.8 402.91 294.325 402.331 295.077C401.746 295.837 401.24 296.904 400.823 298.177C399.988 300.729 399.479 304.221 399.479 308.046C399.479 311.869 399.966 315.352 400.789 317.896C401.2 319.165 401.704 320.229 402.295 320.987C402.883 321.741 403.613 322.257 404.471 322.257C405.326 322.257 406.064 321.745 406.664 320.995C407.267 320.24 407.788 319.178 408.215 317.909C409.072 315.365 409.592 311.878 409.592 308.034C409.592 304.191 409.078 300.705 408.24 298.162C407.822 296.894 407.314 295.833 406.727 295.079C406.152 294.339 405.442 293.823 404.614 293.812L404.523 293.802ZM314.12 207.065C311.723 205.554 308.909 204.749 306.031 204.749C302.174 204.749 298.469 206.195 295.733 208.777C292.995 211.36 291.452 214.87 291.452 218.536C291.452 221.27 292.311 223.939 293.917 226.207C295.522 228.475 297.801 230.238 300.461 231.278C303.122 232.318 306.048 232.59 308.87 232.06C311.693 231.53 314.289 230.221 316.33 228.295C318.371 226.369 319.764 223.912 320.329 221.232C320.894 218.551 320.604 215.773 319.497 213.25C318.39 210.728 316.517 208.576 314.12 207.065Z" stroke="#4CC613" stroke-opacity="0.65"/>
</g>
<g filter="url(#filter1_d_0_1)">
<path d="M8.81934 404.081V387.729H13.4351C15.5015 387.729 17.201 388.422 18.5337 389.807C19.8739 391.184 20.5439 393.049 20.5439 395.4V396.41C20.5439 398.761 19.8776 400.629 18.5449 402.014C17.2197 403.392 15.5164 404.081 13.4351 404.081H8.81934ZM10.7847 402.441H13.4351C15.0148 402.441 16.2614 401.91 17.1748 400.846C18.0957 399.783 18.5562 398.305 18.5562 396.41V395.4C18.5562 393.505 18.092 392.027 17.1636 390.964C16.2352 389.9 14.9924 389.369 13.4351 389.369H10.7847V402.441ZM22.6665 398.51V398.151C22.6665 396.414 23.1532 394.999 24.1265 393.906C25.1073 392.813 26.41 392.266 28.0347 392.266C29.6668 392.266 30.9696 392.813 31.9429 393.906C32.9237 394.999 33.4141 396.414 33.4141 398.151V398.51C33.4141 400.247 32.9237 401.662 31.9429 402.756C30.9696 403.849 29.6668 404.395 28.0347 404.395C26.41 404.395 25.1073 403.849 24.1265 402.756C23.1532 401.662 22.6665 400.247 22.6665 398.51ZM24.6206 398.151V398.51C24.6206 399.723 24.9089 400.745 25.4854 401.576C26.0618 402.4 26.9116 402.812 28.0347 402.812C29.1652 402.812 30.0187 402.4 30.5952 401.576C31.1717 400.745 31.46 399.72 31.46 398.499V398.151C31.46 396.931 31.1717 395.909 30.5952 395.085C30.0187 394.262 29.1652 393.85 28.0347 393.85C26.9116 393.85 26.0618 394.262 25.4854 395.085C24.9089 395.909 24.6206 396.931 24.6206 398.151ZM35.9072 404.081V392.581H37.6479L37.7153 394.097H37.7715C38.1833 393.55 38.6924 393.124 39.2988 392.817C39.9053 392.51 40.5791 392.356 41.3203 392.356C42.4733 392.356 43.3905 392.686 44.0718 393.344C44.7531 393.996 45.0938 395.089 45.0938 396.624V404.081H43.1846V396.624C43.1846 395.673 42.9712 394.995 42.5444 394.591C42.1252 394.179 41.5299 393.973 40.7588 393.973C40.0924 393.973 39.5047 394.157 38.9956 394.524C38.494 394.883 38.1009 395.347 37.8164 395.916V404.081H35.9072ZM48.1709 404.081V387.01H50.0801V397.859L55.0103 392.581H57.2114L50.0801 400.139V404.081H48.1709ZM55.5044 404.081L51.0122 398.028L52.2139 396.702L57.7505 404.081H55.5044ZM58.2446 398.51V398.151C58.2446 396.414 58.7126 394.999 59.6484 393.906C60.5918 392.813 61.8384 392.266 63.3882 392.266C64.938 392.266 66.1284 392.775 66.9595 393.794C67.7905 394.812 68.2061 396.201 68.2061 397.96V398.735H59.4014V397.196H66.2856V396.972C66.2856 396.118 66.0498 395.385 65.5781 394.771C65.1064 394.157 64.3989 393.85 63.4556 393.85C62.3625 393.85 61.5426 394.262 60.9961 395.085C60.457 395.901 60.1875 396.923 60.1875 398.151V398.51C60.1875 399.731 60.4757 400.753 61.0522 401.576C61.6287 402.4 62.5047 402.812 63.6802 402.812C64.4289 402.812 65.0653 402.651 65.5894 402.329C66.1209 402.007 66.5514 401.621 66.8809 401.172L68.1162 402.183C67.7643 402.729 67.2103 403.235 66.4541 403.699C65.7054 404.163 64.7845 404.395 63.6914 404.395C61.9395 404.395 60.5918 403.849 59.6484 402.756C58.7126 401.662 58.2446 400.247 58.2446 398.51ZM69.4189 408.753V407.124C69.6061 407.184 69.8158 407.229 70.0479 407.259C70.2799 407.296 70.5083 407.315 70.7329 407.315C71.2495 407.323 71.6987 407.109 72.0806 406.675C72.4624 406.241 72.8704 405.369 73.3047 404.058V404.047L68.9922 392.581H70.8677L73.6641 400.319C73.7689 400.618 73.8587 400.891 73.9336 401.138C74.016 401.385 74.0871 401.618 74.147 401.835H74.2144C74.2743 401.618 74.3454 401.385 74.4277 401.138C74.5101 400.884 74.6037 400.611 74.7085 400.319L77.3701 392.581H79.2007L74.4502 405.653C74.0609 406.716 73.578 407.536 73.0015 408.112C72.425 408.689 71.7025 408.977 70.834 408.977C70.542 408.977 70.2837 408.959 70.0591 408.921C69.8345 408.884 69.6211 408.827 69.4189 408.753ZM79.8071 403.003C79.8071 402.636 79.9232 402.325 80.1553 402.07C80.3874 401.816 80.7205 401.689 81.1548 401.689C81.589 401.689 81.9222 401.816 82.1543 402.07C82.3864 402.325 82.5024 402.636 82.5024 403.003C82.5024 403.369 82.3864 403.68 82.1543 403.935C81.9222 404.189 81.589 404.317 81.1548 404.317C80.7205 404.317 80.3874 404.189 80.1553 403.935C79.9232 403.68 79.8071 403.369 79.8071 403.003ZM85.9053 404.081V387.01H87.8145V393.962C88.1589 393.475 88.6193 393.086 89.1958 392.794C89.7723 392.502 90.4648 392.356 91.2734 392.356C92.7259 392.356 93.8826 392.899 94.7437 393.985C95.6047 395.07 96.0352 396.452 96.0352 398.129V398.488C96.0352 400.165 95.6047 401.554 94.7437 402.654C93.8826 403.755 92.7259 404.305 91.2734 404.305C90.4648 404.305 89.7536 404.141 89.1396 403.811C88.5257 403.474 88.069 403.063 87.7695 402.576H87.7134L87.646 404.081H85.9053ZM87.8145 400.723C88.054 401.239 88.4321 401.704 88.9487 402.115C89.4653 402.52 90.1055 402.722 90.8691 402.722C91.9697 402.722 92.7783 402.318 93.2949 401.509C93.819 400.693 94.0811 399.682 94.0811 398.477V398.129C94.0811 396.931 93.819 395.935 93.2949 395.141C92.7783 394.34 91.9622 393.94 90.8467 393.94C90.098 393.94 89.4616 394.142 88.9375 394.546C88.4209 394.95 88.0465 395.415 87.8145 395.939V400.723ZM97.8208 398.51V398.151C97.8208 396.414 98.2887 394.999 99.2246 393.906C100.168 392.813 101.415 392.266 102.964 392.266C104.514 392.266 105.705 392.775 106.536 393.794C107.367 394.812 107.782 396.201 107.782 397.96V398.735H98.9775V397.196H105.862V396.972C105.862 396.118 105.626 395.385 105.154 394.771C104.683 394.157 103.975 393.85 103.032 393.85C101.939 393.85 101.119 394.262 100.572 395.085C100.033 395.901 99.7637 396.923 99.7637 398.151V398.51C99.7637 399.731 100.052 400.753 100.628 401.576C101.205 402.4 102.081 402.812 103.256 402.812C104.005 402.812 104.641 402.651 105.166 402.329C105.697 402.007 106.128 401.621 106.457 401.172L107.692 402.183C107.34 402.729 106.786 403.235 106.03 403.699C105.282 404.163 104.361 404.395 103.268 404.395C101.516 404.395 100.168 403.849 99.2246 402.756C98.2887 401.662 97.8208 400.247 97.8208 398.51ZM108.625 394.074V392.581H115.127V394.074H108.625ZM110.68 401.183V393.445V393.154V389.436H112.589V401.183C112.589 401.767 112.694 402.172 112.903 402.396C113.12 402.621 113.457 402.733 113.914 402.733C114.116 402.733 114.315 402.714 114.509 402.677C114.704 402.632 114.899 402.572 115.093 402.497V404.092C114.914 404.174 114.674 404.245 114.375 404.305C114.083 404.365 113.764 404.395 113.42 404.395C112.581 404.395 111.915 404.144 111.421 403.643C110.927 403.134 110.68 402.314 110.68 401.183ZM116.272 404.081V402.666L122.842 394.164H116.362V392.581H125.156V393.962L118.563 402.497H125.459V404.081H116.272Z" fill="#CAB64B"/>
<path d="M8.81934 404.081H7.81934V405.081H8.81934V404.081ZM8.81934 387.729V386.729H7.81934V387.729H8.81934ZM18.5337 389.807L17.8131 390.5L17.8169 390.504L18.5337 389.807ZM18.5449 402.014L17.8243 401.321L17.8242 401.321L18.5449 402.014ZM10.7847 402.441H9.78467V403.441H10.7847V402.441ZM17.1748 400.846L16.4189 400.192L16.4163 400.195L17.1748 400.846ZM10.7847 389.369V388.369H9.78467V389.369H10.7847ZM9.81934 404.081V387.729H7.81934V404.081H9.81934ZM8.81934 388.729H13.4351V386.729H8.81934V388.729ZM13.4351 388.729C15.2523 388.729 16.6841 389.327 17.8131 390.5L19.2543 389.113C17.7179 387.517 15.7507 386.729 13.4351 386.729V388.729ZM17.8169 390.504C18.9366 391.655 19.5439 393.248 19.5439 395.4H21.5439C21.5439 392.85 20.8111 390.714 19.2505 389.11L17.8169 390.504ZM19.5439 395.4V396.41H21.5439V395.4H19.5439ZM19.5439 396.41C19.5439 398.564 18.9395 400.162 17.8243 401.321L19.2655 402.708C20.8157 401.097 21.5439 398.959 21.5439 396.41H19.5439ZM17.8242 401.321C16.7054 402.484 15.2713 403.081 13.4351 403.081V405.081C15.7616 405.081 17.7341 404.3 19.2656 402.708L17.8242 401.321ZM13.4351 403.081H8.81934V405.081H13.4351V403.081ZM10.7847 403.441H13.4351V401.441H10.7847V403.441ZM13.4351 403.441C15.2649 403.441 16.8045 402.812 17.9333 401.498L16.4163 400.195C15.7183 401.007 14.7647 401.441 13.4351 401.441V403.441ZM17.9307 401.501C19.0565 400.201 19.5562 398.461 19.5562 396.41H17.5562C17.5562 398.148 17.1349 399.365 16.4189 400.192L17.9307 401.501ZM19.5562 396.41V395.4H17.5562V396.41H19.5562ZM19.5562 395.4C19.5562 393.347 19.0518 391.606 17.9168 390.306L16.4103 391.621C17.1321 392.448 17.5562 393.664 17.5562 395.4H19.5562ZM17.9168 390.306C16.7776 389.001 15.2476 388.369 13.4351 388.369V390.369C14.7371 390.369 15.6928 390.8 16.4103 391.621L17.9168 390.306ZM13.4351 388.369H10.7847V390.369H13.4351V388.369ZM9.78467 389.369V402.441H11.7847V389.369H9.78467ZM24.1265 393.906L23.3822 393.238L23.3796 393.241L24.1265 393.906ZM31.9429 393.906L31.196 394.571L31.1986 394.574L31.9429 393.906ZM31.9429 402.756L31.1986 402.088L31.196 402.091L31.9429 402.756ZM24.1265 402.756L23.3796 403.421L23.3822 403.423L24.1265 402.756ZM25.4854 401.576L24.6637 402.146L24.6661 402.15L25.4854 401.576ZM30.5952 401.576L31.4145 402.15L31.4169 402.146L30.5952 401.576ZM23.6665 398.51V398.151H21.6665V398.51H23.6665ZM23.6665 398.151C23.6665 396.611 24.0926 395.448 24.8733 394.571L23.3796 393.241C22.2137 394.55 21.6665 396.217 21.6665 398.151H23.6665ZM24.8708 394.574C25.6405 393.716 26.6603 393.266 28.0347 393.266V391.266C26.1597 391.266 24.574 391.91 23.3822 393.238L24.8708 394.574ZM28.0347 393.266C29.4181 393.266 30.4355 393.717 31.196 394.571L32.6897 393.241C31.5036 391.909 29.9155 391.266 28.0347 391.266V393.266ZM31.1986 394.574C31.9855 395.451 32.4141 396.613 32.4141 398.151H34.4141C34.4141 396.215 33.8619 394.547 32.6872 393.238L31.1986 394.574ZM32.4141 398.151V398.51H34.4141V398.151H32.4141ZM32.4141 398.51C32.4141 400.049 31.9855 401.211 31.1986 402.088L32.6872 403.423C33.8619 402.114 34.4141 400.446 34.4141 398.51H32.4141ZM31.196 402.091C30.4355 402.945 29.4181 403.395 28.0347 403.395V405.395C29.9155 405.395 31.5036 404.753 32.6897 403.421L31.196 402.091ZM28.0347 403.395C26.6603 403.395 25.6405 402.946 24.8708 402.088L23.3822 403.423C24.574 404.752 26.1597 405.395 28.0347 405.395V403.395ZM24.8733 402.091C24.0926 401.214 23.6665 400.051 23.6665 398.51H21.6665C21.6665 400.444 22.2137 402.111 23.3796 403.421L24.8733 402.091ZM23.6206 398.151V398.51H25.6206V398.151H23.6206ZM23.6206 398.51C23.6206 399.886 23.9495 401.117 24.6637 402.146L26.307 401.006C25.8682 400.374 25.6206 399.561 25.6206 398.51H23.6206ZM24.6661 402.15C25.4539 403.275 26.6298 403.812 28.0347 403.812V401.812C27.1935 401.812 26.6698 401.525 26.3046 401.003L24.6661 402.15ZM28.0347 403.812C29.4443 403.812 30.6253 403.277 31.4144 402.15L29.776 401.003C29.4121 401.523 28.8861 401.812 28.0347 401.812V403.812ZM31.4169 402.146C32.1317 401.116 32.46 399.88 32.46 398.499H30.46C30.46 399.559 30.2117 400.375 29.7736 401.006L31.4169 402.146ZM32.46 398.499V398.151H30.46V398.499H32.46ZM32.46 398.151C32.46 396.77 32.1318 395.537 31.4144 394.512L29.776 395.659C30.2116 396.281 30.46 397.091 30.46 398.151H32.46ZM31.4144 394.512C30.6253 393.384 29.4443 392.85 28.0347 392.85V394.85C28.8861 394.85 29.4121 395.139 29.776 395.659L31.4144 394.512ZM28.0347 392.85C26.6298 392.85 25.4539 393.386 24.6661 394.512L26.3046 395.659C26.6698 395.137 27.1935 394.85 28.0347 394.85V392.85ZM24.6661 394.512C23.9487 395.537 23.6206 396.77 23.6206 398.151H25.6206C25.6206 397.091 25.869 396.281 26.3046 395.659L24.6661 394.512ZM35.9072 404.081H34.9072V405.081H35.9072V404.081ZM35.9072 392.581V391.581H34.9072V392.581H35.9072ZM37.6479 392.581L38.647 392.536L38.6045 391.581H37.6479V392.581ZM37.7153 394.097L36.7163 394.141L36.7588 395.097H37.7153V394.097ZM37.7715 394.097V395.097H38.2701L38.5702 394.699L37.7715 394.097ZM39.2988 392.817L38.8472 391.924L39.2988 392.817ZM44.0718 393.344L43.3766 394.063L43.3807 394.067L44.0718 393.344ZM45.0938 404.081V405.081H46.0938V404.081H45.0938ZM43.1846 404.081H42.1846V405.081H43.1846V404.081ZM42.5444 394.591L41.8437 395.304L41.8502 395.311L41.8567 395.317L42.5444 394.591ZM38.9956 394.524L39.578 395.337L39.5802 395.335L38.9956 394.524ZM37.8164 395.916L36.922 395.469L36.8164 395.68V395.916H37.8164ZM37.8164 404.081V405.081H38.8164V404.081H37.8164ZM36.9072 404.081V392.581H34.9072V404.081H36.9072ZM35.9072 393.581H37.6479V391.581H35.9072V393.581ZM36.6489 392.625L36.7163 394.141L38.7143 394.052L38.647 392.536L36.6489 392.625ZM37.7153 395.097H37.7715V393.097H37.7153V395.097ZM38.5702 394.699C38.8906 394.273 39.2813 393.946 39.7504 393.709L38.8472 391.924C38.1034 392.301 37.4759 392.827 36.9728 393.495L38.5702 394.699ZM39.7504 393.709C40.2045 393.479 40.7215 393.356 41.3203 393.356V391.356C40.4367 391.356 39.606 391.54 38.8472 391.924L39.7504 393.709ZM41.3203 393.356C42.2734 393.356 42.9206 393.622 43.3766 394.063L44.7669 392.626C43.8603 391.749 42.6732 391.356 41.3203 391.356V393.356ZM43.3807 394.067C43.7709 394.44 44.0938 395.197 44.0938 396.624H46.0938C46.0938 394.981 45.7353 393.551 44.7628 392.622L43.3807 394.067ZM44.0938 396.624V404.081H46.0938V396.624H44.0938ZM45.0938 403.081H43.1846V405.081H45.0938V403.081ZM44.1846 404.081V396.624H42.1846V404.081H44.1846ZM44.1846 396.624C44.1846 395.562 43.9521 394.547 43.2322 393.865L41.8567 395.317C41.9902 395.443 42.1846 395.784 42.1846 396.624H44.1846ZM43.2451 393.878C42.586 393.23 41.7073 392.973 40.7588 392.973V394.973C41.3526 394.973 41.6643 395.128 41.8437 395.304L43.2451 393.878ZM40.7588 392.973C39.8964 392.973 39.1012 393.215 38.411 393.712L39.5802 395.335C39.9082 395.099 40.2885 394.973 40.7588 394.973V392.973ZM38.4132 393.711C37.7752 394.168 37.2769 394.759 36.922 395.469L38.7108 396.363C38.9249 395.935 39.2127 395.598 39.578 395.337L38.4132 393.711ZM36.8164 395.916V404.081H38.8164V395.916H36.8164ZM37.8164 403.081H35.9072V405.081H37.8164V403.081ZM48.1709 404.081H47.1709V405.081H48.1709V404.081ZM48.1709 387.01V386.01H47.1709V387.01H48.1709ZM50.0801 387.01H51.0801V386.01H50.0801V387.01ZM50.0801 397.859H49.0801V400.395L50.8109 398.542L50.0801 397.859ZM55.0103 392.581V391.581H54.5759L54.2795 391.898L55.0103 392.581ZM57.2114 392.581L57.9388 393.267L59.5298 391.581H57.2114V392.581ZM50.0801 400.139L49.3527 399.453L49.0801 399.742V400.139H50.0801ZM50.0801 404.081V405.081H51.0801V404.081H50.0801ZM55.5044 404.081L54.7014 404.677L55.0012 405.081H55.5044V404.081ZM51.0122 398.028L50.2714 397.356L49.7198 397.964L50.2092 398.623L51.0122 398.028ZM52.2139 396.702L53.0137 396.102L52.2867 395.133L51.4731 396.031L52.2139 396.702ZM57.7505 404.081V405.081H59.7511L58.5503 403.481L57.7505 404.081ZM49.1709 404.081V387.01H47.1709V404.081H49.1709ZM48.1709 388.01H50.0801V386.01H48.1709V388.01ZM49.0801 387.01V397.859H51.0801V387.01H49.0801ZM50.8109 398.542L55.7411 393.263L54.2795 391.898L49.3493 397.176L50.8109 398.542ZM55.0103 393.581H57.2114V391.581H55.0103V393.581ZM56.4841 391.894L49.3527 399.453L50.8074 400.825L57.9388 393.267L56.4841 391.894ZM49.0801 400.139V404.081H51.0801V400.139H49.0801ZM50.0801 403.081H48.1709V405.081H50.0801V403.081ZM56.3074 403.485L51.8152 397.432L50.2092 398.623L54.7014 404.677L56.3074 403.485ZM51.753 398.699L52.9547 397.374L51.4731 396.031L50.2714 397.356L51.753 398.699ZM51.414 397.303L56.9506 404.681L58.5503 403.481L53.0137 396.102L51.414 397.303ZM57.7505 403.081H55.5044V405.081H57.7505V403.081ZM59.6484 393.906L58.8914 393.253L58.8888 393.256L59.6484 393.906ZM68.2061 398.735V399.735H69.2061V398.735H68.2061ZM59.4014 398.735H58.4014V399.735H59.4014V398.735ZM59.4014 397.196V396.196H58.4014V397.196H59.4014ZM66.2856 397.196V398.196H67.2856V397.196H66.2856ZM60.9961 395.085L60.1629 394.532L60.1617 394.534L60.9961 395.085ZM65.5894 402.329L65.0713 401.473L65.0659 401.477L65.5894 402.329ZM66.8809 401.172L67.5141 400.398L66.698 399.73L66.0745 400.581L66.8809 401.172ZM68.1162 402.183L68.957 402.724L69.4401 401.974L68.7494 401.409L68.1162 402.183ZM66.4541 403.699L65.9309 402.847L65.9272 402.849L66.4541 403.699ZM59.6484 402.756L58.8888 403.406L58.8914 403.409L59.6484 402.756ZM59.2446 398.51V398.151H57.2446V398.51H59.2446ZM59.2446 398.151C59.2446 396.601 59.6578 395.433 60.4081 394.556L58.8888 393.256C57.7673 394.566 57.2446 396.227 57.2446 398.151H59.2446ZM60.4055 394.559C61.1436 393.704 62.1049 393.266 63.3882 393.266V391.266C61.5718 391.266 60.0399 391.922 58.8914 393.253L60.4055 394.559ZM63.3882 393.266C64.6975 393.266 65.5785 393.683 66.1848 394.426L67.7342 393.161C66.6783 391.868 65.1784 391.266 63.3882 391.266V393.266ZM66.1848 394.426C66.8273 395.213 67.2061 396.353 67.2061 397.96H69.2061C69.2061 396.048 68.7537 394.41 67.7342 393.161L66.1848 394.426ZM67.2061 397.96V398.735H69.2061V397.96H67.2061ZM68.2061 397.735H59.4014V399.735H68.2061V397.735ZM60.4014 398.735V397.196H58.4014V398.735H60.4014ZM59.4014 398.196H66.2856V396.196H59.4014V398.196ZM67.2856 397.196V396.972H65.2856V397.196H67.2856ZM67.2856 396.972C67.2856 395.922 66.9909 394.968 66.3711 394.161L64.7851 395.38C65.1087 395.801 65.2856 396.315 65.2856 396.972H67.2856ZM66.3711 394.161C65.6684 393.247 64.634 392.85 63.4556 392.85V394.85C64.1638 394.85 64.5445 395.067 64.7851 395.38L66.3711 394.161ZM63.4556 392.85C62.0692 392.85 60.9167 393.396 60.1629 394.532L61.8293 395.638C62.1686 395.127 62.6557 394.85 63.4556 394.85V392.85ZM60.1617 394.534C59.49 395.551 59.1875 396.777 59.1875 398.151H61.1875C61.1875 397.069 61.4241 396.252 61.8305 395.636L60.1617 394.534ZM59.1875 398.151V398.51H61.1875V398.151H59.1875ZM59.1875 398.51C59.1875 399.891 59.5156 401.125 60.233 402.15L61.8715 401.003C61.4359 400.381 61.1875 399.57 61.1875 398.51H59.1875ZM60.233 402.15C61.0303 403.289 62.2418 403.812 63.6802 403.812V401.812C62.7676 401.812 62.2272 401.511 61.8715 401.003L60.233 402.15ZM63.6802 403.812C64.5734 403.812 65.4002 403.619 66.1128 403.181L65.0659 401.477C64.7304 401.683 64.2843 401.812 63.6802 401.812V403.812ZM66.1074 403.184C66.7385 402.802 67.2715 402.33 67.6873 401.763L66.0745 400.581C65.8314 400.912 65.5034 401.212 65.0713 401.473L66.1074 403.184ZM66.2476 401.946L67.483 402.957L68.7494 401.409L67.5141 400.398L66.2476 401.946ZM67.2754 401.641C67.0288 402.025 66.6034 402.434 65.9309 402.847L66.9773 404.551C67.8172 404.036 68.4999 403.434 68.957 402.724L67.2754 401.641ZM65.9272 402.849C65.3708 403.194 64.643 403.395 63.6914 403.395V405.395C64.926 405.395 66.04 405.132 66.981 404.549L65.9272 402.849ZM63.6914 403.395C62.1624 403.395 61.1187 402.929 60.4055 402.102L58.8914 403.409C60.0649 404.769 61.7165 405.395 63.6914 405.395V403.395ZM60.4081 402.105C59.6578 401.229 59.2446 400.06 59.2446 398.51H57.2446C57.2446 400.434 57.7673 402.096 58.8888 403.406L60.4081 402.105ZM69.4189 408.753H68.4189V409.449L69.0716 409.69L69.4189 408.753ZM69.4189 407.124L69.7237 406.172L68.4189 405.754V407.124H69.4189ZM70.0479 407.259L70.2071 406.272L70.1915 406.269L70.1758 406.267L70.0479 407.259ZM70.7329 407.315L70.7474 406.315L70.7402 406.315H70.7329V407.315ZM72.0806 406.675L71.3296 406.015L72.0806 406.675ZM73.3047 404.058L74.2539 404.373L74.3047 404.22V404.058H73.3047ZM73.3047 404.047H74.3047V403.865L74.2407 403.695L73.3047 404.047ZM68.9922 392.581V391.581H67.5477L68.0562 392.933L68.9922 392.581ZM70.8677 392.581L71.8081 392.241L71.5696 391.581H70.8677V392.581ZM73.6641 400.319L74.608 399.988L74.6045 399.979L73.6641 400.319ZM73.9336 401.138L72.9766 401.428L72.9806 401.442L72.9849 401.455L73.9336 401.138ZM74.147 401.835L73.183 402.101L73.3855 402.835H74.147V401.835ZM74.2144 401.835V402.835H74.9758L75.1783 402.101L74.2144 401.835ZM74.4277 401.138L75.3765 401.455L75.3792 401.446L74.4277 401.138ZM74.7085 400.319L75.6498 400.656L75.6541 400.644L74.7085 400.319ZM77.3701 392.581V391.581H76.6566L76.4245 392.255L77.3701 392.581ZM79.2007 392.581L80.1405 392.922L80.6281 391.581H79.2007V392.581ZM74.4502 405.653L75.3892 405.997L75.3901 405.995L74.4502 405.653ZM70.4189 408.753V407.124H68.4189V408.753H70.4189ZM69.1142 408.077C69.3686 408.158 69.6388 408.214 69.9199 408.251L70.1758 406.267C69.9928 406.244 69.8436 406.21 69.7237 406.172L69.1142 408.077ZM69.8886 408.246C70.1709 408.292 70.4526 408.315 70.7329 408.315V406.315C70.5641 406.315 70.389 406.301 70.2071 406.272L69.8886 408.246ZM70.7184 408.315C71.5646 408.327 72.2823 407.96 72.8315 407.335L71.3296 406.015C71.1151 406.259 70.9345 406.318 70.7474 406.315L70.7184 408.315ZM72.8315 407.335C73.3613 406.733 73.8202 405.681 74.2539 404.373L72.3555 403.744C71.9207 405.056 71.5635 405.749 71.3296 406.015L72.8315 407.335ZM74.3047 404.058V404.047H72.3047V404.058H74.3047ZM74.2407 403.695L69.9282 392.229L68.0562 392.933L72.3687 404.399L74.2407 403.695ZM68.9922 393.581H70.8677V391.581H68.9922V393.581ZM69.9272 392.921L72.7236 400.658L74.6045 399.979L71.8081 392.241L69.9272 392.921ZM72.7202 400.649C72.8214 400.938 72.9066 401.197 72.9766 401.428L74.8906 400.848C74.8108 400.585 74.7164 400.298 74.6079 399.988L72.7202 400.649ZM72.9849 401.455C73.0626 401.688 73.1284 401.903 73.183 402.101L75.111 401.569C75.0458 401.332 74.9693 401.083 74.8823 400.822L72.9849 401.455ZM74.147 402.835H74.2144V400.835H74.147V402.835ZM75.1783 402.101C75.2329 401.903 75.2988 401.688 75.3764 401.455L73.4791 400.822C73.392 401.083 73.3156 401.332 73.2504 401.569L75.1783 402.101ZM75.3792 401.446C75.4578 401.203 75.5479 400.94 75.6497 400.656L73.7673 399.981C73.6595 400.281 73.5624 400.564 73.4763 400.831L75.3792 401.446ZM75.6541 400.644L78.3157 392.906L76.4245 392.255L73.7629 399.993L75.6541 400.644ZM77.3701 393.581H79.2007V391.581H77.3701V393.581ZM78.2608 392.239L73.5103 405.311L75.3901 405.995L80.1405 392.922L78.2608 392.239ZM73.5112 405.309C73.1536 406.286 72.7362 406.963 72.2944 407.405L73.7086 408.82C74.4197 408.108 74.9681 407.147 75.3892 405.997L73.5112 405.309ZM72.2944 407.405C71.9185 407.781 71.4564 407.977 70.834 407.977V409.977C71.9485 409.977 72.9314 409.597 73.7086 408.82L72.2944 407.405ZM70.834 407.977C70.5825 407.977 70.3811 407.961 70.2235 407.935L69.8947 409.907C70.1863 409.956 70.5015 409.977 70.834 409.977V407.977ZM70.2235 407.935C70.0578 407.907 69.9059 407.867 69.7663 407.815L69.0716 409.69C69.3363 409.788 69.6112 409.86 69.8947 409.907L70.2235 407.935ZM80.8071 403.003C80.8071 402.867 80.8416 402.802 80.8942 402.744L79.4163 401.397C79.0047 401.848 78.8071 402.404 78.8071 403.003H80.8071ZM80.8942 402.744C80.9012 402.737 80.9101 402.728 80.9361 402.718C80.9669 402.706 81.0339 402.689 81.1548 402.689V400.689C80.5176 400.689 79.8849 400.883 79.4163 401.397L80.8942 402.744ZM81.1548 402.689C81.2757 402.689 81.3426 402.706 81.3735 402.718C81.3994 402.728 81.4083 402.737 81.4153 402.744L82.8933 401.397C82.4246 400.883 81.7919 400.689 81.1548 400.689V402.689ZM81.4153 402.744C81.4679 402.802 81.5024 402.867 81.5024 403.003H83.5024C83.5024 402.404 83.3049 401.848 82.8933 401.397L81.4153 402.744ZM81.5024 403.003C81.5024 403.138 81.4679 403.203 81.4153 403.261L82.8933 404.609C83.3049 404.157 83.5024 403.601 83.5024 403.003H81.5024ZM81.4153 403.261C81.4083 403.269 81.3994 403.277 81.3735 403.287C81.3426 403.299 81.2757 403.317 81.1548 403.317V405.317C81.7919 405.317 82.4246 405.122 82.8933 404.609L81.4153 403.261ZM81.1548 403.317C81.0339 403.317 80.9669 403.299 80.9361 403.287C80.9101 403.277 80.9012 403.269 80.8942 403.261L79.4163 404.609C79.8849 405.122 80.5176 405.317 81.1548 405.317V403.317ZM80.8942 403.261C80.8416 403.203 80.8071 403.138 80.8071 403.003H78.8071C78.8071 403.601 79.0047 404.157 79.4163 404.609L80.8942 403.261ZM85.9053 404.081H84.9053V405.081H85.9053V404.081ZM85.9053 387.01V386.01H84.9053V387.01H85.9053ZM87.8145 387.01H88.8145V386.01H87.8145V387.01ZM87.8145 393.962H86.8145V397.106L88.6307 394.54L87.8145 393.962ZM89.1396 403.811L88.6585 404.688L88.6668 404.692L89.1396 403.811ZM87.7695 402.576L88.6212 402.052L88.3283 401.576H87.7695V402.576ZM87.7134 402.576V401.576H86.7572L86.7144 402.531L87.7134 402.576ZM87.646 404.081V405.081H88.6022L88.645 404.125L87.646 404.081ZM87.8145 400.723H86.8145V400.943L86.9073 401.144L87.8145 400.723ZM88.9487 402.115L88.3254 402.897L88.3324 402.903L88.9487 402.115ZM93.2949 401.509L92.4535 400.969L92.4522 400.971L93.2949 401.509ZM93.2949 395.141L92.4545 395.683L92.4605 395.692L93.2949 395.141ZM88.9375 394.546L88.3267 393.754L88.3212 393.759L88.9375 394.546ZM87.8145 395.939L86.9001 395.534L86.8145 395.727V395.939H87.8145ZM86.9053 404.081V387.01H84.9053V404.081H86.9053ZM85.9053 388.01H87.8145V386.01H85.9053V388.01ZM86.8145 387.01V393.962H88.8145V387.01H86.8145ZM88.6307 394.54C88.8733 394.197 89.2039 393.911 89.6476 393.686L88.744 391.902C88.0347 392.261 87.4444 392.754 86.9982 393.384L88.6307 394.54ZM89.6476 393.686C90.0533 393.481 90.5833 393.356 91.2734 393.356V391.356C90.3464 391.356 89.4913 391.524 88.744 391.902L89.6476 393.686ZM91.2734 393.356C92.4377 393.356 93.2992 393.773 93.9602 394.606L95.5272 393.363C94.4661 392.025 93.0141 391.356 91.2734 391.356V393.356ZM93.9602 394.606C94.6533 395.48 95.0352 396.628 95.0352 398.129H97.0352C97.0352 396.275 96.556 394.66 95.5272 393.363L93.9602 394.606ZM95.0352 398.129V398.488H97.0352V398.129H95.0352ZM95.0352 398.488C95.0352 399.988 94.6534 401.147 93.956 402.038L95.5313 403.271C96.5559 401.961 97.0352 400.342 97.0352 398.488H95.0352ZM93.956 402.038C93.2931 402.886 92.4324 403.305 91.2734 403.305V405.305C93.0194 405.305 94.4722 404.624 95.5313 403.271L93.956 402.038ZM91.2734 403.305C90.6032 403.305 90.0592 403.17 89.6125 402.93L88.6668 404.692C89.4479 405.112 90.3265 405.305 91.2734 405.305V403.305ZM89.6207 402.935C89.1248 402.662 88.8114 402.361 88.6212 402.052L86.9179 403.1C87.3266 403.764 87.9267 404.286 88.6586 404.688L89.6207 402.935ZM87.7695 401.576H87.7134V403.576H87.7695V401.576ZM86.7144 402.531L86.647 404.036L88.645 404.125L88.7124 402.621L86.7144 402.531ZM87.646 403.081H85.9053V405.081H87.646V403.081ZM86.9073 401.144C87.2219 401.822 87.7069 402.404 88.3254 402.897L89.572 401.333C89.1574 401.003 88.8862 400.657 88.7216 400.302L86.9073 401.144ZM88.3324 402.903C89.0529 403.467 89.9203 403.722 90.8691 403.722V401.722C90.2906 401.722 89.8778 401.573 89.565 401.328L88.3324 402.903ZM90.8691 403.722C92.2521 403.722 93.4077 403.19 94.1376 402.047L92.4522 400.971C92.149 401.445 91.6874 401.722 90.8691 401.722V403.722ZM94.1364 402.049C94.7865 401.037 95.0811 399.827 95.0811 398.477H93.0811C93.0811 399.537 92.8515 400.349 92.4535 400.969L94.1364 402.049ZM95.0811 398.477V398.129H93.0811V398.477H95.0811ZM95.0811 398.129C95.0811 396.786 94.7864 395.585 94.1294 394.59L92.4605 395.692C92.8516 396.285 93.0811 397.076 93.0811 398.129H95.0811ZM94.1353 394.599C93.4008 393.46 92.2346 392.94 90.8467 392.94V394.94C91.6899 394.94 92.1558 395.22 92.4545 395.683L94.1353 394.599ZM90.8467 392.94C89.9074 392.94 89.0485 393.198 88.3267 393.754L89.5483 395.338C89.8747 395.086 90.2886 394.94 90.8467 394.94V392.94ZM88.3212 393.759C87.6942 394.249 87.2077 394.839 86.9001 395.534L88.7288 396.344C88.8854 395.99 89.1476 395.651 89.5538 395.334L88.3212 393.759ZM86.8145 395.939V400.723H88.8145V395.939H86.8145ZM99.2246 393.906L98.4675 393.253L98.465 393.256L99.2246 393.906ZM107.782 398.735V399.735H108.782V398.735H107.782ZM98.9775 398.735H97.9775V399.735H98.9775V398.735ZM98.9775 397.196V396.196H97.9775V397.196H98.9775ZM105.862 397.196V398.196H106.862V397.196H105.862ZM100.572 395.085L99.739 394.532L99.7379 394.534L100.572 395.085ZM105.166 402.329L104.647 401.473L104.642 401.477L105.166 402.329ZM106.457 401.172L107.09 400.398L106.274 399.73L105.651 400.581L106.457 401.172ZM107.692 402.183L108.533 402.724L109.016 401.974L108.326 401.409L107.692 402.183ZM106.03 403.699L105.507 402.847L105.503 402.849L106.03 403.699ZM99.2246 402.756L98.465 403.406L98.4676 403.409L99.2246 402.756ZM98.8208 398.51V398.151H96.8208V398.51H98.8208ZM98.8208 398.151C98.8208 396.601 99.234 395.433 99.9842 394.556L98.465 393.256C97.3435 394.566 96.8208 396.227 96.8208 398.151H98.8208ZM99.9817 394.559C100.72 393.704 101.681 393.266 102.964 393.266V391.266C101.148 391.266 99.6161 391.922 98.4676 393.253L99.9817 394.559ZM102.964 393.266C104.274 393.266 105.155 393.683 105.761 394.426L107.31 393.161C106.254 391.868 104.755 391.266 102.964 391.266V393.266ZM105.761 394.426C106.404 395.213 106.782 396.353 106.782 397.96H108.782C108.782 396.048 108.33 394.41 107.31 393.161L105.761 394.426ZM106.782 397.96V398.735H108.782V397.96H106.782ZM107.782 397.735H98.9775V399.735H107.782V397.735ZM99.9775 398.735V397.196H97.9775V398.735H99.9775ZM98.9775 398.196H105.862V396.196H98.9775V398.196ZM106.862 397.196V396.972H104.862V397.196H106.862ZM106.862 396.972C106.862 395.922 106.567 394.968 105.947 394.161L104.361 395.38C104.685 395.801 104.862 396.315 104.862 396.972H106.862ZM105.947 394.161C105.245 393.247 104.21 392.85 103.032 392.85V394.85C103.74 394.85 104.121 395.067 104.361 395.38L105.947 394.161ZM103.032 392.85C101.645 392.85 100.493 393.396 99.7391 394.532L101.405 395.638C101.745 395.127 102.232 394.85 103.032 394.85V392.85ZM99.7379 394.534C99.0662 395.551 98.7637 396.777 98.7637 398.151H100.764C100.764 397.069 101 396.252 101.407 395.636L99.7379 394.534ZM98.7637 398.151V398.51H100.764V398.151H98.7637ZM98.7637 398.51C98.7637 399.891 99.0918 401.125 99.8092 402.15L101.448 401.003C101.012 400.381 100.764 399.57 100.764 398.51H98.7637ZM99.8092 402.15C100.606 403.289 101.818 403.812 103.256 403.812V401.812C102.344 401.812 101.803 401.511 101.448 401.003L99.8092 402.15ZM103.256 403.812C104.15 403.812 104.976 403.619 105.689 403.181L104.642 401.477C104.307 401.683 103.86 401.812 103.256 401.812V403.812ZM105.684 403.184C106.315 402.802 106.848 402.33 107.263 401.763L105.651 400.581C105.408 400.912 105.08 401.212 104.647 401.473L105.684 403.184ZM105.824 401.946L107.059 402.957L108.326 401.409L107.09 400.398L105.824 401.946ZM106.852 401.641C106.605 402.025 106.18 402.434 105.507 402.847L106.553 404.551C107.393 404.036 108.076 403.434 108.533 402.724L106.852 401.641ZM105.503 402.849C104.947 403.194 104.219 403.395 103.268 403.395V405.395C104.502 405.395 105.616 405.132 106.557 404.549L105.503 402.849ZM103.268 403.395C101.739 403.395 100.695 402.929 99.9817 402.102L98.4676 403.409C99.6411 404.769 101.293 405.395 103.268 405.395V403.395ZM99.9842 402.105C99.234 401.229 98.8208 400.06 98.8208 398.51H96.8208C96.8208 400.434 97.3435 402.096 98.465 403.406L99.9842 402.105ZM108.625 394.074H107.625V395.074H108.625V394.074ZM108.625 392.581V391.581H107.625V392.581H108.625ZM115.127 392.581H116.127V391.581H115.127V392.581ZM115.127 394.074V395.074H116.127V394.074H115.127ZM110.68 389.436V388.436H109.68V389.436H110.68ZM112.589 389.436H113.589V388.436H112.589V389.436ZM112.903 402.396L112.172 403.078L112.178 403.085L112.184 403.091L112.903 402.396ZM114.509 402.677L114.698 403.659L114.716 403.655L114.734 403.651L114.509 402.677ZM115.093 402.497H116.093V401.041L114.734 401.564L115.093 402.497ZM115.093 404.092L115.51 405.001L116.093 404.734V404.092H115.093ZM114.375 404.305L114.178 403.325L114.174 403.326L114.375 404.305ZM111.421 403.643L110.703 404.339L110.708 404.345L111.421 403.643ZM109.625 394.074V392.581H107.625V394.074H109.625ZM108.625 393.581H115.127V391.581H108.625V393.581ZM114.127 392.581V394.074H116.127V392.581H114.127ZM115.127 393.074H108.625V395.074H115.127V393.074ZM111.68 401.183V393.445H109.68V401.183H111.68ZM111.68 393.445V393.154H109.68V393.445H111.68ZM111.68 393.154V389.436H109.68V393.154H111.68ZM110.68 390.436H112.589V388.436H110.68V390.436ZM111.589 389.436V401.183H113.589V389.436H111.589ZM111.589 401.183C111.589 401.82 111.689 402.561 112.172 403.078L113.634 401.714C113.677 401.759 113.66 401.77 113.635 401.674C113.611 401.579 113.589 401.421 113.589 401.183H111.589ZM112.184 403.091C112.662 403.586 113.312 403.733 113.914 403.733V401.733C113.603 401.733 113.579 401.656 113.622 401.701L112.184 403.091ZM113.914 403.733C114.178 403.733 114.44 403.709 114.698 403.659L114.32 401.695C114.189 401.72 114.054 401.733 113.914 401.733V403.733ZM114.734 403.651C114.976 403.595 115.216 403.522 115.452 403.431L114.734 401.564C114.581 401.623 114.432 401.669 114.284 401.703L114.734 403.651ZM114.093 402.497V404.092H116.093V402.497H114.093ZM114.677 403.183C114.595 403.22 114.438 403.273 114.178 403.325L114.571 405.286C114.91 405.218 115.233 405.128 115.51 405.001L114.677 403.183ZM114.174 403.326C113.957 403.37 113.707 403.395 113.42 403.395V405.395C113.822 405.395 114.208 405.36 114.575 405.285L114.174 403.326ZM113.42 403.395C112.794 403.395 112.404 403.216 112.133 402.941L110.708 404.345C111.426 405.073 112.369 405.395 113.42 405.395V403.395ZM112.138 402.946C111.907 402.708 111.68 402.202 111.68 401.183H109.68C109.68 402.426 109.946 403.559 110.703 404.339L112.138 402.946ZM116.272 404.081H115.272V405.081H116.272V404.081ZM116.272 402.666L115.481 402.054L115.272 402.324V402.666H116.272ZM122.842 394.164L123.634 394.776L124.879 393.164H122.842V394.164ZM116.362 394.164H115.362V395.164H116.362V394.164ZM116.362 392.581V391.581H115.362V392.581H116.362ZM125.156 392.581H126.156V391.581H125.156V392.581ZM125.156 393.962L125.947 394.573L126.156 394.303V393.962H125.156ZM118.563 402.497L117.772 401.886L116.528 403.497H118.563V402.497ZM125.459 402.497H126.459V401.497H125.459V402.497ZM125.459 404.081V405.081H126.459V404.081H125.459ZM117.272 404.081V402.666H115.272V404.081H117.272ZM117.064 403.277L123.634 394.776L122.051 393.553L115.481 402.054L117.064 403.277ZM122.842 393.164H116.362V395.164H122.842V393.164ZM117.362 394.164V392.581H115.362V394.164H117.362ZM116.362 393.581H125.156V391.581H116.362V393.581ZM124.156 392.581V393.962H126.156V392.581H124.156ZM124.364 393.351L117.772 401.886L119.355 403.109L125.947 394.573L124.364 393.351ZM118.563 403.497H125.459V401.497H118.563V403.497ZM124.459 402.497V404.081H126.459V402.497H124.459ZM125.459 403.081H116.272V405.081H125.459V403.081Z" fill="#9F0F0F"/>
</g>
</g>
<defs>
<filter id="filter0_d_0_1" x="0.511111" y="0" width="429.978" height="426.978" filterUnits="userSpaceOnUse" color-interpolation-filters="sRGB">
<feFlood flood-opacity="0" result="BackgroundImageFix"/>
<feColorMatrix in="SourceAlpha" type="matrix" values="0 0 0 0 0 0 0 0 0 0 0 0 0 0 0 0 0 0 127 0" result="hardAlpha"/>
<feOffset dy="6.48889"/>
<feGaussianBlur stdDeviation="3.24444"/>
<feComposite in2="hardAlpha" operator="out"/>
<feColorMatrix type="matrix" values="0 0 0 0 0 0 0 0 0 0 0 0 0 0 0 0 0 0 0.25 0"/>
<feBlend mode="normal" in2="BackgroundImageFix" result="effect1_dropShadow_0_1"/>
<feBlend mode="normal" in="SourceGraphic" in2="effect1_dropShadow_0_1" result="shape"/>
</filter>
<filter id="filter1_d_0_1" x="4.9235" y="387.01" width="127.029" height="32.3557" filterUnits="userSpaceOnUse" color-interpolation-filters="sRGB">
<feFlood flood-opacity="0" result="BackgroundImageFix"/>
<feColorMatrix in="SourceAlpha" type="matrix" values="0 0 0 0 0 0 0 0 0 0 0 0 0 0 0 0 0 0 127 0" result="hardAlpha"/>
<feOffset dx="1.29861" dy="5.19445"/>
<feGaussianBlur stdDeviation="2.59722"/>
<feComposite in2="hardAlpha" operator="out"/>
<feColorMatrix type="matrix" values="0 0 0 0 0 0 0 0 0 0 0 0 0 0 0 0 0 0 0.25 0"/>
<feBlend mode="normal" in2="BackgroundImageFix" result="effect1_dropShadow_0_1"/>
<feBlend mode="normal" in="SourceGraphic" in2="effect1_dropShadow_0_1" result="shape"/>
</filter>
<clipPath id="clip0_0_1">
<rect width="417" height="414" fill="white" transform="translate(7)"/>
</clipPath>
</defs>
</svg>
