<svg width="448" height="468" viewBox="0 0 448 468" fill="none" xmlns="http://www.w3.org/2000/svg">
<rect width="448" height="468" fill="#E5E5E5"/>
<g id="svgviewer-output (2) 1" clip-path="url(#clip0_0_1)">
<g id="Group" filter="url(#filter0_i_0_1)">
<path id="Vector" d="M341.492 -0.365997H341.668H341.764H342.161L342.251 0.0205015L341.764 0.134003C342.251 0.0205015 342.251 0.0208365 342.251 0.0213737L342.252 0.0234595L342.253 0.0312624L342.26 0.0613282C342.266 0.0877737 342.275 0.12699 342.287 0.178777C342.31 0.282351 342.344 0.436212 342.387 0.638765C342.474 1.04387 342.599 1.64376 342.75 2.42567C343.054 3.98948 343.466 6.28153 343.902 9.19977C344.774 15.036 345.743 23.3783 346.129 33.4101C346.903 53.47 345.35 80.3046 336.035 107.371C329.548 126.623 321.179 145.189 311.051 162.799C331.726 176.59 352.347 196.351 362.386 209.492C365.014 212.887 367.442 217.604 369.748 222.961C372.056 228.323 374.256 234.357 376.419 240.402C376.696 241.175 376.972 241.948 377.248 242.719C381.294 254.05 385.236 265.087 389.58 271.659L389.58 271.66C392.39 275.923 396.833 280.622 402.068 285.588C405.889 289.214 410.113 292.964 414.41 296.779C415.995 298.187 417.591 299.603 419.18 301.026C425.065 306.295 430.851 311.635 435.649 316.861C440.441 322.081 444.281 327.221 446.24 332.091L446.24 332.092C447.891 336.213 448.496 342.644 448.5 349.904C448.505 357.185 447.904 365.369 447.103 373.039C446.302 380.711 445.299 387.878 444.497 393.126C444.095 395.751 443.744 397.896 443.493 399.386C443.368 400.131 443.267 400.711 443.198 401.106C443.163 401.304 443.137 401.455 443.119 401.556L443.098 401.672L443.093 401.701L443.091 401.708L443.091 401.71C443.091 401.711 443.091 401.711 442.599 401.622L443.091 401.711L443.054 401.914L442.886 402.032L440.727 403.542L440.38 403.784L440.084 403.483L408.406 371.299L397.806 381.602L427.706 412.055L428.081 412.437L427.673 412.785L416.15 422.615L415.805 422.91L415.478 422.594L403.296 410.816C403.204 410.836 403.089 410.861 402.953 410.891C402.725 410.94 402.438 411.001 402.097 411.072C401.853 411.123 401.58 411.18 401.283 411.24C399.865 411.529 397.882 411.914 395.624 412.299C391.119 413.068 385.489 413.842 381.059 413.843C379.194 413.913 377.329 413.686 375.536 413.171L375.518 413.166L375.501 413.159C372.893 412.2 370.263 410.141 367.662 407.562C365.056 404.977 362.438 401.828 359.863 398.644C359.358 398.019 358.854 397.393 358.353 396.77C356.292 394.207 354.263 391.685 352.281 389.456C349.812 386.68 347.451 384.403 345.234 383.085L345.232 383.083C337.22 378.265 324.469 375.636 311.434 373.291C309.873 373.01 308.308 372.734 306.747 372.458C295.335 370.44 284.149 368.462 276.392 365.209M341.492 -0.365997L276.585 364.748M341.492 -0.365997L341.355 -0.25602M341.492 -0.365997L341.355 -0.25602M276.392 365.209L276.585 364.748M276.392 365.209C276.392 365.209 276.392 365.209 276.392 365.209L276.585 364.748M276.392 365.209C274.714 364.507 272.688 363.109 270.545 361.362C268.393 359.608 266.092 357.475 263.858 355.273L263.836 355.251L263.817 355.227L220.189 300.004M276.585 364.748C273.367 363.401 268.664 359.309 264.209 354.917L220.275 299.306M220.189 300.004L220.581 299.702L220.275 299.306M220.189 300.004L208.481 309.059M220.189 300.004L219.883 299.616L220.275 299.306M220.275 299.306L208.172 308.667L208.481 309.059M208.481 309.059L208.086 309.365M208.481 309.059L208.086 309.365M208.086 309.365L243.377 354.047L208.086 309.365ZM161.16 177.655L161.577 177.379L161.806 177.725L161.16 177.655ZM161.16 177.655L161.106 178.152L161.519 178.197L161.16 177.655ZM137.399 201.272L138.025 201.173L137.741 200.907L137.399 201.272ZM137.399 201.272L137.862 201.705L137.477 201.766L137.399 201.272ZM123.015 214.557L123.538 214.581L123.498 214.429L123.015 214.557ZM123.015 214.557L123.149 215.064L122.992 215.057L123.015 214.557ZM99.639 226.535L100.145 226.548L100.135 226.47L99.639 226.535ZM99.639 226.535L99.7043 227.037L99.6265 227.035L99.639 226.535ZM78.916 242.512L79.4304 242.609L79.4128 242.455L78.916 242.512ZM78.916 242.512L78.9754 243.032L78.8231 243.003L78.916 242.512ZM62.897 262.064L63.3941 262.162L63.3967 262.08L62.897 262.064ZM62.897 262.064L62.8805 262.57L62.8005 262.555L62.897 262.064ZM32.851 276.381L33.3644 276.462L33.3474 276.321L32.851 276.381ZM32.851 276.381L32.9135 276.897L32.7732 276.875L32.851 276.381ZM341.355 -0.25602L341.668 0.134003M341.355 -0.25602L341.668 0.134003M341.668 0.134003C341.355 -0.25602 341.355 -0.255804 341.354 -0.255457M341.668 0.134003L341.354 -0.255457M341.354 -0.255457L341.353 -0.254111M341.354 -0.255457L341.353 -0.254111M341.353 -0.254111L341.346 -0.249071M341.353 -0.254111L341.346 -0.249071M341.346 -0.249071L341.322 -0.229612M341.346 -0.249071L341.322 -0.229612M341.322 -0.229612C341.301 -0.21248 341.27 -0.187035 341.229 -0.153333M341.322 -0.229612L341.229 -0.153333M341.229 -0.153333C341.146 -0.0859303 341.024 0.0145006 340.864 0.147518M341.229 -0.153333L340.864 0.147518M340.864 0.147518C340.544 0.413551 340.074 0.809938 339.47 1.33314M340.864 0.147518L339.47 1.33314M339.47 1.33314C338.261 2.37954 336.515 3.93329 334.362 5.96613M339.47 1.33314L334.362 5.96613M334.362 5.96613C330.058 10.0316 324.126 16.0143 317.611 23.688M334.362 5.96613L317.611 23.688M317.611 23.688C304.584 39.0327 289.216 61.1541 279.88 88.2421L317.611 23.688ZM341.629 0.165465C341.576 0.208036 341.471 0.293704 341.317 0.421813C341.315 0.413283 341.313 0.405062 341.311 0.397151C341.3 0.346828 341.291 0.309064 341.285 0.284056L341.279 0.256137L341.277 0.249401L341.277 0.247846C341.277 0.247602 341.277 0.24752 341.629 0.165465ZM341.871 0.613593C341.842 0.482947 341.819 0.378486 341.802 0.300836C341.981 0.524044 341.981 0.5241 341.981 0.524246L341.979 0.525251L341.974 0.529605L341.952 0.547678C341.933 0.562613 341.906 0.584599 341.871 0.613593ZM195.521 180.969C195.521 180.969 195.521 180.969 195.785 181.394L195.839 180.897L195.668 180.878C195.663 180.882 195.657 180.885 195.653 180.888L195.554 180.949L195.529 180.964L195.523 180.968L195.521 180.969ZM35.3658 297.82L34.9575 297.938L35.0086 298.36L35.505 298.3L35.3658 297.82ZM61.7967 280.436L61.7803 280.94L62.278 281.018L62.2944 280.514L61.7967 280.436ZM80.9956 265.112L81.0552 265.634L81.57 265.735L81.5104 265.214L80.9956 265.112ZM101.708 246.312L101.776 246.833L102.293 246.931L102.225 246.409L101.708 246.312ZM125.703 226.686L125.836 227.189L126.357 227.202L126.224 226.699L125.703 226.686ZM151.716 215.355L152.278 215.881L153.047 215.916L152.485 215.39L151.716 215.355ZM172.235 195.27L172.539 195.729L173.082 195.643L172.778 195.185L172.235 195.27ZM265.331 147.678C265.314 147.794 265.298 147.91 265.282 148.025L265.777 148.095L265.675 147.605C265.561 147.629 265.446 147.654 265.331 147.678ZM361.004 54.4003L360.855 54.5397L360.845 54.7438C359.976 74.321 356.351 93.6778 350.077 112.243C344.705 127.978 338.216 143.309 330.662 158.12L330.471 158.493L330.805 158.745C334.042 161.2 337.185 163.738 340.261 166.305L340.634 166.616L340.956 166.252C352.926 152.708 363.833 138.259 373.577 123.035C389.108 98.9804 397.535 73.6083 402.079 54.2567C404.352 44.5793 405.654 36.4034 406.389 30.6449C406.757 27.7656 406.982 25.4903 407.116 23.9336C407.182 23.1552 407.226 22.5564 407.254 22.1515C407.267 21.9491 407.277 21.7951 407.283 21.6914L407.289 21.5738L407.291 21.5437L407.291 21.5358L407.291 21.5338C407.291 21.5332 407.291 21.5329 406.792 21.508C406.564 21.0632 406.563 21.0633 406.563 21.0634L406.562 21.0639L406.559 21.0656L406.546 21.072L406.498 21.0973C406.455 21.1195 406.392 21.1527 406.308 21.1968C406.141 21.285 405.894 21.4168 405.572 21.5921C404.926 21.9428 403.98 22.4678 402.771 23.1665C400.352 24.5639 396.883 26.6563 392.672 29.4395C384.253 35.0057 372.868 43.337 361.004 54.4003ZM329.389 234.966L329.39 234.966C331.788 236.548 333.662 238.806 334.775 241.455C335.881 244.092 336.17 247.001 335.607 249.804C335.039 252.614 333.646 255.191 331.606 257.205C329.552 259.232 326.947 260.609 324.116 261.163L324.115 261.163C321.278 261.722 318.339 261.435 315.662 260.34L315.662 260.34C312.997 259.251 310.713 257.398 309.099 255.014C307.495 252.643 306.636 249.847 306.635 246.985C306.635 243.152 308.175 239.476 310.918 236.765C313.674 234.047 317.39 232.525 321.261 232.528C324.155 232.528 326.983 233.377 329.389 234.966ZM427.091 332.775L427.117 332.778H427.143C427.574 332.778 428.078 333.058 428.617 333.785C429.149 334.501 429.651 335.571 430.081 336.939C430.94 339.669 431.483 343.478 431.483 347.724C431.483 351.97 430.934 355.777 430.057 358.506C429.617 359.873 429.104 360.942 428.558 361.658C428.006 362.381 427.481 362.67 427.019 362.67C426.56 362.67 426.045 362.383 425.506 361.659C424.972 360.942 424.475 359.872 424.052 358.503C423.209 355.772 422.693 351.966 422.693 347.738C422.693 343.512 423.232 339.696 424.088 336.954C424.517 335.579 425.017 334.502 425.548 333.78C426.077 333.06 426.572 332.775 426.995 332.765L427.091 332.775Z" fill="#108410" stroke="#991313"/>
<g id="Vector_2">
<mask id="path-2-outside-1_0_1" maskUnits="userSpaceOnUse" x="4" y="441" width="132" height="24" fill="black">
<rect fill="white" x="4" y="441" width="132" height="24"/>
<path d="M7.815 459.312L7.447 445.671C7.257 445.684 7.074 445.705 6.897 445.732C6.72 445.759 6.557 445.786 6.408 445.813L6 444.019C6.394 443.938 6.877 443.849 7.447 443.754C8.71844 443.548 9.99741 443.392 11.281 443.285C11.8913 443.233 12.5035 443.206 13.116 443.203C14.666 443.203 15.991 443.53 17.092 444.182C18.207 444.821 19.063 445.759 19.661 446.996C20.259 448.219 20.558 449.715 20.558 451.482C20.558 452.637 20.375 453.691 20.008 454.642C19.6731 455.562 19.1604 456.408 18.499 457.13C17.8502 457.82 17.0658 458.369 16.195 458.741C15.311 459.121 14.346 459.312 13.299 459.312H7.815V459.312ZM10.322 457.313C11.016 457.313 11.709 457.3 12.402 457.273C13.0194 457.242 13.6332 457.16 14.237 457.028C14.822 456.892 15.379 456.593 15.909 456.131C16.44 455.655 16.868 455.023 17.194 454.234C17.534 453.446 17.704 452.522 17.704 451.461C17.704 450.075 17.486 448.933 17.051 448.036C16.63 447.139 16.059 446.473 15.338 446.038C14.618 445.589 13.802 445.365 12.892 445.365C12.035 445.365 11.179 445.385 10.322 445.426V457.313V457.313ZM28.348 459.536C27.165 459.536 26.139 459.298 25.269 458.822C24.4198 458.341 23.7262 457.626 23.27 456.763C22.795 455.879 22.557 454.846 22.557 453.664C22.557 452.467 22.795 451.427 23.27 450.544C23.7261 449.681 24.4197 448.966 25.269 448.484C26.139 447.995 27.165 447.75 28.348 447.75C29.544 447.75 30.57 447.995 31.426 448.484C32.281 448.958 32.9765 449.675 33.425 450.544C33.887 451.427 34.118 452.467 34.118 453.664C34.118 454.846 33.887 455.879 33.425 456.763C32.9765 457.632 32.281 458.348 31.426 458.822C30.57 459.298 29.544 459.536 28.348 459.536ZM28.674 457.66C29.53 457.592 30.196 457.232 30.672 456.579C31.148 455.913 31.386 455.064 31.386 454.031V453.725C31.386 453.616 31.379 453.507 31.365 453.398C31.27 452.229 30.944 451.312 30.387 450.646C29.843 449.98 29.15 449.647 28.307 449.647C28.2586 449.646 28.2104 449.653 28.164 449.667H28.021C27.192 449.721 26.526 450.082 26.023 450.748C25.534 451.414 25.289 452.27 25.289 453.317V453.623C25.289 453.718 25.296 453.82 25.309 453.929C25.405 455.084 25.738 456.002 26.309 456.681C26.88 457.347 27.58 457.68 28.409 457.68H28.531C28.5777 457.668 28.6257 457.661 28.674 457.66V457.66ZM44.036 459.577V451.971C44.036 451.292 43.825 450.775 43.404 450.422C42.996 450.055 42.5 449.871 41.915 449.871C41.331 449.871 40.794 450.027 40.304 450.34C39.829 450.653 39.496 451.108 39.305 451.706V459.312L36.818 459.577L36.41 447.648L39.305 447.995V449.32C39.5689 448.812 39.9912 448.404 40.508 448.158C41.052 447.886 41.793 447.75 42.731 447.75C43.56 447.75 44.287 447.927 44.913 448.281C45.5305 448.613 46.0399 449.115 46.381 449.728C46.734 450.326 46.89 451.006 46.85 451.767L46.442 459.312L44.036 459.577V459.577ZM57.215 459.577L53.341 454.194L52.566 454.928V459.312L50.201 459.597L49.793 443L52.566 443.407V452.685L56.501 447.648L59.539 448.281L54.544 453.052L60.029 459.026L57.215 459.577V459.577ZM71.349 457.313C70.955 457.843 70.534 458.272 70.085 458.598C69.6333 458.932 69.1207 459.175 68.576 459.312C68.005 459.461 67.305 459.536 66.476 459.536C65.293 459.536 64.281 459.278 63.438 458.761C62.6089 458.246 61.9385 457.512 61.501 456.64C61.052 455.743 60.828 454.744 60.828 453.643C60.828 452.529 61.059 451.529 61.521 450.646C61.9598 449.775 62.6299 449.041 63.458 448.525C64.301 448.009 65.28 447.75 66.394 447.75C67.482 447.75 68.413 448.002 69.188 448.505C69.976 448.994 70.581 449.701 71.002 450.625C71.424 451.536 71.635 452.624 71.635 453.888V454.234H64.253L63.805 452.644L68.821 452.236C68.78 451.516 68.576 450.931 68.209 450.483C67.856 450.021 67.285 449.789 66.496 449.789C65.585 449.789 64.831 450.129 64.233 450.809C63.648 451.475 63.356 452.427 63.356 453.664C63.356 454.547 63.519 455.281 63.846 455.866C64.185 456.437 64.607 456.865 65.11 457.15C65.626 457.422 66.143 457.558 66.659 457.558C67.529 457.558 68.304 457.415 68.984 457.13C69.677 456.831 70.221 456.43 70.615 455.927L71.349 457.313V457.313ZM73.7 461.636C74.489 461.582 75.127 461.425 75.617 461.167C76.0984 460.927 76.5171 460.578 76.84 460.148C77.153 459.726 77.411 459.25 77.615 458.72L72.742 448.219L75.821 447.648L78.696 455.927L81.897 447.648L84.12 448.219L79.878 459.883C79.416 461.133 78.723 462.037 77.799 462.594C76.874 463.165 75.685 463.451 74.23 463.451L73.7 461.636V461.636ZM88.771 457.782C88.771 458.285 88.594 458.713 88.241 459.067C87.888 459.407 87.459 459.577 86.956 459.577C86.453 459.577 86.025 459.407 85.672 459.067C85.5005 458.9 85.365 458.7 85.2739 458.479C85.1827 458.258 85.1378 458.021 85.142 457.782C85.142 457.279 85.318 456.851 85.672 456.498C86.025 456.144 86.453 455.968 86.956 455.968C87.459 455.968 87.888 456.144 88.241 456.498C88.594 456.851 88.771 457.279 88.771 457.782ZM92.293 459.515L91.885 443L94.781 443.407V449.096C95.025 448.675 95.433 448.349 96.004 448.117C96.6044 447.867 97.2496 447.742 97.9 447.75C99.395 447.75 100.592 448.253 101.489 449.259C102.386 450.252 102.835 451.713 102.835 453.643C102.835 455.587 102.379 457.055 101.468 458.047C100.558 459.04 99.375 459.536 97.921 459.536C97.2072 459.543 96.4994 459.404 95.841 459.128C95.216 458.843 94.767 458.469 94.495 458.007L94.291 459.047L92.293 459.515V459.515ZM94.719 456.049C94.937 456.484 95.256 456.851 95.678 457.15C96.099 457.449 96.609 457.599 97.207 457.599C97.724 457.599 98.206 457.476 98.655 457.232C99.117 456.974 99.491 456.559 99.776 455.988C100.062 455.403 100.204 454.622 100.204 453.643C100.204 452.678 100.068 451.917 99.796 451.359C99.525 450.789 99.158 450.381 98.695 450.136C98.2317 449.887 97.7127 449.761 97.187 449.769C96.738 449.769 96.323 449.885 95.943 450.116C95.5737 450.335 95.2653 450.644 95.046 451.013C94.828 451.393 94.719 451.828 94.719 452.318V456.049V456.049ZM115.036 457.313C114.642 457.843 114.221 458.272 113.772 458.598C113.32 458.932 112.808 459.175 112.263 459.312C111.692 459.461 110.992 459.536 110.163 459.536C108.98 459.536 107.968 459.278 107.125 458.761C106.296 458.246 105.625 457.512 105.188 456.64C104.739 455.743 104.515 454.744 104.515 453.643C104.515 452.529 104.746 451.529 105.208 450.646C105.647 449.775 106.317 449.041 107.145 448.525C107.988 448.009 108.967 447.75 110.082 447.75C111.169 447.75 112.1 448.002 112.875 448.505C113.663 448.994 114.268 449.701 114.69 450.625C115.111 451.536 115.322 452.624 115.322 453.888V454.234H107.941L107.492 452.644L112.508 452.236C112.467 451.516 112.263 450.931 111.896 450.483C111.543 450.021 110.972 449.789 110.183 449.789C109.273 449.789 108.518 450.129 107.92 450.809C107.336 451.475 107.043 452.427 107.043 453.664C107.043 454.547 107.207 455.281 107.533 455.866C107.873 456.437 108.294 456.865 108.797 457.15C109.313 457.422 109.83 457.558 110.347 457.558C111.217 457.558 111.991 457.415 112.671 457.13C113.364 456.831 113.908 456.43 114.302 455.927L115.036 457.313V457.313ZM122.872 459.536C121.295 459.536 120.154 459.223 119.447 458.598C118.74 457.973 118.386 457.069 118.386 455.886V449.891H116.837L116.429 448.321L118.386 448.117V444.447L121.261 444.855L121.159 447.832L123.198 447.628V449.891H121.078L120.874 455.519V455.723C120.874 456.389 121.044 456.919 121.384 457.313C121.737 457.694 122.369 457.884 123.28 457.884L122.872 459.536V459.536ZM124.842 459.312V457.273L130.776 450.258L125.699 450.279L125.291 448.403L133.916 447.669L134.324 450.238L127.493 457.334L134.589 456.661V459.312H124.842V459.312Z"/>
</mask>
<path d="M7.815 459.312L7.447 445.671C7.257 445.684 7.074 445.705 6.897 445.732C6.72 445.759 6.557 445.786 6.408 445.813L6 444.019C6.394 443.938 6.877 443.849 7.447 443.754C8.71844 443.548 9.99741 443.392 11.281 443.285C11.8913 443.233 12.5035 443.206 13.116 443.203C14.666 443.203 15.991 443.53 17.092 444.182C18.207 444.821 19.063 445.759 19.661 446.996C20.259 448.219 20.558 449.715 20.558 451.482C20.558 452.637 20.375 453.691 20.008 454.642C19.6731 455.562 19.1604 456.408 18.499 457.13C17.8502 457.82 17.0658 458.369 16.195 458.741C15.311 459.121 14.346 459.312 13.299 459.312H7.815V459.312ZM10.322 457.313C11.016 457.313 11.709 457.3 12.402 457.273C13.0194 457.242 13.6332 457.16 14.237 457.028C14.822 456.892 15.379 456.593 15.909 456.131C16.44 455.655 16.868 455.023 17.194 454.234C17.534 453.446 17.704 452.522 17.704 451.461C17.704 450.075 17.486 448.933 17.051 448.036C16.63 447.139 16.059 446.473 15.338 446.038C14.618 445.589 13.802 445.365 12.892 445.365C12.035 445.365 11.179 445.385 10.322 445.426V457.313V457.313ZM28.348 459.536C27.165 459.536 26.139 459.298 25.269 458.822C24.4198 458.341 23.7262 457.626 23.27 456.763C22.795 455.879 22.557 454.846 22.557 453.664C22.557 452.467 22.795 451.427 23.27 450.544C23.7261 449.681 24.4197 448.966 25.269 448.484C26.139 447.995 27.165 447.75 28.348 447.75C29.544 447.75 30.57 447.995 31.426 448.484C32.281 448.958 32.9765 449.675 33.425 450.544C33.887 451.427 34.118 452.467 34.118 453.664C34.118 454.846 33.887 455.879 33.425 456.763C32.9765 457.632 32.281 458.348 31.426 458.822C30.57 459.298 29.544 459.536 28.348 459.536ZM28.674 457.66C29.53 457.592 30.196 457.232 30.672 456.579C31.148 455.913 31.386 455.064 31.386 454.031V453.725C31.386 453.616 31.379 453.507 31.365 453.398C31.27 452.229 30.944 451.312 30.387 450.646C29.843 449.98 29.15 449.647 28.307 449.647C28.2586 449.646 28.2104 449.653 28.164 449.667H28.021C27.192 449.721 26.526 450.082 26.023 450.748C25.534 451.414 25.289 452.27 25.289 453.317V453.623C25.289 453.718 25.296 453.82 25.309 453.929C25.405 455.084 25.738 456.002 26.309 456.681C26.88 457.347 27.58 457.68 28.409 457.68H28.531C28.5777 457.668 28.6257 457.661 28.674 457.66V457.66ZM44.036 459.577V451.971C44.036 451.292 43.825 450.775 43.404 450.422C42.996 450.055 42.5 449.871 41.915 449.871C41.331 449.871 40.794 450.027 40.304 450.34C39.829 450.653 39.496 451.108 39.305 451.706V459.312L36.818 459.577L36.41 447.648L39.305 447.995V449.32C39.5689 448.812 39.9912 448.404 40.508 448.158C41.052 447.886 41.793 447.75 42.731 447.75C43.56 447.75 44.287 447.927 44.913 448.281C45.5305 448.613 46.0399 449.115 46.381 449.728C46.734 450.326 46.89 451.006 46.85 451.767L46.442 459.312L44.036 459.577V459.577ZM57.215 459.577L53.341 454.194L52.566 454.928V459.312L50.201 459.597L49.793 443L52.566 443.407V452.685L56.501 447.648L59.539 448.281L54.544 453.052L60.029 459.026L57.215 459.577V459.577ZM71.349 457.313C70.955 457.843 70.534 458.272 70.085 458.598C69.6333 458.932 69.1207 459.175 68.576 459.312C68.005 459.461 67.305 459.536 66.476 459.536C65.293 459.536 64.281 459.278 63.438 458.761C62.6089 458.246 61.9385 457.512 61.501 456.64C61.052 455.743 60.828 454.744 60.828 453.643C60.828 452.529 61.059 451.529 61.521 450.646C61.9598 449.775 62.6299 449.041 63.458 448.525C64.301 448.009 65.28 447.75 66.394 447.75C67.482 447.75 68.413 448.002 69.188 448.505C69.976 448.994 70.581 449.701 71.002 450.625C71.424 451.536 71.635 452.624 71.635 453.888V454.234H64.253L63.805 452.644L68.821 452.236C68.78 451.516 68.576 450.931 68.209 450.483C67.856 450.021 67.285 449.789 66.496 449.789C65.585 449.789 64.831 450.129 64.233 450.809C63.648 451.475 63.356 452.427 63.356 453.664C63.356 454.547 63.519 455.281 63.846 455.866C64.185 456.437 64.607 456.865 65.11 457.15C65.626 457.422 66.143 457.558 66.659 457.558C67.529 457.558 68.304 457.415 68.984 457.13C69.677 456.831 70.221 456.43 70.615 455.927L71.349 457.313V457.313ZM73.7 461.636C74.489 461.582 75.127 461.425 75.617 461.167C76.0984 460.927 76.5171 460.578 76.84 460.148C77.153 459.726 77.411 459.25 77.615 458.72L72.742 448.219L75.821 447.648L78.696 455.927L81.897 447.648L84.12 448.219L79.878 459.883C79.416 461.133 78.723 462.037 77.799 462.594C76.874 463.165 75.685 463.451 74.23 463.451L73.7 461.636V461.636ZM88.771 457.782C88.771 458.285 88.594 458.713 88.241 459.067C87.888 459.407 87.459 459.577 86.956 459.577C86.453 459.577 86.025 459.407 85.672 459.067C85.5005 458.9 85.365 458.7 85.2739 458.479C85.1827 458.258 85.1378 458.021 85.142 457.782C85.142 457.279 85.318 456.851 85.672 456.498C86.025 456.144 86.453 455.968 86.956 455.968C87.459 455.968 87.888 456.144 88.241 456.498C88.594 456.851 88.771 457.279 88.771 457.782ZM92.293 459.515L91.885 443L94.781 443.407V449.096C95.025 448.675 95.433 448.349 96.004 448.117C96.6044 447.867 97.2496 447.742 97.9 447.75C99.395 447.75 100.592 448.253 101.489 449.259C102.386 450.252 102.835 451.713 102.835 453.643C102.835 455.587 102.379 457.055 101.468 458.047C100.558 459.04 99.375 459.536 97.921 459.536C97.2072 459.543 96.4994 459.404 95.841 459.128C95.216 458.843 94.767 458.469 94.495 458.007L94.291 459.047L92.293 459.515V459.515ZM94.719 456.049C94.937 456.484 95.256 456.851 95.678 457.15C96.099 457.449 96.609 457.599 97.207 457.599C97.724 457.599 98.206 457.476 98.655 457.232C99.117 456.974 99.491 456.559 99.776 455.988C100.062 455.403 100.204 454.622 100.204 453.643C100.204 452.678 100.068 451.917 99.796 451.359C99.525 450.789 99.158 450.381 98.695 450.136C98.2317 449.887 97.7127 449.761 97.187 449.769C96.738 449.769 96.323 449.885 95.943 450.116C95.5737 450.335 95.2653 450.644 95.046 451.013C94.828 451.393 94.719 451.828 94.719 452.318V456.049V456.049ZM115.036 457.313C114.642 457.843 114.221 458.272 113.772 458.598C113.32 458.932 112.808 459.175 112.263 459.312C111.692 459.461 110.992 459.536 110.163 459.536C108.98 459.536 107.968 459.278 107.125 458.761C106.296 458.246 105.625 457.512 105.188 456.64C104.739 455.743 104.515 454.744 104.515 453.643C104.515 452.529 104.746 451.529 105.208 450.646C105.647 449.775 106.317 449.041 107.145 448.525C107.988 448.009 108.967 447.75 110.082 447.75C111.169 447.75 112.1 448.002 112.875 448.505C113.663 448.994 114.268 449.701 114.69 450.625C115.111 451.536 115.322 452.624 115.322 453.888V454.234H107.941L107.492 452.644L112.508 452.236C112.467 451.516 112.263 450.931 111.896 450.483C111.543 450.021 110.972 449.789 110.183 449.789C109.273 449.789 108.518 450.129 107.92 450.809C107.336 451.475 107.043 452.427 107.043 453.664C107.043 454.547 107.207 455.281 107.533 455.866C107.873 456.437 108.294 456.865 108.797 457.15C109.313 457.422 109.83 457.558 110.347 457.558C111.217 457.558 111.991 457.415 112.671 457.13C113.364 456.831 113.908 456.43 114.302 455.927L115.036 457.313V457.313ZM122.872 459.536C121.295 459.536 120.154 459.223 119.447 458.598C118.74 457.973 118.386 457.069 118.386 455.886V449.891H116.837L116.429 448.321L118.386 448.117V444.447L121.261 444.855L121.159 447.832L123.198 447.628V449.891H121.078L120.874 455.519V455.723C120.874 456.389 121.044 456.919 121.384 457.313C121.737 457.694 122.369 457.884 123.28 457.884L122.872 459.536V459.536ZM124.842 459.312V457.273L130.776 450.258L125.699 450.279L125.291 448.403L133.916 447.669L134.324 450.238L127.493 457.334L134.589 456.661V459.312H124.842V459.312Z" fill="#DAA520"/>
<path d="M7.815 459.312L7.447 445.671C7.257 445.684 7.074 445.705 6.897 445.732C6.72 445.759 6.557 445.786 6.408 445.813L6 444.019C6.394 443.938 6.877 443.849 7.447 443.754C8.71844 443.548 9.99741 443.392 11.281 443.285C11.8913 443.233 12.5035 443.206 13.116 443.203C14.666 443.203 15.991 443.53 17.092 444.182C18.207 444.821 19.063 445.759 19.661 446.996C20.259 448.219 20.558 449.715 20.558 451.482C20.558 452.637 20.375 453.691 20.008 454.642C19.6731 455.562 19.1604 456.408 18.499 457.13C17.8502 457.82 17.0658 458.369 16.195 458.741C15.311 459.121 14.346 459.312 13.299 459.312H7.815V459.312ZM10.322 457.313C11.016 457.313 11.709 457.3 12.402 457.273C13.0194 457.242 13.6332 457.16 14.237 457.028C14.822 456.892 15.379 456.593 15.909 456.131C16.44 455.655 16.868 455.023 17.194 454.234C17.534 453.446 17.704 452.522 17.704 451.461C17.704 450.075 17.486 448.933 17.051 448.036C16.63 447.139 16.059 446.473 15.338 446.038C14.618 445.589 13.802 445.365 12.892 445.365C12.035 445.365 11.179 445.385 10.322 445.426V457.313V457.313ZM28.348 459.536C27.165 459.536 26.139 459.298 25.269 458.822C24.4198 458.341 23.7262 457.626 23.27 456.763C22.795 455.879 22.557 454.846 22.557 453.664C22.557 452.467 22.795 451.427 23.27 450.544C23.7261 449.681 24.4197 448.966 25.269 448.484C26.139 447.995 27.165 447.75 28.348 447.75C29.544 447.75 30.57 447.995 31.426 448.484C32.281 448.958 32.9765 449.675 33.425 450.544C33.887 451.427 34.118 452.467 34.118 453.664C34.118 454.846 33.887 455.879 33.425 456.763C32.9765 457.632 32.281 458.348 31.426 458.822C30.57 459.298 29.544 459.536 28.348 459.536ZM28.674 457.66C29.53 457.592 30.196 457.232 30.672 456.579C31.148 455.913 31.386 455.064 31.386 454.031V453.725C31.386 453.616 31.379 453.507 31.365 453.398C31.27 452.229 30.944 451.312 30.387 450.646C29.843 449.98 29.15 449.647 28.307 449.647C28.2586 449.646 28.2104 449.653 28.164 449.667H28.021C27.192 449.721 26.526 450.082 26.023 450.748C25.534 451.414 25.289 452.27 25.289 453.317V453.623C25.289 453.718 25.296 453.82 25.309 453.929C25.405 455.084 25.738 456.002 26.309 456.681C26.88 457.347 27.58 457.68 28.409 457.68H28.531C28.5777 457.668 28.6257 457.661 28.674 457.66V457.66ZM44.036 459.577V451.971C44.036 451.292 43.825 450.775 43.404 450.422C42.996 450.055 42.5 449.871 41.915 449.871C41.331 449.871 40.794 450.027 40.304 450.34C39.829 450.653 39.496 451.108 39.305 451.706V459.312L36.818 459.577L36.41 447.648L39.305 447.995V449.32C39.5689 448.812 39.9912 448.404 40.508 448.158C41.052 447.886 41.793 447.75 42.731 447.75C43.56 447.75 44.287 447.927 44.913 448.281C45.5305 448.613 46.0399 449.115 46.381 449.728C46.734 450.326 46.89 451.006 46.85 451.767L46.442 459.312L44.036 459.577V459.577ZM57.215 459.577L53.341 454.194L52.566 454.928V459.312L50.201 459.597L49.793 443L52.566 443.407V452.685L56.501 447.648L59.539 448.281L54.544 453.052L60.029 459.026L57.215 459.577V459.577ZM71.349 457.313C70.955 457.843 70.534 458.272 70.085 458.598C69.6333 458.932 69.1207 459.175 68.576 459.312C68.005 459.461 67.305 459.536 66.476 459.536C65.293 459.536 64.281 459.278 63.438 458.761C62.6089 458.246 61.9385 457.512 61.501 456.64C61.052 455.743 60.828 454.744 60.828 453.643C60.828 452.529 61.059 451.529 61.521 450.646C61.9598 449.775 62.6299 449.041 63.458 448.525C64.301 448.009 65.28 447.75 66.394 447.75C67.482 447.75 68.413 448.002 69.188 448.505C69.976 448.994 70.581 449.701 71.002 450.625C71.424 451.536 71.635 452.624 71.635 453.888V454.234H64.253L63.805 452.644L68.821 452.236C68.78 451.516 68.576 450.931 68.209 450.483C67.856 450.021 67.285 449.789 66.496 449.789C65.585 449.789 64.831 450.129 64.233 450.809C63.648 451.475 63.356 452.427 63.356 453.664C63.356 454.547 63.519 455.281 63.846 455.866C64.185 456.437 64.607 456.865 65.11 457.15C65.626 457.422 66.143 457.558 66.659 457.558C67.529 457.558 68.304 457.415 68.984 457.13C69.677 456.831 70.221 456.43 70.615 455.927L71.349 457.313V457.313ZM73.7 461.636C74.489 461.582 75.127 461.425 75.617 461.167C76.0984 460.927 76.5171 460.578 76.84 460.148C77.153 459.726 77.411 459.25 77.615 458.72L72.742 448.219L75.821 447.648L78.696 455.927L81.897 447.648L84.12 448.219L79.878 459.883C79.416 461.133 78.723 462.037 77.799 462.594C76.874 463.165 75.685 463.451 74.23 463.451L73.7 461.636V461.636ZM88.771 457.782C88.771 458.285 88.594 458.713 88.241 459.067C87.888 459.407 87.459 459.577 86.956 459.577C86.453 459.577 86.025 459.407 85.672 459.067C85.5005 458.9 85.365 458.7 85.2739 458.479C85.1827 458.258 85.1378 458.021 85.142 457.782C85.142 457.279 85.318 456.851 85.672 456.498C86.025 456.144 86.453 455.968 86.956 455.968C87.459 455.968 87.888 456.144 88.241 456.498C88.594 456.851 88.771 457.279 88.771 457.782ZM92.293 459.515L91.885 443L94.781 443.407V449.096C95.025 448.675 95.433 448.349 96.004 448.117C96.6044 447.867 97.2496 447.742 97.9 447.75C99.395 447.75 100.592 448.253 101.489 449.259C102.386 450.252 102.835 451.713 102.835 453.643C102.835 455.587 102.379 457.055 101.468 458.047C100.558 459.04 99.375 459.536 97.921 459.536C97.2072 459.543 96.4994 459.404 95.841 459.128C95.216 458.843 94.767 458.469 94.495 458.007L94.291 459.047L92.293 459.515V459.515ZM94.719 456.049C94.937 456.484 95.256 456.851 95.678 457.15C96.099 457.449 96.609 457.599 97.207 457.599C97.724 457.599 98.206 457.476 98.655 457.232C99.117 456.974 99.491 456.559 99.776 455.988C100.062 455.403 100.204 454.622 100.204 453.643C100.204 452.678 100.068 451.917 99.796 451.359C99.525 450.789 99.158 450.381 98.695 450.136C98.2317 449.887 97.7127 449.761 97.187 449.769C96.738 449.769 96.323 449.885 95.943 450.116C95.5737 450.335 95.2653 450.644 95.046 451.013C94.828 451.393 94.719 451.828 94.719 452.318V456.049V456.049ZM115.036 457.313C114.642 457.843 114.221 458.272 113.772 458.598C113.32 458.932 112.808 459.175 112.263 459.312C111.692 459.461 110.992 459.536 110.163 459.536C108.98 459.536 107.968 459.278 107.125 458.761C106.296 458.246 105.625 457.512 105.188 456.64C104.739 455.743 104.515 454.744 104.515 453.643C104.515 452.529 104.746 451.529 105.208 450.646C105.647 449.775 106.317 449.041 107.145 448.525C107.988 448.009 108.967 447.75 110.082 447.75C111.169 447.75 112.1 448.002 112.875 448.505C113.663 448.994 114.268 449.701 114.69 450.625C115.111 451.536 115.322 452.624 115.322 453.888V454.234H107.941L107.492 452.644L112.508 452.236C112.467 451.516 112.263 450.931 111.896 450.483C111.543 450.021 110.972 449.789 110.183 449.789C109.273 449.789 108.518 450.129 107.92 450.809C107.336 451.475 107.043 452.427 107.043 453.664C107.043 454.547 107.207 455.281 107.533 455.866C107.873 456.437 108.294 456.865 108.797 457.15C109.313 457.422 109.83 457.558 110.347 457.558C111.217 457.558 111.991 457.415 112.671 457.13C113.364 456.831 113.908 456.43 114.302 455.927L115.036 457.313V457.313ZM122.872 459.536C121.295 459.536 120.154 459.223 119.447 458.598C118.74 457.973 118.386 457.069 118.386 455.886V449.891H116.837L116.429 448.321L118.386 448.117V444.447L121.261 444.855L121.159 447.832L123.198 447.628V449.891H121.078L120.874 455.519V455.723C120.874 456.389 121.044 456.919 121.384 457.313C121.737 457.694 122.369 457.884 123.28 457.884L122.872 459.536V459.536ZM124.842 459.312V457.273L130.776 450.258L125.699 450.279L125.291 448.403L133.916 447.669L134.324 450.238L127.493 457.334L134.589 456.661V459.312H124.842V459.312Z" stroke="#282222" stroke-width="2" mask="url(#path-2-outside-1_0_1)"/>
</g>
</g>
</g>
<defs>
<filter id="filter0_i_0_1" x="-1" y="-0.865997" width="451.299" height="474.926" filterUnits="userSpaceOnUse" color-interpolation-filters="sRGB">
<feFlood flood-opacity="0" result="BackgroundImageFix"/>
<feBlend mode="normal" in="SourceGraphic" in2="BackgroundImageFix" result="shape"/>
<feColorMatrix in="SourceAlpha" type="matrix" values="0 0 0 0 0 0 0 0 0 0 0 0 0 0 0 0 0 0 127 0" result="hardAlpha"/>
<feOffset dx="1.299" dy="5.194"/>
<feGaussianBlur stdDeviation="2.597"/>
<feComposite in2="hardAlpha" operator="arithmetic" k2="-1" k3="1"/>
<feColorMatrix type="matrix" values="0 0 0 0 0 0 0 0 0 0 0 0 0 0 0 0 0 0 0.25 0"/>
<feBlend mode="normal" in2="shape" result="effect1_innerShadow_0_1"/>
</filter>
<clipPath id="clip0_0_1">
<rect width="448" height="468" fill="white"/>
</clipPath>
</defs>
</svg>
