<svg width="362" height="350" viewBox="0 0 362 350" fill="none" xmlns="http://www.w3.org/2000/svg">
<rect width="362" height="350" fill="#A9B42A" fill-opacity="0.45"/>
<g clip-path="url(#clip0_0_1)">
<rect width="362" height="350" fill="#A1E7E2"/>
<g style="mix-blend-mode:darken" filter="url(#filter0_di_0_1)">
<path d="M276.068 0C276.068 0 241.563 25.6338 226.52 66.0563C220.998 80.5476 217.053 95.5085 214.744 110.718C194.766 114.573 158.194 135.632 158.194 135.632L130.219 132.842L139.854 146.3L111.023 150.51L123.667 161.463L99.3958 160.477L102.094 169.923L80.5102 169.42L82.6514 184.721L63.7765 181.408L65.9177 198.79L50.822 196L50.3188 210.187L26.5512 206.717L28.6924 223.113L0 230.813V350H142.627L196.65 264.827L167.883 231.099L177.979 223.872L213.48 265.477C217.078 268.77 220.878 271.827 223.469 272.842C237.612 278.334 266.037 278.984 279.141 286.241C286.528 290.303 295.425 305.959 303.53 308.71C304.941 309.084 306.408 309.251 307.876 309.203C314.964 309.203 325.97 306.906 325.97 306.906L335.959 315.858L345.273 308.503L320.863 285.442L330.006 277.21L355.883 301.562L357.628 300.428C357.628 300.428 365.433 260.587 360.187 248.53C353.966 234.204 323.636 216.29 314.45 203.375C306.881 192.776 300.864 166.896 292.492 156.879C284.366 147.02 267.578 132.132 250.802 121.83C259.055 108.588 265.869 94.629 271.144 80.1549C286.132 39.7324 276.101 0.0295772 276.101 0.0295772L276.068 0ZM328.678 15.9915C328.678 15.9915 311.099 24.362 291.967 40.8761C291.257 55.5583 288.32 70.0769 283.242 84.0099C278.898 95.7994 273.646 107.288 267.525 118.389C270.148 120.232 272.696 122.135 275.18 124.058C284.845 113.931 293.646 103.133 301.506 91.7592C326.537 55.862 328.678 15.9915 328.678 15.9915ZM259.57 173.521C261.982 173.521 264.34 174.18 266.345 175.414C268.35 176.648 269.913 178.401 270.836 180.453C271.759 182.505 272.001 184.763 271.53 186.941C271.06 189.12 269.898 191.121 268.193 192.691C266.488 194.262 264.315 195.331 261.949 195.765C259.584 196.198 257.132 195.975 254.904 195.125C252.676 194.276 250.771 192.836 249.431 190.99C248.091 189.143 247.376 186.972 247.376 184.751C247.379 181.773 248.665 178.918 250.951 176.813C253.237 174.708 256.337 173.524 259.57 173.521V173.521ZM345.07 248.539C347.211 248.539 348.977 253.686 348.977 260.094C348.977 266.503 347.221 271.649 345.07 271.649C342.918 271.649 341.172 266.473 341.172 260.094C341.172 253.715 342.928 248.52 345.07 248.52V248.539Z" fill="url(#paint0_linear_0_1)" shape-rendering="crispEdges"/>
<path d="M276.102 -0.648128L276.407 -0.367969L276.439 -0.338392L276.549 -0.237452L276.585 -0.0929075L276.101 0.0295772C276.585 -0.0929075 276.585 -0.0926146 276.586 -0.0921706L276.586 -0.0905261L276.587 -0.084521L276.593 -0.0616957L276.615 0.0268259C276.634 0.104745 276.661 0.220278 276.697 0.372234C276.767 0.676144 276.868 1.12576 276.992 1.71156C277.238 2.88314 277.573 4.59958 277.927 6.78468C278.636 11.1546 279.424 17.4006 279.742 24.9126C280.378 39.9327 279.137 60.0342 271.613 80.3261C266.383 94.6778 259.644 108.524 251.492 121.667C268.166 131.984 284.781 146.738 292.877 156.56C295.012 159.115 296.979 162.657 298.844 166.669C300.711 170.686 302.49 175.206 304.238 179.728C304.46 180.303 304.682 180.877 304.903 181.451C308.176 189.938 311.355 198.181 314.857 203.084L314.857 203.085C317.118 206.263 320.699 209.773 324.927 213.489C328.015 216.202 331.428 219.009 334.901 221.865C336.18 222.917 337.468 223.976 338.75 225.038C343.505 228.981 348.183 232.98 352.063 236.895C355.937 240.803 359.052 244.662 360.645 248.33M276.102 -0.648128L251.228 122.092C267.862 132.384 284.434 147.103 292.492 156.879C296.948 162.211 300.737 172.036 304.448 181.66C307.709 190.117 310.91 198.417 314.45 203.375C318.425 208.964 326.361 215.49 334.589 222.256C345.373 231.124 356.658 240.404 360.187 248.53C365.433 260.587 357.628 300.428 357.628 300.428M276.102 -0.648128L275.77 -0.401367L276.068 0M276.102 -0.648128L276.068 0M360.645 248.33L360.195 248.526L360.645 248.33C360.645 248.33 360.645 248.33 360.645 248.33ZM360.645 248.33C362.001 251.447 362.494 256.289 362.5 261.725C362.506 267.182 362.02 273.314 361.371 279.057C360.722 284.801 359.909 290.167 359.259 294.096C358.933 296.061 358.648 297.667 358.445 298.783C358.343 299.34 358.262 299.775 358.205 300.071C358.177 300.219 358.156 300.332 358.141 300.408L358.124 300.495L358.12 300.517L358.119 300.522L358.119 300.524C358.119 300.524 358.118 300.524 357.628 300.428M357.628 300.428L358.118 300.524L358.078 300.732L357.9 300.847L356.155 301.981L355.826 302.195L355.54 301.926L329.999 277.889L321.6 285.451L345.616 308.139L346.037 308.537L345.583 308.895L336.268 316.25L335.938 316.511L335.625 316.23L325.823 307.446C325.785 307.454 325.742 307.462 325.695 307.472L325.581 307.495C325.264 307.558 324.805 307.648 324.232 307.756C323.086 307.972 321.484 308.26 319.659 308.548C316.02 309.123 311.468 309.702 307.884 309.703C306.371 309.751 304.858 309.58 303.401 309.193L303.385 309.189L303.369 309.183C301.244 308.462 299.107 306.912 297.001 304.978C294.889 303.04 292.77 300.679 290.69 298.296C290.281 297.827 289.873 297.358 289.467 296.89C287.802 294.973 286.167 293.09 284.568 291.425C282.576 289.35 280.678 287.656 278.9 286.679L278.899 286.678C272.437 283.1 262.148 281.133 251.612 279.373C250.367 279.165 249.118 278.96 247.872 278.755C238.638 277.238 229.573 275.749 223.288 273.308L223.287 273.308C221.926 272.774 220.284 271.722 218.551 270.413C216.81 269.097 214.948 267.499 213.143 265.846L213.12 265.825L213.1 265.802L177.897 224.546L168.617 231.188L197.031 264.502L197.27 264.783L197.073 265.095L143.049 350.268L142.902 350.5H142.627H0H-0.5V350V230.813V230.429L-0.129596 230.33L28.14 222.743L26.0554 206.782L25.9699 206.127L26.6235 206.222L49.8389 209.612L50.3223 195.982L50.3429 195.403L50.9129 195.508L65.3381 198.175L63.2802 181.47L63.1976 180.799L63.8629 180.916L82.061 184.11L80.015 169.489L79.9334 168.906L80.5218 168.92L101.426 169.407L98.915 160.615L98.7251 159.95L99.4161 159.978L122.259 160.906L110.695 150.888L109.87 150.173L110.95 150.015L138.97 145.924L129.812 133.133L129.169 132.235L130.268 132.345L158.084 135.119C158.153 135.08 158.246 135.027 158.362 134.96C158.636 134.805 159.039 134.576 159.56 134.284C160.6 133.7 162.109 132.861 163.982 131.842C167.726 129.806 172.928 127.05 178.756 124.173C190.26 118.493 204.262 112.312 214.302 110.296M357.628 300.428L355.883 301.562L330.006 277.21L321.236 285.107L214.302 110.296M276.068 0C275.77 -0.401367 275.77 -0.40119 275.77 -0.400914L275.768 -0.399875L275.763 -0.396039L275.743 -0.381346L275.667 -0.323992C275.6 -0.273368 275.501 -0.198019 275.372 -0.0982761C275.113 0.101207 274.733 0.398272 274.244 0.790273C273.266 1.57426 271.853 2.73806 270.113 4.26052C266.631 7.30524 261.835 11.7855 256.567 17.5318C246.034 29.0211 233.604 45.589 226.052 65.8805C220.56 80.2937 216.624 95.1707 214.302 110.296M276.068 0L214.302 110.296M130.606 133.383L139.527 145.843L130.606 133.383ZM130.606 133.383L130.169 133.34L130.219 132.842L130.625 132.551L130.881 132.908L158.194 135.632C158.194 135.632 194.766 114.573 214.744 110.718L130.606 133.383ZM328.678 15.9915L329.178 16.0184L329.223 15.1786L328.463 15.5401L328.678 15.9915ZM328.678 15.9915C329.178 16.0184 329.178 16.0187 329.178 16.0191L329.178 16.0208L329.177 16.0268L329.176 16.0497L329.171 16.1384C329.166 16.2165 329.158 16.3322 329.147 16.4842C329.125 16.7882 329.089 17.2374 329.035 17.8209C328.927 18.9881 328.745 20.6932 328.448 22.8504C327.854 27.1646 326.801 33.2887 324.964 40.5368C321.29 55.0301 314.476 74.0327 301.916 92.0451C294.042 103.44 285.224 114.258 275.542 124.403L275.23 124.729L274.874 124.453C272.395 122.534 269.853 120.636 267.237 118.798L266.871 118.54L267.087 118.147C273.196 107.069 278.437 95.6038 282.772 83.8386C287.833 69.9525 290.76 55.4835 291.468 40.8519L291.478 40.6377L291.64 40.4976C301.231 32.219 310.432 25.9822 317.236 21.8146C320.638 19.7307 323.442 18.1635 325.397 17.1167C326.374 16.5933 327.139 16.1999 327.661 15.937C327.921 15.8055 328.121 15.7067 328.256 15.6405C328.324 15.6075 328.375 15.5825 328.41 15.5658L328.449 15.5468L328.46 15.5419L328.462 15.5406L328.463 15.5403C328.463 15.5402 328.463 15.5401 328.678 15.9915ZM111.676 150.414L111.35 150.132L111.023 150.51L111.095 151.005L111.522 150.942L123.061 160.938L111.676 150.414ZM99.9219 160.499L99.8765 160.34L99.3958 160.477L99.3755 160.977L99.5404 160.984L101.95 169.419L99.9219 160.499ZM81.0167 169.432L81.0053 169.35L80.5101 169.42L80.4985 169.92L80.5804 169.921L82.5785 184.201L81.0167 169.432ZM64.2914 181.499L64.2727 181.347L63.7765 181.408L63.69 181.901L63.8404 181.927L65.8536 198.27L64.2914 181.499ZM51.3191 196.092L51.3217 196.018L50.822 196L50.7312 196.492L50.8041 196.505L50.3367 209.685L51.3191 196.092ZM27.0653 206.792L27.047 206.652L26.5512 206.717L26.479 207.212L26.6185 207.232L28.6924 223.113L27.0653 206.792ZM0.5 350H142.627L196.65 264.827L168.209 231.48L0.5 350ZM213.48 265.477C217.078 268.77 220.878 271.827 223.469 272.842C229.702 275.262 238.707 276.742 247.953 278.262C259.689 280.19 271.812 282.182 279.141 286.241C282.473 288.073 286.113 292.265 289.848 296.567C294.394 301.802 299.081 307.2 303.53 308.71C304.941 309.084 306.408 309.251 307.876 309.203C314.964 309.203 325.97 306.906 325.97 306.906L213.48 265.477ZM335.959 315.858L344.876 308.816L344.93 308.866L345.273 308.503L344.963 308.11L344.906 308.156L321.228 285.787L335.959 315.858ZM343.949 249.742C344.294 249.308 344.613 249.1 344.891 249.039H345.07C345.389 249.039 345.772 249.231 346.193 249.756C346.61 250.277 347.008 251.06 347.353 252.075C348.04 254.098 348.477 256.93 348.477 260.094C348.477 263.259 348.043 266.091 347.357 268.114C347.013 269.129 346.615 269.912 346.198 270.432C345.777 270.957 345.392 271.149 345.07 271.149C344.748 271.149 344.364 270.957 343.944 270.429C343.527 269.907 343.131 269.12 342.788 268.104C342.104 266.077 341.672 263.244 341.672 260.094C341.672 256.945 342.107 254.107 342.792 252.075C343.135 251.056 343.533 250.266 343.949 249.742ZM259.57 174.021C261.892 174.021 264.159 174.655 266.083 175.839C268.007 177.023 269.5 178.702 270.38 180.658C271.26 182.614 271.489 184.763 271.042 186.836C270.594 188.909 269.487 190.82 267.854 192.323C266.221 193.827 264.135 194.856 261.859 195.273C259.583 195.69 257.224 195.475 255.082 194.658C252.94 193.841 251.116 192.46 249.836 190.696C248.556 188.932 247.876 186.863 247.876 184.751C247.879 181.92 249.101 179.196 251.289 177.181C253.48 175.164 256.457 174.024 259.57 174.021Z" stroke="#E23A3A" shape-rendering="crispEdges"/>
</g>
</g>
<defs>
<filter id="filter0_di_0_1" x="-5" y="-1.29625" width="372" height="360.296" filterUnits="userSpaceOnUse" color-interpolation-filters="sRGB">
<feFlood flood-opacity="0" result="BackgroundImageFix"/>
<feColorMatrix in="SourceAlpha" type="matrix" values="0 0 0 0 0 0 0 0 0 0 0 0 0 0 0 0 0 0 127 0" result="hardAlpha"/>
<feOffset dy="4"/>
<feGaussianBlur stdDeviation="2"/>
<feComposite in2="hardAlpha" operator="out"/>
<feColorMatrix type="matrix" values="0 0 0 0 0 0 0 0 0 0 0 0 0 0 0 0 0 0 0.25 0"/>
<feBlend mode="normal" in2="BackgroundImageFix" result="effect1_dropShadow_0_1"/>
<feBlend mode="normal" in="SourceGraphic" in2="effect1_dropShadow_0_1" result="shape"/>
<feColorMatrix in="SourceAlpha" type="matrix" values="0 0 0 0 0 0 0 0 0 0 0 0 0 0 0 0 0 0 127 0" result="hardAlpha"/>
<feOffset dy="4"/>
<feGaussianBlur stdDeviation="2"/>
<feComposite in2="hardAlpha" operator="arithmetic" k2="-1" k3="1"/>
<feColorMatrix type="matrix" values="0 0 0 0 0 0 0 0 0 0 0 0 0 0 0 0 0 0 0.25 0"/>
<feBlend mode="normal" in2="shape" result="effect2_innerShadow_0_1"/>
</filter>
<linearGradient id="paint0_linear_0_1" x1="-31.7651" y1="2.40564" x2="101.713" y2="204.901" gradientUnits="userSpaceOnUse">
<stop offset="1" stop-color="#0AA52C" stop-opacity="0.88"/>
</linearGradient>
<clipPath id="clip0_0_1">
<rect width="362" height="350" fill="white"/>
</clipPath>
</defs>
</svg>
