<svg width="564" height="508" viewBox="0 0 564 508" fill="none" xmlns="http://www.w3.org/2000/svg">
<g clip-path="url(#clip0_0_3)">
<path d="M40 142H445V490H40V142Z" fill="url(#paint0_linear_0_3)"/>
<g filter="url(#filter0_i_0_3)">
<path d="M348.862 142C348.862 142 310.262 167.535 293.425 207.679C286.674 223.796 282.23 239.187 280.219 252.098C257.865 255.925 216.949 276.872 216.949 276.872L185.653 274.098L196.455 287.484L164.194 291.663L178.348 302.561L151.193 301.573L154.206 310.956L130.064 310.458L132.478 325.68L111.35 322.351L113.764 339.638L96.8643 336.879L96.2652 350.996L69.709 347.541L72.1232 363.84L40 371.497V490H199.57L260.012 405.296L227.822 371.789L239.115 364.602L278.842 405.975C282.866 409.247 287.113 412.291 290.019 413.294C305.837 418.761 337.633 419.405 352.333 426.622C360.603 430.662 370.555 446.26 379.622 448.96C381.196 449.338 382.836 449.503 384.477 449.451C392.417 449.451 404.73 447.173 404.73 447.173L415.898 456.073L426.323 448.754L398.971 425.831L409.2 417.641L438.153 441.859L440.111 440.727C440.111 440.727 448.838 401.108 442.972 389.12C436.007 374.87 402.081 357.056 391.799 344.219C383.331 333.679 376.6 307.983 367.238 297.978C358.145 288.229 339.367 273.373 320.59 263.127C328.629 251.973 336.604 237.687 343.311 221.688C360.147 181.522 348.863 142 348.863 142H348.862ZM407.688 157.882C407.688 157.882 388.017 166.203 366.611 182.62C365.817 197.221 362.53 211.66 356.847 225.515C351.992 237.239 346.116 248.665 339.268 259.702C342.201 261.539 345.053 263.434 347.834 265.345C358.643 255.27 368.489 244.531 377.287 233.221C405.292 197.527 407.688 157.88 407.688 157.88V157.882ZM330.407 314.513C342.565 314.513 348.65 326.543 340.055 333.578C331.46 340.613 316.762 335.631 316.762 325.68C316.762 319.512 322.872 314.511 330.407 314.511V314.513ZM426.063 389.107C428.468 389.107 430.427 394.23 430.427 400.597C430.427 406.965 428.468 412.088 426.063 412.088C423.658 412.088 421.7 406.943 421.7 400.597C421.7 394.252 423.658 389.107 426.063 389.107Z" fill="#247127"/>
</g>
<g filter="url(#filter1_i_0_3)">
<path d="M107.657 165.374C106.886 164.995 106.033 164.811 105.174 164.839C104.309 164.863 103.461 165.095 102.704 165.516L91.4063 172.033L83.7283 176.292L72.4303 182.809C71.6733 183.229 70.826 183.461 69.9603 183.485C69.101 183.512 68.2483 183.328 67.4763 182.95L58.3913 178.361C57.6598 177.99 57.0366 177.436 56.5823 176.753C56.1443 176.091 55.8985 175.321 55.8723 174.528L55.7703 164.97C55.7501 164.164 55.9655 163.37 56.3903 162.685C56.8344 161.97 57.4609 161.387 58.2053 160.995L67.0423 156.029C67.7993 155.608 68.6466 155.376 69.5123 155.353C70.3712 155.326 71.2236 155.51 71.9953 155.888L80.9333 160.346C81.6803 160.731 82.3033 161.284 82.7433 161.954C83.1833 162.624 83.4283 163.391 83.4523 164.18L83.5193 170.372L91.1963 165.979L91.1293 159.786C91.1343 158.987 90.9014 158.204 90.4603 157.538C90.0013 156.849 89.3611 156.301 88.6103 155.953L72.0513 147.538C71.2795 147.159 70.4266 146.975 69.5673 147.003C68.7017 147.027 67.8545 147.259 67.0973 147.679L50.4363 157.042C49.6919 157.434 49.0654 158.017 48.6213 158.732C48.1966 159.417 47.9812 160.211 48.0013 161.017L48.1933 178.922C48.1885 179.721 48.4217 180.504 48.8633 181.171C49.322 181.859 49.9618 182.408 50.7123 182.756L67.5643 191.163C68.3213 191.539 69.1783 191.723 70.0473 191.698C70.9129 191.674 71.7601 191.442 72.5173 191.022L83.8173 184.639L91.4943 180.246L102.793 173.863C103.55 173.442 104.398 173.21 105.263 173.187C106.122 173.16 106.975 173.344 107.746 173.722L116.685 178.18C117.417 178.551 118.04 179.105 118.494 179.788C118.934 180.458 119.179 181.225 119.204 182.014L119.306 191.572C119.327 192.378 119.111 193.172 118.686 193.858C118.242 194.572 117.616 195.156 116.871 195.548L108.035 200.648C107.278 201.068 106.431 201.3 105.565 201.324C104.706 201.35 103.854 201.167 103.082 200.789L94.1443 196.331C93.4124 195.96 92.7888 195.406 92.3343 194.723C91.896 194.061 91.6505 193.29 91.6253 192.497L91.5593 186.305L83.8813 190.698L83.9483 196.891C83.9437 197.69 84.1769 198.472 84.6183 199.139C85.0771 199.827 85.7169 200.376 86.4673 200.724L103.318 209.131C104.076 209.507 104.932 209.691 105.802 209.666C106.668 209.642 107.515 209.41 108.272 208.99L124.932 199.626C125.657 199.212 126.266 198.624 126.706 197.916C127.128 197.235 127.358 196.452 127.369 195.651L127.176 177.745C127.181 176.945 126.948 176.163 126.506 175.497C126.048 174.808 125.408 174.26 124.657 173.912L107.659 165.374H107.656H107.657Z" fill="#8A1295"/>
</g>
<path d="M107.657 165.374C106.886 164.995 106.033 164.811 105.174 164.839C104.309 164.863 103.461 165.095 102.704 165.516L91.4063 172.033L83.7283 176.292L72.4303 182.809C71.6733 183.229 70.826 183.461 69.9603 183.485C69.101 183.512 68.2483 183.328 67.4763 182.95L58.3913 178.361C57.6598 177.99 57.0366 177.436 56.5823 176.753C56.1443 176.091 55.8985 175.321 55.8723 174.528L55.7703 164.97C55.7501 164.164 55.9655 163.37 56.3903 162.685C56.8344 161.97 57.4609 161.387 58.2053 160.995L67.0423 156.029C67.7993 155.608 68.6466 155.376 69.5123 155.353C70.3712 155.326 71.2236 155.51 71.9953 155.888L80.9333 160.346C81.6803 160.731 82.3033 161.284 82.7433 161.954C83.1833 162.624 83.4283 163.391 83.4523 164.18L83.5193 170.372L91.1963 165.979L91.1293 159.786C91.1343 158.987 90.9014 158.204 90.4603 157.538C90.0013 156.849 89.3611 156.301 88.6103 155.953L72.0513 147.538C71.2795 147.159 70.4266 146.975 69.5673 147.003C68.7017 147.027 67.8545 147.259 67.0973 147.679L50.4363 157.042C49.6919 157.434 49.0654 158.017 48.6213 158.732C48.1966 159.417 47.9812 160.211 48.0013 161.017L48.1933 178.922C48.1885 179.721 48.4217 180.504 48.8633 181.171C49.322 181.859 49.9618 182.408 50.7123 182.756L67.5643 191.163C68.3213 191.539 69.1783 191.723 70.0473 191.698C70.9129 191.674 71.7601 191.442 72.5173 191.022L83.8173 184.639L91.4943 180.246L102.793 173.863C103.55 173.442 104.398 173.21 105.263 173.187C106.122 173.16 106.975 173.344 107.746 173.722L116.685 178.18C117.417 178.551 118.04 179.105 118.494 179.788C118.934 180.458 119.179 181.225 119.204 182.014L119.306 191.572C119.327 192.378 119.111 193.172 118.686 193.858C118.242 194.572 117.616 195.156 116.871 195.548L108.035 200.648C107.278 201.068 106.431 201.3 105.565 201.324C104.706 201.35 103.854 201.167 103.082 200.789L94.1443 196.331C93.4124 195.96 92.7888 195.406 92.3343 194.723C91.896 194.061 91.6505 193.29 91.6253 192.497L91.5593 186.305L83.8813 190.698L83.9483 196.891C83.9437 197.69 84.1769 198.472 84.6183 199.139C85.0771 199.827 85.7169 200.376 86.4673 200.724L103.318 209.131C104.076 209.507 104.932 209.691 105.802 209.666C106.668 209.642 107.515 209.41 108.272 208.99L124.932 199.626C125.657 199.212 126.266 198.624 126.706 197.916C127.128 197.235 127.358 196.452 127.369 195.651L127.176 177.745C127.181 176.945 126.948 176.163 126.506 175.497C126.048 174.808 125.408 174.26 124.657 173.912L107.659 165.374H107.656H107.657Z" stroke="#E5E5E5"/>
<g filter="url(#filter2_d_0_3)">
<path d="M41.494 482V468.5H47.506C48.322 468.5 49.024 468.8 49.612 469.4C50.2 469.988 50.494 470.69 50.494 471.506V478.994C50.494 479.81 50.2 480.518 49.612 481.118C49.024 481.706 48.322 482 47.506 482H41.494ZM44.5 480.506H45.994C46.414 480.506 46.768 480.356 47.056 480.056C47.356 479.756 47.506 479.402 47.506 478.994V471.506C47.506 471.086 47.356 470.732 47.056 470.444C46.768 470.144 46.414 469.994 45.994 469.994H44.5V480.506ZM56.5059 471.506H59.5119C60.3279 471.506 61.0299 471.8 61.6179 472.388C62.2059 472.976 62.4999 473.678 62.4999 474.494V478.994C62.4999 479.81 62.2059 480.518 61.6179 481.118C61.0299 481.706 60.3279 482 59.5119 482H56.5059C55.6899 482 54.9819 481.706 54.3819 481.118C53.7939 480.53 53.4999 479.822 53.4999 478.994V474.494C53.4999 473.678 53.7939 472.976 54.3819 472.388C54.9819 471.8 55.6899 471.506 56.5059 471.506ZM56.5059 474.494V478.994C56.5059 479.402 56.6499 479.756 56.9379 480.056C57.2379 480.356 57.5919 480.506 57.9999 480.506C58.4199 480.506 58.7739 480.356 59.0619 480.056C59.3619 479.756 59.5119 479.402 59.5119 478.994V474.494C59.5119 474.086 59.3619 473.738 59.0619 473.45C58.7739 473.15 58.4199 473 57.9999 473C57.5919 473 57.2379 473.15 56.9379 473.45C56.6499 473.738 56.5059 474.086 56.5059 474.494ZM65.5057 482V471.506H68.5117V473C68.5717 472.496 68.7277 472.124 68.9797 471.884C69.2317 471.632 69.5737 471.506 70.0057 471.506H71.5177C72.3337 471.506 73.0357 471.8 73.6237 472.388C74.2117 472.976 74.5057 473.678 74.5057 474.494V482H71.5177V474.494C71.5177 474.086 71.3677 473.738 71.0677 473.45C70.7797 473.15 70.4257 473 70.0057 473C69.5977 473 69.2437 473.15 68.9437 473.45C68.6557 473.738 68.5117 474.086 68.5117 474.494V482H65.5057ZM77.5116 482V468.5H80.5176V475.25L85.0176 471.506H88.0236L81.7416 476.744L88.0236 482H85.0176L80.5176 478.256V482H77.5116ZM98.5174 477.5H92.5234V478.994C92.5234 479.402 92.6674 479.756 92.9554 480.056C93.2554 480.356 93.6094 480.506 94.0174 480.506H95.5294C96.5254 480.506 97.0234 480.002 97.0234 478.994H98.5174C98.2894 480.998 97.2934 482 95.5294 482H92.5234C91.7074 482 90.9994 481.706 90.3994 481.118C89.8114 480.53 89.5174 479.822 89.5174 478.994V474.494C89.5174 473.678 89.8114 472.976 90.3994 472.388C90.9994 471.8 91.7074 471.506 92.5234 471.506H95.5294C96.3454 471.506 97.0474 471.8 97.6354 472.388C98.2234 472.976 98.5174 473.678 98.5174 474.494V477.5ZM92.5234 476.006H95.5294V474.494C95.5294 474.086 95.3794 473.738 95.0794 473.45C94.7914 473.15 94.4374 473 94.0174 473C93.6094 473 93.2554 473.15 92.9554 473.45C92.6674 473.738 92.5234 474.086 92.5234 474.494V476.006ZM103.035 483.494C103.107 484.502 103.605 485.006 104.529 485.006H106.023C106.443 485.006 106.797 484.856 107.085 484.556C107.385 484.268 107.535 483.914 107.535 483.494V480.506C107.415 481.502 106.911 482 106.023 482H104.529C103.713 482 103.005 481.706 102.405 481.118C101.817 480.53 101.523 479.822 101.523 478.994V471.506H104.529V478.994C104.529 479.402 104.673 479.756 104.961 480.056C105.261 480.356 105.615 480.506 106.023 480.506C106.443 480.506 106.797 480.356 107.085 480.056C107.385 479.756 107.535 479.402 107.535 478.994V471.506H110.523V483.494C110.523 484.31 110.229 485.012 109.641 485.6C109.053 486.2 108.351 486.5 107.535 486.5H104.529C102.765 486.5 101.763 485.498 101.523 483.494H103.035ZM113.529 482V468.5H116.535V474.008L121.395 468.5H124.041L118.029 475.25L124.041 482H121.035L116.535 476.744V482H113.529ZM127.029 469.994V468.5H130.035V469.994H127.029ZM127.029 482V471.506H130.035V482H127.029ZM133.023 482V471.506H136.029V473C136.089 472.496 136.245 472.124 136.497 471.884C136.749 471.632 137.091 471.506 137.523 471.506H139.035C139.851 471.506 140.553 471.8 141.141 472.388C141.729 472.976 142.023 473.678 142.023 474.494V482H139.035V474.494C139.035 474.086 138.885 473.738 138.585 473.45C138.297 473.15 137.943 473 137.523 473C137.115 473 136.761 473.15 136.461 473.45C136.173 473.738 136.029 474.086 136.029 474.494V482H133.023ZM154.029 471.506V483.494C154.029 484.31 153.735 485.012 153.147 485.6C152.559 486.2 151.857 486.5 151.041 486.5H148.035C146.271 486.5 145.269 485.498 145.029 483.494H146.541C146.613 484.502 147.111 485.006 148.035 485.006H149.529C149.949 485.006 150.303 484.856 150.591 484.556C150.891 484.268 151.041 483.914 151.041 483.494V480.506C150.921 481.502 150.417 482 149.529 482H148.035C147.219 482 146.511 481.706 145.911 481.118C145.323 480.53 145.029 479.822 145.029 478.994V474.494C145.029 473.678 145.323 472.976 145.911 472.388C146.511 471.8 147.219 471.506 148.035 471.506H154.029ZM151.041 473H149.529C149.121 473 148.767 473.15 148.467 473.45C148.179 473.738 148.035 474.086 148.035 474.494V478.994C148.035 479.402 148.179 479.756 148.467 480.056C148.767 480.356 149.121 480.506 149.529 480.506C149.949 480.506 150.303 480.356 150.591 480.056C150.891 479.756 151.041 479.402 151.041 478.994V473ZM157.035 482V478.994H160.041V482H157.035ZM163.029 482V468.5H166.035V473C166.095 472.496 166.251 472.124 166.503 471.884C166.755 471.632 167.097 471.506 167.529 471.506H169.041C169.857 471.506 170.559 471.8 171.147 472.388C171.735 472.976 172.029 473.678 172.029 474.494V478.994C172.029 479.81 171.735 480.518 171.147 481.118C170.559 481.706 169.857 482 169.041 482H163.029ZM166.035 480.506H167.529C167.949 480.506 168.303 480.356 168.591 480.056C168.891 479.756 169.041 479.402 169.041 478.994V474.494C169.041 474.086 168.891 473.738 168.591 473.45C168.303 473.15 167.949 473 167.529 473C167.121 473 166.767 473.15 166.467 473.45C166.179 473.738 166.035 474.086 166.035 474.494V480.506ZM184.035 477.5H178.041V478.994C178.041 479.402 178.185 479.756 178.473 480.056C178.773 480.356 179.127 480.506 179.535 480.506H181.047C182.043 480.506 182.541 480.002 182.541 478.994H184.035C183.807 480.998 182.811 482 181.047 482H178.041C177.225 482 176.517 481.706 175.917 481.118C175.329 480.53 175.035 479.822 175.035 478.994V474.494C175.035 473.678 175.329 472.976 175.917 472.388C176.517 471.8 177.225 471.506 178.041 471.506H181.047C181.863 471.506 182.565 471.8 183.153 472.388C183.741 472.976 184.035 473.678 184.035 474.494V477.5ZM178.041 476.006H181.047V474.494C181.047 474.086 180.897 473.738 180.597 473.45C180.309 473.15 179.955 473 179.535 473C179.127 473 178.773 473.15 178.473 473.45C178.185 473.738 178.041 474.086 178.041 474.494V476.006ZM188.553 468.5H191.541V471.506H193.053V473H191.541V478.994C191.541 479.486 191.703 479.864 192.027 480.128C192.351 480.38 192.645 480.506 192.909 480.506H193.053V482H191.541C190.725 482 190.023 481.706 189.435 481.118C188.847 480.53 188.553 479.822 188.553 478.994V473H187.041V471.506H188.553V468.5ZM196.041 471.506H205.041V473L199.047 480.506H205.041V482H196.041V480.506L202.053 473H196.041V471.506Z" fill="#A7AA16"/>
</g>
</g>
<defs>
<filter id="filter0_i_0_3" x="40" y="142" width="405" height="352" filterUnits="userSpaceOnUse" color-interpolation-filters="sRGB">
<feFlood flood-opacity="0" result="BackgroundImageFix"/>
<feBlend mode="normal" in="SourceGraphic" in2="BackgroundImageFix" result="shape"/>
<feColorMatrix in="SourceAlpha" type="matrix" values="0 0 0 0 0 0 0 0 0 0 0 0 0 0 0 0 0 0 127 0" result="hardAlpha"/>
<feOffset dy="4"/>
<feGaussianBlur stdDeviation="2"/>
<feComposite in2="hardAlpha" operator="arithmetic" k2="-1" k3="1"/>
<feColorMatrix type="matrix" values="0 0 0 0 0 0 0 0 0 0 0 0 0 0 0 0 0 0 0.25 0"/>
<feBlend mode="normal" in2="shape" result="effect1_innerShadow_0_3"/>
</filter>
<filter id="filter1_i_0_3" x="47.5" y="146.5" width="80.3694" height="67.6679" filterUnits="userSpaceOnUse" color-interpolation-filters="sRGB">
<feFlood flood-opacity="0" result="BackgroundImageFix"/>
<feBlend mode="normal" in="SourceGraphic" in2="BackgroundImageFix" result="shape"/>
<feColorMatrix in="SourceAlpha" type="matrix" values="0 0 0 0 0 0 0 0 0 0 0 0 0 0 0 0 0 0 127 0" result="hardAlpha"/>
<feOffset dy="4"/>
<feGaussianBlur stdDeviation="2"/>
<feComposite in2="hardAlpha" operator="arithmetic" k2="-1" k3="1"/>
<feColorMatrix type="matrix" values="0 0 0 0 0 0 0 0 0 0 0 0 0 0 0 0 0 0 0.25 0"/>
<feBlend mode="normal" in2="shape" result="effect1_innerShadow_0_3"/>
</filter>
<filter id="filter2_d_0_3" x="37.494" y="468.5" width="171.547" height="26" filterUnits="userSpaceOnUse" color-interpolation-filters="sRGB">
<feFlood flood-opacity="0" result="BackgroundImageFix"/>
<feColorMatrix in="SourceAlpha" type="matrix" values="0 0 0 0 0 0 0 0 0 0 0 0 0 0 0 0 0 0 127 0" result="hardAlpha"/>
<feOffset dy="4"/>
<feGaussianBlur stdDeviation="2"/>
<feComposite in2="hardAlpha" operator="out"/>
<feColorMatrix type="matrix" values="0 0 0 0 0 0 0 0 0 0 0 0 0 0 0 0 0 0 0.25 0"/>
<feBlend mode="normal" in2="BackgroundImageFix" result="effect1_dropShadow_0_3"/>
<feBlend mode="normal" in="SourceGraphic" in2="effect1_dropShadow_0_3" result="shape"/>
</filter>
<linearGradient id="paint0_linear_0_3" x1="40" y1="142" x2="384.035" y2="542.385" gradientUnits="userSpaceOnUse">
<stop stop-color="#575A4B"/>
<stop offset="1" stop-color="#E28B08"/>
</linearGradient>
<clipPath id="clip0_0_3">
<rect width="564" height="508" fill="white"/>
</clipPath>
</defs>
</svg>
