<svg width="456" height="476" viewBox="0 0 456 476" fill="none" xmlns="http://www.w3.org/2000/svg">
<rect width="456" height="476" fill="#E5E5E5"/>
<g id="Frame 1" filter="url(#filter0_d_0_1)">
<g id="svgviewer-output (2) 1" clip-path="url(#clip0_0_1)">
<rect width="448" height="468" transform="translate(4)" fill="#65ECF4"/>
<g id="Group" filter="url(#filter1_i_0_1)">
<path id="Vector" d="M345.668 0.134003C345.668 0.134003 302.971 34.384 284.353 88.405C277.521 107.767 272.638 127.763 269.777 148.095C245.025 153.248 199.785 181.394 199.785 181.394L165.16 177.655L177.082 195.643L141.399 201.272L157.047 215.916L127.015 214.557L130.357 227.202L103.639 226.535L106.293 246.931L82.916 242.512L85.57 265.735L66.897 262.064L66.278 281.018L36.851 276.381L39.505 298.3L4 308.592V467.866H180.52L247.377 354.047L211.776 308.973L224.275 299.306L268.209 354.917C272.664 359.309 277.367 363.401 280.585 364.748C298.09 372.09 333.278 372.906 349.49 382.655C358.635 388.093 369.649 409.005 379.674 412.69C381.419 413.192 383.234 413.412 385.05 413.343C393.823 413.343 407.45 410.27 407.45 410.27L419.826 422.235L431.349 412.405L401.097 381.594L412.414 370.594L444.44 403.132L446.599 401.622C446.599 401.622 456.225 348.377 449.776 332.278C442.075 313.134 404.535 289.19 393.163 271.935C383.799 257.767 376.346 223.177 365.991 209.798C355.926 196.622 335.148 176.73 314.384 162.956C324.601 145.253 333.035 126.579 339.562 107.209C358.14 53.23 345.764 0.134003 345.764 0.134003H345.668ZM410.792 21.508C410.792 21.508 389.024 32.685 365.345 54.766C364.473 74.3901 360.84 93.7934 354.551 112.403C349.171 128.161 342.673 143.514 335.107 158.347C338.352 160.808 341.501 163.351 344.581 165.921C356.535 152.396 367.426 137.967 377.157 122.764C408.138 74.781 410.792 21.508 410.792 21.508V21.508ZM325.261 232.028C328.253 232.028 331.177 232.906 333.665 234.549C336.146 236.185 338.085 238.521 339.236 241.261C340.38 243.991 340.68 247.001 340.097 249.903C339.509 252.811 338.068 255.477 335.957 257.561C333.834 259.657 331.14 261.081 328.212 261.654C325.278 262.231 322.24 261.935 319.473 260.803C316.716 259.677 314.354 257.76 312.685 255.294C311.025 252.841 310.137 249.947 310.135 246.985C310.135 243.018 311.729 239.214 314.566 236.409C317.416 233.599 321.258 232.024 325.261 232.028V232.028ZM431.143 332.278C433.797 332.278 435.983 339.158 435.983 347.724C435.983 356.29 433.77 363.17 431.019 363.17C428.269 363.17 426.193 356.263 426.193 347.738C426.193 339.213 428.365 332.265 431.019 332.265L431.143 332.278Z" fill="#108410"/>
<path id="Vector_2" d="M14.815 464.312L14.447 450.671C14.257 450.684 14.074 450.705 13.897 450.732C13.72 450.759 13.557 450.786 13.408 450.813L13 449.019C13.394 448.938 13.877 448.849 14.447 448.754C15.7184 448.548 16.9974 448.392 18.281 448.285C18.8913 448.233 19.5035 448.206 20.116 448.203C21.666 448.203 22.991 448.53 24.092 449.182C25.207 449.821 26.063 450.759 26.661 451.996C27.259 453.219 27.558 454.715 27.558 456.482C27.558 457.637 27.375 458.691 27.008 459.642C26.6731 460.562 26.1604 461.408 25.499 462.13C24.8502 462.82 24.0658 463.369 23.195 463.741C22.311 464.121 21.346 464.312 20.299 464.312H14.815V464.312ZM17.322 462.313C18.016 462.313 18.709 462.3 19.402 462.273C20.0194 462.242 20.6332 462.16 21.237 462.028C21.822 461.892 22.379 461.593 22.909 461.131C23.44 460.655 23.868 460.023 24.194 459.234C24.534 458.446 24.704 457.522 24.704 456.461C24.704 455.075 24.486 453.933 24.051 453.036C23.63 452.139 23.059 451.473 22.338 451.038C21.618 450.589 20.802 450.365 19.892 450.365C19.035 450.365 18.179 450.385 17.322 450.426V462.313V462.313ZM35.348 464.536C34.165 464.536 33.139 464.298 32.269 463.822C31.4198 463.341 30.7262 462.626 30.27 461.763C29.795 460.879 29.557 459.846 29.557 458.664C29.557 457.467 29.795 456.427 30.27 455.544C30.7261 454.681 31.4197 453.966 32.269 453.484C33.139 452.995 34.165 452.75 35.348 452.75C36.544 452.75 37.57 452.995 38.426 453.484C39.281 453.958 39.9765 454.675 40.425 455.544C40.887 456.427 41.118 457.467 41.118 458.664C41.118 459.846 40.887 460.879 40.425 461.763C39.9765 462.632 39.281 463.348 38.426 463.822C37.57 464.298 36.544 464.536 35.348 464.536ZM35.674 462.66C36.53 462.592 37.196 462.232 37.672 461.579C38.148 460.913 38.386 460.064 38.386 459.031V458.725C38.386 458.616 38.379 458.507 38.365 458.398C38.27 457.229 37.944 456.312 37.387 455.646C36.843 454.98 36.15 454.647 35.307 454.647C35.2586 454.646 35.2104 454.653 35.164 454.667H35.021C34.192 454.721 33.526 455.082 33.023 455.748C32.534 456.414 32.289 457.27 32.289 458.317V458.623C32.289 458.718 32.296 458.82 32.309 458.929C32.405 460.084 32.738 461.002 33.309 461.681C33.88 462.347 34.58 462.68 35.409 462.68H35.531C35.5777 462.668 35.6257 462.661 35.674 462.66V462.66ZM51.036 464.577V456.971C51.036 456.292 50.825 455.775 50.404 455.422C49.996 455.055 49.5 454.871 48.915 454.871C48.331 454.871 47.794 455.027 47.304 455.34C46.829 455.653 46.496 456.108 46.305 456.706V464.312L43.818 464.577L43.41 452.648L46.305 452.995V454.32C46.5689 453.812 46.9912 453.404 47.508 453.158C48.052 452.886 48.793 452.75 49.731 452.75C50.56 452.75 51.287 452.927 51.913 453.281C52.5305 453.613 53.0399 454.115 53.381 454.728C53.734 455.326 53.89 456.006 53.85 456.767L53.442 464.312L51.036 464.577V464.577ZM64.215 464.577L60.341 459.194L59.566 459.928V464.312L57.201 464.597L56.793 448L59.566 448.407V457.685L63.501 452.648L66.539 453.281L61.544 458.052L67.029 464.026L64.215 464.577V464.577ZM78.349 462.313C77.955 462.843 77.534 463.272 77.085 463.598C76.6333 463.932 76.1207 464.175 75.576 464.312C75.005 464.461 74.305 464.536 73.476 464.536C72.293 464.536 71.281 464.278 70.438 463.761C69.6089 463.246 68.9385 462.512 68.501 461.64C68.052 460.743 67.828 459.744 67.828 458.643C67.828 457.529 68.059 456.529 68.521 455.646C68.9598 454.775 69.6299 454.041 70.458 453.525C71.301 453.009 72.28 452.75 73.394 452.75C74.482 452.75 75.413 453.002 76.188 453.505C76.976 453.994 77.581 454.701 78.002 455.625C78.424 456.536 78.635 457.624 78.635 458.888V459.234H71.253L70.805 457.644L75.821 457.236C75.78 456.516 75.576 455.931 75.209 455.483C74.856 455.021 74.285 454.789 73.496 454.789C72.585 454.789 71.831 455.129 71.233 455.809C70.648 456.475 70.356 457.427 70.356 458.664C70.356 459.547 70.519 460.281 70.846 460.866C71.185 461.437 71.607 461.865 72.11 462.15C72.626 462.422 73.143 462.558 73.659 462.558C74.529 462.558 75.304 462.415 75.984 462.13C76.677 461.831 77.221 461.43 77.615 460.927L78.349 462.313V462.313ZM80.7 466.636C81.489 466.582 82.127 466.425 82.617 466.167C83.0984 465.927 83.5171 465.578 83.84 465.148C84.153 464.726 84.411 464.25 84.615 463.72L79.742 453.219L82.821 452.648L85.696 460.927L88.897 452.648L91.12 453.219L86.878 464.883C86.416 466.133 85.723 467.037 84.799 467.594C83.874 468.165 82.685 468.451 81.23 468.451L80.7 466.636V466.636ZM95.771 462.782C95.771 463.285 95.594 463.713 95.241 464.067C94.888 464.407 94.459 464.577 93.956 464.577C93.453 464.577 93.025 464.407 92.672 464.067C92.5005 463.9 92.365 463.7 92.2739 463.479C92.1827 463.258 92.1378 463.021 92.142 462.782C92.142 462.279 92.318 461.851 92.672 461.498C93.025 461.144 93.453 460.968 93.956 460.968C94.459 460.968 94.888 461.144 95.241 461.498C95.594 461.851 95.771 462.279 95.771 462.782ZM99.293 464.515L98.885 448L101.781 448.407V454.096C102.025 453.675 102.433 453.349 103.004 453.117C103.604 452.867 104.25 452.742 104.9 452.75C106.395 452.75 107.592 453.253 108.489 454.259C109.386 455.252 109.835 456.713 109.835 458.643C109.835 460.587 109.379 462.055 108.468 463.047C107.558 464.04 106.375 464.536 104.921 464.536C104.207 464.543 103.499 464.404 102.841 464.128C102.216 463.843 101.767 463.469 101.495 463.007L101.291 464.047L99.293 464.515V464.515ZM101.719 461.049C101.937 461.484 102.256 461.851 102.678 462.15C103.099 462.449 103.609 462.599 104.207 462.599C104.724 462.599 105.206 462.476 105.655 462.232C106.117 461.974 106.491 461.559 106.776 460.988C107.062 460.403 107.204 459.622 107.204 458.643C107.204 457.678 107.068 456.917 106.796 456.359C106.525 455.789 106.158 455.381 105.695 455.136C105.232 454.887 104.713 454.761 104.187 454.769C103.738 454.769 103.323 454.885 102.943 455.116C102.574 455.335 102.265 455.644 102.046 456.013C101.828 456.393 101.719 456.828 101.719 457.318V461.049V461.049ZM122.036 462.313C121.642 462.843 121.221 463.272 120.772 463.598C120.32 463.932 119.808 464.175 119.263 464.312C118.692 464.461 117.992 464.536 117.163 464.536C115.98 464.536 114.968 464.278 114.125 463.761C113.296 463.246 112.625 462.512 112.188 461.64C111.739 460.743 111.515 459.744 111.515 458.643C111.515 457.529 111.746 456.529 112.208 455.646C112.647 454.775 113.317 454.041 114.145 453.525C114.988 453.009 115.967 452.75 117.082 452.75C118.169 452.75 119.1 453.002 119.875 453.505C120.663 453.994 121.268 454.701 121.69 455.625C122.111 456.536 122.322 457.624 122.322 458.888V459.234H114.941L114.492 457.644L119.508 457.236C119.467 456.516 119.263 455.931 118.896 455.483C118.543 455.021 117.972 454.789 117.183 454.789C116.273 454.789 115.518 455.129 114.92 455.809C114.336 456.475 114.043 457.427 114.043 458.664C114.043 459.547 114.207 460.281 114.533 460.866C114.873 461.437 115.294 461.865 115.797 462.15C116.313 462.422 116.83 462.558 117.347 462.558C118.217 462.558 118.991 462.415 119.671 462.13C120.364 461.831 120.908 461.43 121.302 460.927L122.036 462.313V462.313ZM129.872 464.536C128.295 464.536 127.154 464.223 126.447 463.598C125.74 462.973 125.386 462.069 125.386 460.886V454.891H123.837L123.429 453.321L125.386 453.117V449.447L128.261 449.855L128.159 452.832L130.198 452.628V454.891H128.078L127.874 460.519V460.723C127.874 461.389 128.044 461.919 128.384 462.313C128.737 462.694 129.369 462.884 130.28 462.884L129.872 464.536V464.536ZM131.842 464.312V462.273L137.776 455.258L132.699 455.279L132.291 453.403L140.916 452.669L141.324 455.238L134.493 462.334L141.589 461.661V464.312H131.842V464.312Z" fill="#DAA520"/>
</g>
</g>
</g>
<defs>
<filter id="filter0_d_0_1" x="0" y="0" width="456" height="476" filterUnits="userSpaceOnUse" color-interpolation-filters="sRGB">
<feFlood flood-opacity="0" result="BackgroundImageFix"/>
<feColorMatrix in="SourceAlpha" type="matrix" values="0 0 0 0 0 0 0 0 0 0 0 0 0 0 0 0 0 0 127 0" result="hardAlpha"/>
<feOffset dy="4"/>
<feGaussianBlur stdDeviation="2"/>
<feComposite in2="hardAlpha" operator="out"/>
<feColorMatrix type="matrix" values="0 0 0 0 0 0 0 0 0 0 0 0 0 0 0 0 0 0 0.25 0"/>
<feBlend mode="normal" in2="BackgroundImageFix" result="effect1_dropShadow_0_1"/>
<feBlend mode="normal" in="SourceGraphic" in2="effect1_dropShadow_0_1" result="shape"/>
</filter>
<filter id="filter1_i_0_1" x="4" y="0.134003" width="449.299" height="473.511" filterUnits="userSpaceOnUse" color-interpolation-filters="sRGB">
<feFlood flood-opacity="0" result="BackgroundImageFix"/>
<feBlend mode="normal" in="SourceGraphic" in2="BackgroundImageFix" result="shape"/>
<feColorMatrix in="SourceAlpha" type="matrix" values="0 0 0 0 0 0 0 0 0 0 0 0 0 0 0 0 0 0 127 0" result="hardAlpha"/>
<feOffset dx="1.299" dy="5.194"/>
<feGaussianBlur stdDeviation="2.597"/>
<feComposite in2="hardAlpha" operator="arithmetic" k2="-1" k3="1"/>
<feColorMatrix type="matrix" values="0 0 0 0 0 0 0 0 0 0 0 0 0 0 0 0 0 0 0.25 0"/>
<feBlend mode="normal" in2="shape" result="effect1_innerShadow_0_1"/>
</filter>
<clipPath id="clip0_0_1">
<rect width="448" height="468" fill="white" transform="translate(4)"/>
</clipPath>
</defs>
</svg>
