<svg width="564" height="508" viewBox="0 0 564 508" fill="none" xmlns="http://www.w3.org/2000/svg">
<path d="M40 142H471V490H40V142Z" fill="url(#paint0_linear_0_3)"/>
<g filter="url(#filter0_i_0_3)">
<path d="M368.691 142C368.691 142 327.612 167.535 309.694 207.679C302.51 223.796 297.781 239.187 295.64 252.098C271.851 255.925 228.308 276.872 228.308 276.872L195.004 274.098L206.499 287.484L172.167 291.663L187.23 302.561L158.331 301.573L161.538 310.956L135.846 310.458L138.415 325.68L115.93 322.351L118.499 339.638L100.515 336.879L99.8773 350.996L71.6162 347.541L74.1854 363.84L40 371.497V490H209.814L274.136 405.296L239.88 371.789L251.898 364.602L294.176 405.975C298.458 409.247 302.977 412.291 306.07 413.294C322.903 418.761 356.74 419.405 372.384 426.622C381.185 430.662 391.776 446.26 401.425 448.96C403.1 449.338 404.846 449.503 406.592 449.451C415.042 449.451 428.144 447.173 428.144 447.173L440.029 456.073L451.124 448.754L422.016 425.831L432.902 417.641L463.713 441.859L465.797 440.727C465.797 440.727 475.084 401.108 468.842 389.12C461.43 374.87 425.326 357.056 414.383 344.219C405.372 333.679 398.209 307.983 388.246 297.978C378.569 288.229 358.586 273.373 338.603 263.127C347.158 251.973 355.646 237.687 362.782 221.688C380.7 181.522 368.692 142 368.692 142H368.691ZM431.293 157.882C431.293 157.882 410.359 166.203 387.579 182.62C386.733 197.221 383.236 211.66 377.188 225.515C372.021 237.239 365.767 248.665 358.48 259.702C361.602 261.539 364.637 263.434 367.596 265.345C379.099 255.27 389.578 244.531 398.94 233.221C428.743 197.527 431.293 157.88 431.293 157.88V157.882ZM349.051 314.513C361.989 314.513 368.465 326.543 359.318 333.578C350.171 340.613 334.53 335.631 334.53 325.68C334.53 319.512 341.032 314.511 349.051 314.511V314.513ZM450.847 389.107C453.407 389.107 455.491 394.23 455.491 400.597C455.491 406.965 453.407 412.088 450.847 412.088C448.288 412.088 446.204 406.943 446.204 400.597C446.204 394.252 448.288 389.107 450.847 389.107Z" fill="#247127"/>
</g>
<g filter="url(#filter1_i_0_3)">
<path d="M107.657 165.374C106.886 164.995 106.033 164.811 105.174 164.839C104.309 164.863 103.461 165.095 102.704 165.516L91.4063 172.033L83.7283 176.292L72.4303 182.809C71.6733 183.229 70.826 183.461 69.9603 183.485C69.101 183.512 68.2483 183.328 67.4763 182.95L58.3913 178.361C57.6598 177.99 57.0366 177.436 56.5823 176.753C56.1443 176.091 55.8985 175.321 55.8723 174.528L55.7703 164.97C55.7501 164.164 55.9655 163.37 56.3903 162.685C56.8344 161.97 57.4609 161.387 58.2053 160.995L67.0423 156.029C67.7993 155.608 68.6466 155.376 69.5123 155.353C70.3712 155.326 71.2236 155.51 71.9953 155.888L80.9333 160.346C81.6803 160.731 82.3033 161.284 82.7433 161.954C83.1833 162.624 83.4283 163.391 83.4523 164.18L83.5193 170.372L91.1963 165.979L91.1293 159.786C91.1343 158.987 90.9014 158.204 90.4603 157.538C90.0013 156.849 89.3611 156.301 88.6103 155.953L72.0513 147.538C71.2795 147.159 70.4266 146.975 69.5673 147.003C68.7017 147.027 67.8545 147.259 67.0973 147.679L50.4363 157.042C49.6919 157.434 49.0654 158.017 48.6213 158.732C48.1966 159.417 47.9812 160.211 48.0013 161.017L48.1933 178.922C48.1885 179.721 48.4217 180.504 48.8633 181.171C49.322 181.859 49.9618 182.408 50.7123 182.756L67.5643 191.163C68.3213 191.539 69.1783 191.723 70.0473 191.698C70.9129 191.674 71.7601 191.442 72.5173 191.022L83.8173 184.639L91.4943 180.246L102.793 173.863C103.55 173.442 104.398 173.21 105.263 173.187C106.122 173.16 106.975 173.344 107.746 173.722L116.685 178.18C117.417 178.551 118.04 179.105 118.494 179.788C118.934 180.458 119.179 181.225 119.204 182.014L119.306 191.572C119.327 192.378 119.111 193.172 118.686 193.858C118.242 194.572 117.616 195.156 116.871 195.548L108.035 200.648C107.278 201.068 106.431 201.3 105.565 201.324C104.706 201.35 103.854 201.167 103.082 200.789L94.1443 196.331C93.4124 195.96 92.7888 195.406 92.3343 194.723C91.896 194.061 91.6505 193.29 91.6253 192.497L91.5593 186.305L83.8813 190.698L83.9483 196.891C83.9437 197.69 84.1769 198.472 84.6183 199.139C85.0771 199.827 85.7169 200.376 86.4673 200.724L103.318 209.131C104.076 209.507 104.932 209.691 105.802 209.666C106.668 209.642 107.515 209.41 108.272 208.99L124.932 199.626C125.657 199.212 126.266 198.624 126.706 197.916C127.128 197.235 127.358 196.452 127.369 195.651L127.176 177.745C127.181 176.945 126.948 176.163 126.506 175.497C126.048 174.808 125.408 174.26 124.657 173.912L107.659 165.374H107.656H107.657Z" fill="#8A1295"/>
</g>
<path d="M107.657 165.374C106.886 164.995 106.033 164.811 105.174 164.839C104.309 164.863 103.461 165.095 102.704 165.516L91.4063 172.033L83.7283 176.292L72.4303 182.809C71.6733 183.229 70.826 183.461 69.9603 183.485C69.101 183.512 68.2483 183.328 67.4763 182.95L58.3913 178.361C57.6598 177.99 57.0366 177.436 56.5823 176.753C56.1443 176.091 55.8985 175.321 55.8723 174.528L55.7703 164.97C55.7501 164.164 55.9655 163.37 56.3903 162.685C56.8344 161.97 57.4609 161.387 58.2053 160.995L67.0423 156.029C67.7993 155.608 68.6466 155.376 69.5123 155.353C70.3712 155.326 71.2236 155.51 71.9953 155.888L80.9333 160.346C81.6803 160.731 82.3033 161.284 82.7433 161.954C83.1833 162.624 83.4283 163.391 83.4523 164.18L83.5193 170.372L91.1963 165.979L91.1293 159.786C91.1343 158.987 90.9014 158.204 90.4603 157.538C90.0013 156.849 89.3611 156.301 88.6103 155.953L72.0513 147.538C71.2795 147.159 70.4266 146.975 69.5673 147.003C68.7017 147.027 67.8545 147.259 67.0973 147.679L50.4363 157.042C49.6919 157.434 49.0654 158.017 48.6213 158.732C48.1966 159.417 47.9812 160.211 48.0013 161.017L48.1933 178.922C48.1885 179.721 48.4217 180.504 48.8633 181.171C49.322 181.859 49.9618 182.408 50.7123 182.756L67.5643 191.163C68.3213 191.539 69.1783 191.723 70.0473 191.698C70.9129 191.674 71.7601 191.442 72.5173 191.022L83.8173 184.639L91.4943 180.246L102.793 173.863C103.55 173.442 104.398 173.21 105.263 173.187C106.122 173.16 106.975 173.344 107.746 173.722L116.685 178.18C117.417 178.551 118.04 179.105 118.494 179.788C118.934 180.458 119.179 181.225 119.204 182.014L119.306 191.572C119.327 192.378 119.111 193.172 118.686 193.858C118.242 194.572 117.616 195.156 116.871 195.548L108.035 200.648C107.278 201.068 106.431 201.3 105.565 201.324C104.706 201.35 103.854 201.167 103.082 200.789L94.1443 196.331C93.4124 195.96 92.7888 195.406 92.3343 194.723C91.896 194.061 91.6505 193.29 91.6253 192.497L91.5593 186.305L83.8813 190.698L83.9483 196.891C83.9437 197.69 84.1769 198.472 84.6183 199.139C85.0771 199.827 85.7169 200.376 86.4673 200.724L103.318 209.131C104.076 209.507 104.932 209.691 105.802 209.666C106.668 209.642 107.515 209.41 108.272 208.99L124.932 199.626C125.657 199.212 126.266 198.624 126.706 197.916C127.128 197.235 127.358 196.452 127.369 195.651L127.176 177.745C127.181 176.945 126.948 176.163 126.506 175.497C126.048 174.808 125.408 174.26 124.657 173.912L107.659 165.374H107.656H107.657Z" stroke="#E5E5E5"/>
<path d="M41.848 459.296H46.501C48.261 459.296 49.515 459.593 50.263 460.187C51.033 460.759 51.528 461.793 51.748 463.289C51.968 464.763 52.078 467.216 52.078 470.648C52.078 474.058 51.968 476.511 51.748 478.007C51.528 479.503 51.033 480.548 50.263 481.142C49.515 481.714 48.261 482 46.501 482H41.848V459.296ZM46.501 479.888C47.557 479.888 48.294 479.723 48.712 479.393C49.13 479.063 49.416 478.282 49.57 477.05C49.724 475.818 49.801 473.684 49.801 470.648C49.801 467.612 49.724 465.478 49.57 464.246C49.416 463.014 49.13 462.233 48.712 461.903C48.294 461.573 47.557 461.408 46.501 461.408H44.125V479.888H46.501ZM59.7069 482.264C58.1889 482.264 57.0889 482.033 56.4069 481.571C55.7249 481.109 55.2739 480.306 55.0539 479.162C54.8559 478.018 54.7569 476.17 54.7569 473.618C54.7569 471.066 54.8559 469.207 55.0539 468.041C55.2739 466.875 55.7249 466.061 56.4069 465.599C57.0889 465.137 58.1889 464.906 59.7069 464.906C61.2469 464.906 62.3469 465.137 63.0069 465.599C63.6889 466.061 64.1289 466.875 64.3269 468.041C64.5469 469.185 64.6569 471.044 64.6569 473.618C64.6569 476.17 64.5469 478.018 64.3269 479.162C64.1289 480.306 63.6889 481.109 63.0069 481.571C62.3469 482.033 61.2469 482.264 59.7069 482.264ZM59.7069 480.35C60.6089 480.35 61.2469 480.196 61.6209 479.888C61.9949 479.58 62.2259 478.997 62.3139 478.139C62.4239 477.281 62.4789 475.774 62.4789 473.618C62.4789 471.44 62.4239 469.922 62.3139 469.064C62.2259 468.206 61.9949 467.623 61.6209 467.315C61.2469 466.985 60.6089 466.82 59.7069 466.82C58.8049 466.82 58.1669 466.985 57.7929 467.315C57.4409 467.623 57.2099 468.217 57.0999 469.097C56.9899 469.955 56.9349 471.462 56.9349 473.618C56.9349 475.752 56.9899 477.259 57.0999 478.139C57.2099 478.997 57.4409 479.58 57.7929 479.888C58.1669 480.196 58.8049 480.35 59.7069 480.35ZM74.9514 472.001C74.9514 470.417 74.8964 469.284 74.7864 468.602C74.6764 467.92 74.4564 467.469 74.1264 467.249C73.7964 467.007 73.2574 466.886 72.5094 466.886C71.6514 466.886 71.0244 467.128 70.6284 467.612C70.2544 468.096 70.0234 468.756 69.9354 469.592C69.8474 470.428 69.8034 471.693 69.8034 473.387V482H67.6254V465.17H69.5724L69.7044 467.48H69.9024C70.1224 466.666 70.5074 466.039 71.0574 465.599C71.6074 465.137 72.3994 464.906 73.4334 464.906C74.4894 464.906 75.2814 465.115 75.8094 465.533C76.3374 465.929 76.6894 466.567 76.8654 467.447C77.0414 468.305 77.1294 469.548 77.1294 471.176V482H74.9514V472.001ZM87.3831 482L84.1491 474.476H82.5651V482H80.3871V457.481H82.5651V472.529H84.1491L87.3501 465.17H89.5941L85.9641 473.288L89.7261 482H87.3831ZM100.646 474.278H93.2543C93.2543 476.104 93.3203 477.424 93.4523 478.238C93.6063 479.03 93.9033 479.58 94.3433 479.888C94.8053 480.196 95.5533 480.35 96.5873 480.35C97.1373 480.35 97.7643 480.317 98.4683 480.251C99.1723 480.185 99.7773 480.108 100.283 480.02V481.835C99.8213 481.945 99.2053 482.044 98.4353 482.132C97.6653 482.22 96.9173 482.264 96.1913 482.264C94.6733 482.264 93.5513 482.011 92.8253 481.505C92.1213 480.977 91.6483 480.13 91.4063 478.964C91.1863 477.776 91.0763 475.994 91.0763 473.618C91.0763 471.198 91.1643 469.416 91.3403 468.272C91.5383 467.128 91.9893 466.281 92.6933 465.731C93.3973 465.181 94.5303 464.906 96.0923 464.906C97.5223 464.906 98.5563 465.17 99.1943 465.698C99.8323 466.204 100.228 467.018 100.382 468.14C100.558 469.262 100.646 471.077 100.646 473.585V474.278ZM96.0593 466.82C95.1793 466.82 94.5523 466.952 94.1783 467.216C93.8043 467.48 93.5513 467.997 93.4193 468.767C93.3093 469.537 93.2543 470.824 93.2543 472.628H98.5673V472.133C98.5673 470.505 98.5013 469.328 98.3693 468.602C98.2373 467.876 97.9953 467.403 97.6433 467.183C97.3133 466.941 96.7853 466.82 96.0593 466.82ZM107.649 488.567C106.373 488.567 105.108 488.512 103.854 488.402V486.554C104.712 486.62 105.845 486.653 107.253 486.653C108.331 486.653 109.123 486.455 109.629 486.059C110.135 485.685 110.454 485.091 110.586 484.277C110.74 483.463 110.817 482.209 110.817 480.515V479.756H110.652C110.432 480.504 110.047 481.087 109.497 481.505C108.969 481.923 108.177 482.132 107.121 482.132C106.087 482.132 105.306 481.934 104.778 481.538C104.272 481.12 103.931 480.482 103.755 479.624C103.579 478.744 103.491 477.49 103.491 475.862V465.17H105.669V475.037C105.669 476.599 105.724 477.732 105.834 478.436C105.966 479.118 106.186 479.58 106.494 479.822C106.824 480.042 107.363 480.152 108.111 480.152C108.969 480.152 109.585 479.91 109.959 479.426C110.355 478.942 110.597 478.282 110.685 477.446C110.773 476.61 110.817 475.345 110.817 473.651V465.17H112.995V479.657C112.995 481.989 112.863 483.76 112.599 484.97C112.357 486.202 111.862 487.104 111.114 487.676C110.366 488.27 109.211 488.567 107.649 488.567ZM124.866 482L120.939 471.572H118.827V482H116.517V459.296H118.827V469.394H120.939L124.866 459.296H127.242L122.787 470.384L127.275 482H124.866ZM129.306 460.154V457.481H131.583V460.154H129.306ZM129.339 482V465.17H131.517V482H129.339ZM142.24 472.001C142.24 470.417 142.185 469.284 142.075 468.602C141.965 467.92 141.745 467.469 141.415 467.249C141.085 467.007 140.546 466.886 139.798 466.886C138.94 466.886 138.313 467.128 137.917 467.612C137.543 468.096 137.312 468.756 137.224 469.592C137.136 470.428 137.092 471.693 137.092 473.387V482H134.914V465.17H136.861L136.993 467.48H137.191C137.411 466.666 137.796 466.039 138.346 465.599C138.896 465.137 139.688 464.906 140.722 464.906C141.778 464.906 142.57 465.115 143.098 465.533C143.626 465.929 143.978 466.567 144.154 467.447C144.33 468.305 144.418 469.548 144.418 471.176V482H142.24V472.001ZM151.603 488.567C150.371 488.567 149.073 488.512 147.709 488.402V486.587C149.557 486.653 150.723 486.686 151.207 486.686C152.329 486.686 153.143 486.51 153.649 486.158C154.155 485.828 154.485 485.245 154.639 484.409C154.793 483.573 154.87 482.242 154.87 480.416V479.822H154.705C154.485 480.614 154.111 481.197 153.583 481.571C153.055 481.945 152.329 482.132 151.405 482.132C150.239 482.132 149.359 481.89 148.765 481.406C148.193 480.922 147.797 480.086 147.577 478.898C147.357 477.688 147.247 475.895 147.247 473.519C147.247 471.121 147.357 469.328 147.577 468.14C147.819 466.93 148.226 466.094 148.798 465.632C149.392 465.148 150.272 464.906 151.438 464.906C152.274 464.906 152.989 465.093 153.583 465.467C154.177 465.819 154.584 466.49 154.804 467.48H154.969L155.101 465.17H157.048V479.525C157.048 481.945 156.927 483.771 156.685 485.003C156.443 486.235 155.937 487.137 155.167 487.709C154.419 488.281 153.231 488.567 151.603 488.567ZM152.164 480.152C152.868 480.152 153.407 479.998 153.781 479.69C154.177 479.36 154.452 478.81 154.606 478.04C154.782 477.182 154.87 475.675 154.87 473.519C154.87 471.473 154.804 470.054 154.672 469.262C154.518 468.382 154.243 467.766 153.847 467.414C153.451 467.062 152.89 466.886 152.164 466.886C151.328 466.886 150.723 467.029 150.349 467.315C149.997 467.601 149.755 468.195 149.623 469.097C149.491 469.977 149.425 471.451 149.425 473.519C149.425 475.587 149.491 477.072 149.623 477.974C149.755 478.854 149.997 479.437 150.349 479.723C150.723 480.009 151.328 480.152 152.164 480.152ZM160.438 482V479.129H162.946V482H160.438ZM171.913 482.264C171.077 482.264 170.362 482.088 169.768 481.736C169.196 481.362 168.8 480.68 168.58 479.69H168.382L168.25 482H166.303V457.481H168.481V467.216H168.679C168.899 466.402 169.273 465.819 169.801 465.467C170.329 465.093 171.044 464.906 171.946 464.906C173.134 464.906 174.014 465.159 174.586 465.665C175.158 466.149 175.554 466.996 175.774 468.206C175.994 469.394 176.104 471.187 176.104 473.585C176.104 476.005 175.983 477.82 175.741 479.03C175.521 480.24 175.114 481.087 174.52 481.571C173.948 482.033 173.079 482.264 171.913 482.264ZM171.22 480.284C172.056 480.284 172.65 480.141 173.002 479.855C173.376 479.569 173.618 478.975 173.728 478.073C173.86 477.171 173.926 475.675 173.926 473.585C173.926 471.495 173.86 469.999 173.728 469.097C173.618 468.195 173.376 467.601 173.002 467.315C172.65 467.029 172.056 466.886 171.22 466.886C170.538 466.886 169.999 467.04 169.603 467.348C169.207 467.656 168.932 468.162 168.778 468.866C168.58 469.922 168.481 471.495 168.481 473.585C168.481 475.741 168.569 477.281 168.745 478.205C168.899 478.953 169.174 479.492 169.57 479.822C169.966 480.13 170.516 480.284 171.22 480.284ZM188.174 474.278H180.782C180.782 476.104 180.848 477.424 180.98 478.238C181.134 479.03 181.431 479.58 181.871 479.888C182.333 480.196 183.081 480.35 184.115 480.35C184.665 480.35 185.292 480.317 185.996 480.251C186.7 480.185 187.305 480.108 187.811 480.02V481.835C187.349 481.945 186.733 482.044 185.963 482.132C185.193 482.22 184.445 482.264 183.719 482.264C182.201 482.264 181.079 482.011 180.353 481.505C179.649 480.977 179.176 480.13 178.934 478.964C178.714 477.776 178.604 475.994 178.604 473.618C178.604 471.198 178.692 469.416 178.868 468.272C179.066 467.128 179.517 466.281 180.221 465.731C180.925 465.181 182.058 464.906 183.62 464.906C185.05 464.906 186.084 465.17 186.722 465.698C187.36 466.204 187.756 467.018 187.91 468.14C188.086 469.262 188.174 471.077 188.174 473.585V474.278ZM183.587 466.82C182.707 466.82 182.08 466.952 181.706 467.216C181.332 467.48 181.079 467.997 180.947 468.767C180.837 469.537 180.782 470.824 180.782 472.628H186.095V472.133C186.095 470.505 186.029 469.328 185.897 468.602C185.765 467.876 185.523 467.403 185.171 467.183C184.841 466.941 184.313 466.82 183.587 466.82ZM191.781 482V467.084H189.834V465.17H191.781V460.286H193.959V465.17H196.368V467.084H193.959V482H191.781ZM197.769 482V480.284L203.874 467.084H197.967V465.17H206.316V466.886L200.211 480.086H206.349V482H197.769Z" fill="#CD2020"/>
<path d="M41.848 459.296V458.296H40.848V459.296H41.848ZM50.263 460.187L49.6411 460.97L49.6537 460.98L49.6667 460.99L50.263 460.187ZM51.748 463.289L50.7586 463.434L50.759 463.437L51.748 463.289ZM51.748 478.007L50.7586 477.862L50.7586 477.862L51.748 478.007ZM50.263 481.142L50.8705 481.936L50.8738 481.934L50.263 481.142ZM41.848 482H40.848V483H41.848V482ZM48.712 479.393L48.0924 478.608L48.0924 478.608L48.712 479.393ZM49.57 477.05L50.5623 477.174L49.57 477.05ZM49.57 464.246L50.5623 464.122L50.5623 464.122L49.57 464.246ZM48.712 461.903L48.0924 462.688L48.0924 462.688L48.712 461.903ZM44.125 461.408V460.408H43.125V461.408H44.125ZM44.125 479.888H43.125V480.888H44.125V479.888ZM41.848 460.296H46.501V458.296H41.848V460.296ZM46.501 460.296C48.2018 460.296 49.1669 460.594 49.6411 460.97L50.8849 459.404C49.8631 458.592 48.3202 458.296 46.501 458.296V460.296ZM49.6667 460.99C50.1286 461.333 50.5557 462.054 50.7586 463.434L52.7374 463.144C52.5003 461.532 51.9374 460.185 50.8593 459.384L49.6667 460.99ZM50.759 463.437C50.967 464.831 51.078 467.219 51.078 470.648H53.078C53.078 467.213 52.969 464.695 52.737 463.141L50.759 463.437ZM51.078 470.648C51.078 474.054 50.9671 476.444 50.7586 477.862L52.7374 478.152C52.9689 476.578 53.078 474.062 53.078 470.648H51.078ZM50.7586 477.862C50.5561 479.239 50.1283 479.983 49.6522 480.35L50.8738 481.934C51.9377 481.113 52.4999 479.767 52.7374 478.152L50.7586 477.862ZM49.6556 480.348C49.1788 480.712 48.2067 481 46.501 481V483C48.3153 483 49.8512 482.716 50.8705 481.936L49.6556 480.348ZM46.501 481H41.848V483H46.501V481ZM42.848 482V459.296H40.848V482H42.848ZM46.501 480.888C47.5951 480.888 48.6319 480.73 49.3316 480.178L48.0924 478.608C47.9561 478.716 47.5189 478.888 46.501 478.888V480.888ZM49.3316 480.178C49.7458 479.851 50.0051 479.378 50.179 478.904C50.3574 478.417 50.48 477.832 50.5623 477.174L48.5777 476.926C48.506 477.5 48.4086 477.922 48.301 478.216C48.2479 478.361 48.1974 478.46 48.1561 478.526C48.1148 478.591 48.0903 478.61 48.0924 478.608L49.3316 480.178ZM50.5623 477.174C50.7248 475.874 50.801 473.683 50.801 470.648H48.801C48.801 473.685 48.7232 475.762 48.5777 476.926L50.5623 477.174ZM50.801 470.648C50.801 467.613 50.7248 465.422 50.5623 464.122L48.5777 464.37C48.7232 465.534 48.801 467.611 48.801 470.648H50.801ZM50.5623 464.122C50.48 463.464 50.3574 462.879 50.179 462.392C50.0051 461.918 49.7458 461.445 49.3316 461.118L48.0924 462.688C48.0903 462.686 48.1148 462.705 48.1561 462.77C48.1974 462.836 48.2479 462.935 48.301 463.08C48.4086 463.374 48.506 463.796 48.5777 464.37L50.5623 464.122ZM49.3316 461.118C48.6319 460.566 47.5951 460.408 46.501 460.408V462.408C47.5189 462.408 47.9561 462.58 48.0924 462.688L49.3316 461.118ZM46.501 460.408H44.125V462.408H46.501V460.408ZM43.125 461.408V479.888H45.125V461.408H43.125ZM44.125 480.888H46.501V478.888H44.125V480.888ZM56.4069 481.571L56.9678 480.743L56.9678 480.743L56.4069 481.571ZM55.0539 479.162L54.0686 479.333L54.0702 479.342L54.0719 479.351L55.0539 479.162ZM55.0539 468.041L54.0713 467.856L54.0696 467.865L54.068 467.874L55.0539 468.041ZM56.4069 465.599L56.9678 466.427L56.9678 466.427L56.4069 465.599ZM63.0069 465.599L62.4335 466.418L62.4397 466.423L62.4461 466.427L63.0069 465.599ZM64.3269 468.041L63.341 468.208L63.3429 468.219L63.3449 468.23L64.3269 468.041ZM64.3269 479.162L63.3449 478.973L63.3432 478.982L63.3416 478.991L64.3269 479.162ZM63.0069 481.571L62.4461 480.743L62.4397 480.747L62.4335 480.752L63.0069 481.571ZM61.6209 479.888L60.9852 479.116L60.9852 479.116L61.6209 479.888ZM62.3139 478.139L61.322 478.012L61.3204 478.024L61.3191 478.037L62.3139 478.139ZM62.3139 469.064L61.3191 469.166L61.3204 469.179L61.322 469.191L62.3139 469.064ZM61.6209 467.315L60.9593 468.065L60.9721 468.076L60.9852 468.087L61.6209 467.315ZM57.7929 467.315L58.4514 468.068L58.4546 468.065L57.7929 467.315ZM57.0999 469.097L58.0918 469.224L58.0922 469.221L57.0999 469.097ZM57.0999 478.139L56.1076 478.263L56.108 478.266L57.0999 478.139ZM57.7929 479.888L57.1344 480.641L57.1457 480.65L57.1572 480.66L57.7929 479.888ZM59.7069 481.264C58.2438 481.264 57.3951 481.033 56.9678 480.743L55.8461 482.399C56.7828 483.033 58.134 483.264 59.7069 483.264V481.264ZM56.9678 480.743C56.5828 480.482 56.2268 479.966 56.0359 478.973L54.0719 479.351C54.321 480.646 54.8671 481.736 55.8461 482.399L56.9678 480.743ZM56.0393 478.991C55.857 477.938 55.7569 476.164 55.7569 473.618H53.7569C53.7569 476.176 53.8549 478.098 54.0686 479.333L56.0393 478.991ZM55.7569 473.618C55.7569 471.073 55.8569 469.286 56.0398 468.208L54.068 467.874C53.855 469.128 53.7569 471.059 53.7569 473.618H55.7569ZM56.0366 468.226C56.2291 467.206 56.5879 466.684 56.9678 466.427L55.8461 464.771C54.862 465.438 54.3188 466.544 54.0713 467.856L56.0366 468.226ZM56.9678 466.427C57.3951 466.137 58.2438 465.906 59.7069 465.906V463.906C58.134 463.906 56.7828 464.137 55.8461 464.771L56.9678 466.427ZM59.7069 465.906C61.2005 465.906 62.0365 466.14 62.4335 466.418L63.5804 464.78C62.6574 464.134 61.2934 463.906 59.7069 463.906V465.906ZM62.4461 466.427C62.819 466.68 63.1686 467.193 63.341 468.208L65.3128 467.874C65.0893 466.557 64.5589 465.442 63.5678 464.771L62.4461 466.427ZM63.3449 468.23C63.5456 469.273 63.6569 471.05 63.6569 473.618H65.6569C65.6569 471.038 65.5483 469.097 65.3089 467.852L63.3449 468.23ZM63.6569 473.618C63.6569 476.163 63.5456 477.929 63.3449 478.973L65.3089 479.351C65.5482 478.107 65.6569 476.177 65.6569 473.618H63.6569ZM63.3416 478.991C63.1706 479.979 62.8241 480.487 62.4461 480.743L63.5678 482.399C64.5538 481.731 65.0873 480.633 65.3123 479.333L63.3416 478.991ZM62.4335 480.752C62.0365 481.03 61.2005 481.264 59.7069 481.264V483.264C61.2934 483.264 62.6574 483.036 63.5804 482.39L62.4335 480.752ZM59.7069 481.35C60.6659 481.35 61.6038 481.198 62.2566 480.66L60.9852 479.116C60.8901 479.194 60.552 479.35 59.7069 479.35V481.35ZM62.2566 480.66C62.9435 480.094 63.2131 479.174 63.3087 478.241L61.3191 478.037C61.2388 478.82 61.0464 479.066 60.9852 479.116L62.2566 480.66ZM63.3058 478.266C63.4249 477.338 63.4789 475.772 63.4789 473.618H61.4789C61.4789 475.776 61.423 477.224 61.322 478.012L63.3058 478.266ZM63.4789 473.618C63.4789 471.442 63.4249 469.866 63.3058 468.937L61.322 469.191C61.423 469.978 61.4789 471.438 61.4789 473.618H63.4789ZM63.3087 468.962C63.2131 468.029 62.9435 467.109 62.2566 466.543L60.9852 468.087C61.0464 468.137 61.2388 468.383 61.3191 469.166L63.3087 468.962ZM62.2826 466.565C61.6268 465.987 60.6762 465.82 59.7069 465.82V467.82C60.5416 467.82 60.8671 467.983 60.9593 468.065L62.2826 466.565ZM59.7069 465.82C58.7376 465.82 57.7871 465.987 57.1313 466.565L58.4546 468.065C58.5468 467.983 58.8722 467.82 59.7069 467.82V465.82ZM57.1344 466.562C56.4916 467.125 56.2242 468.041 56.1077 468.973L58.0922 469.221C58.1957 468.393 58.3903 468.121 58.4514 468.068L57.1344 466.562ZM56.108 468.97C55.989 469.898 55.9349 471.464 55.9349 473.618H57.9349C57.9349 471.46 57.9909 470.012 58.0918 469.224L56.108 468.97ZM55.9349 473.618C55.9349 475.752 55.9891 477.315 56.1077 478.263L58.0922 478.015C57.9907 477.203 57.9349 475.752 57.9349 473.618H55.9349ZM56.108 478.266C56.2257 479.184 56.4961 480.082 57.1344 480.641L58.4514 479.135C58.3857 479.078 58.1941 478.81 58.0918 478.012L56.108 478.266ZM57.1572 480.66C57.8101 481.198 58.748 481.35 59.7069 481.35V479.35C58.8619 479.35 58.5238 479.194 58.4286 479.116L57.1572 480.66ZM74.1264 467.249L73.535 468.055L73.5531 468.069L73.5717 468.081L74.1264 467.249ZM70.6284 467.612L69.8544 466.979L69.8456 466.99L69.8371 467.001L70.6284 467.612ZM69.9354 469.592L70.9299 469.697L70.9299 469.697L69.9354 469.592ZM69.8034 482V483H70.8034V482H69.8034ZM67.6254 482H66.6254V483H67.6254V482ZM67.6254 465.17V464.17H66.6254V465.17H67.6254ZM69.5724 465.17L70.5708 465.113L70.5169 464.17H69.5724V465.17ZM69.7044 467.48L68.706 467.537L68.7599 468.48H69.7044V467.48ZM69.9024 467.48V468.48H70.668L70.8677 467.741L69.9024 467.48ZM71.0574 465.599L71.6821 466.38L71.6914 466.372L71.7006 466.365L71.0574 465.599ZM75.8094 465.533L75.1887 466.317L75.1989 466.325L75.2094 466.333L75.8094 465.533ZM76.8654 467.447L75.8848 467.643L75.8858 467.648L76.8654 467.447ZM77.1294 482V483H78.1294V482H77.1294ZM74.9514 482H73.9514V483H74.9514V482ZM75.9514 472.001C75.9514 470.414 75.8975 469.211 75.7736 468.443L73.7991 468.761C73.8953 469.357 73.9514 470.42 73.9514 472.001H75.9514ZM75.7736 468.443C75.6501 467.677 75.3654 466.873 74.6811 466.417L73.5717 468.081C73.5548 468.07 73.5876 468.083 73.6401 468.191C73.6943 468.302 73.7543 468.483 73.7991 468.761L75.7736 468.443ZM74.7177 466.443C74.1241 466.007 73.3167 465.886 72.5094 465.886V467.886C73.1981 467.886 73.4687 468.007 73.535 468.055L74.7177 466.443ZM72.5094 465.886C71.4694 465.886 70.5042 466.185 69.8544 466.979L71.4023 468.245C71.5446 468.071 71.8334 467.886 72.5094 467.886V465.886ZM69.8371 467.001C69.3148 467.677 69.0413 468.533 68.9409 469.487L70.9299 469.697C71.0055 468.979 71.194 468.515 71.4197 468.223L69.8371 467.001ZM68.9409 469.487C68.8472 470.378 68.8034 471.686 68.8034 473.387H70.8034C70.8034 471.7 70.8476 470.478 70.9299 469.697L68.9409 469.487ZM68.8034 473.387V482H70.8034V473.387H68.8034ZM69.8034 481H67.6254V483H69.8034V481ZM68.6254 482V465.17H66.6254V482H68.6254ZM67.6254 466.17H69.5724V464.17H67.6254V466.17ZM68.574 465.227L68.706 467.537L70.7028 467.423L70.5708 465.113L68.574 465.227ZM69.7044 468.48H69.9024V466.48H69.7044V468.48ZM70.8677 467.741C71.0435 467.091 71.3287 466.663 71.6821 466.38L70.4327 464.818C69.6861 465.415 69.2012 466.241 68.937 467.219L70.8677 467.741ZM71.7006 466.365C72.0057 466.108 72.5334 465.906 73.4334 465.906V463.906C72.2654 463.906 71.2091 464.166 70.4142 464.833L71.7006 466.365ZM73.4334 465.906C74.3844 465.906 74.9129 466.099 75.1887 466.317L76.4301 464.749C75.6499 464.131 74.5944 463.906 73.4334 463.906V465.906ZM75.2094 466.333C75.4792 466.535 75.7395 466.917 75.8848 467.643L77.846 467.251C77.6392 466.217 77.1956 465.323 76.4094 464.733L75.2094 466.333ZM75.8858 467.648C76.0412 468.406 76.1294 469.569 76.1294 471.176H78.1294C78.1294 469.527 78.0415 468.204 77.845 467.246L75.8858 467.648ZM76.1294 471.176V482H78.1294V471.176H76.1294ZM77.1294 481H74.9514V483H77.1294V481ZM75.9514 482V472.001H73.9514V482H75.9514ZM87.3831 482L86.4644 482.395L86.7245 483H87.3831V482ZM84.1491 474.476L85.0678 474.081L84.8077 473.476H84.1491V474.476ZM82.5651 474.476V473.476H81.5651V474.476H82.5651ZM82.5651 482V483H83.5651V482H82.5651ZM80.3871 482H79.3871V483H80.3871V482ZM80.3871 457.481V456.481H79.3871V457.481H80.3871ZM82.5651 457.481H83.5651V456.481H82.5651V457.481ZM82.5651 472.529H81.5651V473.529H82.5651V472.529ZM84.1491 472.529V473.529H84.8046L85.0661 472.928L84.1491 472.529ZM87.3501 465.17V464.17H86.6946L86.4331 464.771L87.3501 465.17ZM89.5941 465.17L90.507 465.578L91.1367 464.17H89.5941V465.17ZM85.9641 473.288L85.0512 472.88L84.8718 473.281L85.046 473.684L85.9641 473.288ZM89.7261 482V483H91.2472L90.6442 481.604L89.7261 482ZM88.3018 481.605L85.0678 474.081L83.2304 474.871L86.4644 482.395L88.3018 481.605ZM84.1491 473.476H82.5651V475.476H84.1491V473.476ZM81.5651 474.476V482H83.5651V474.476H81.5651ZM82.5651 481H80.3871V483H82.5651V481ZM81.3871 482V457.481H79.3871V482H81.3871ZM80.3871 458.481H82.5651V456.481H80.3871V458.481ZM81.5651 457.481V472.529H83.5651V457.481H81.5651ZM82.5651 473.529H84.1491V471.529H82.5651V473.529ZM85.0661 472.928L88.2671 465.569L86.4331 464.771L83.2321 472.13L85.0661 472.928ZM87.3501 466.17H89.5941V464.17H87.3501V466.17ZM88.6812 464.762L85.0512 472.88L86.877 473.696L90.507 465.578L88.6812 464.762ZM85.046 473.684L88.808 482.396L90.6442 481.604L86.8822 472.892L85.046 473.684ZM89.7261 481H87.3831V483H89.7261V481ZM100.646 474.278V475.278H101.646V474.278H100.646ZM93.2543 474.278V473.278H92.2543V474.278H93.2543ZM93.4523 478.238L92.4652 478.398L92.4677 478.414L92.4707 478.429L93.4523 478.238ZM94.3433 479.888L93.7698 480.707L93.7791 480.714L93.7886 480.72L94.3433 479.888ZM98.4683 480.251L98.5616 481.247L98.4683 480.251ZM100.283 480.02H101.283V478.831L100.112 479.035L100.283 480.02ZM100.283 481.835L100.515 482.808L101.283 482.625V481.835H100.283ZM92.8253 481.505L92.2253 482.305L92.2392 482.315L92.2535 482.325L92.8253 481.505ZM91.4063 478.964L90.423 479.146L90.4249 479.157L90.4271 479.167L91.4063 478.964ZM91.3403 468.272L90.3549 468.101L90.3533 468.111L90.3519 468.12L91.3403 468.272ZM92.6933 465.731L92.0776 464.943L92.0776 464.943L92.6933 465.731ZM99.1943 465.698L98.5567 466.468L98.5647 466.475L98.5729 466.481L99.1943 465.698ZM100.382 468.14L99.3916 468.276L99.3929 468.285L99.3943 468.295L100.382 468.14ZM94.1783 467.216L93.6016 466.399L93.6016 466.399L94.1783 467.216ZM93.4193 468.767L92.4336 468.598L92.4313 468.612L92.4293 468.626L93.4193 468.767ZM93.2543 472.628H92.2543V473.628H93.2543V472.628ZM98.5673 472.628V473.628H99.5673V472.628H98.5673ZM98.3693 468.602L97.3854 468.781L97.3854 468.781L98.3693 468.602ZM97.6433 467.183L97.0519 467.989L97.0818 468.011L97.1133 468.031L97.6433 467.183ZM100.646 473.278H93.2543V475.278H100.646V473.278ZM92.2543 474.278C92.2543 476.109 92.3193 477.499 92.4652 478.398L94.4394 478.078C94.3212 477.349 94.2543 476.099 94.2543 474.278H92.2543ZM92.4707 478.429C92.6497 479.35 93.0318 480.191 93.7698 480.707L94.9167 479.069C94.7748 478.969 94.5628 478.71 94.4339 478.047L92.4707 478.429ZM93.7886 480.72C94.5043 481.197 95.5014 481.35 96.5873 481.35V479.35C95.6051 479.35 95.1062 479.195 94.898 479.056L93.7886 480.72ZM96.5873 481.35C97.1757 481.35 97.8348 481.315 98.5616 481.247L98.3749 479.255C97.6937 479.319 97.0988 479.35 96.5873 479.35V481.35ZM98.5616 481.247C99.2828 481.179 99.9152 481.099 100.455 481.005L100.112 479.035C99.6393 479.117 99.0617 479.191 98.3749 479.255L98.5616 481.247ZM99.2833 480.02V481.835H101.283V480.02H99.2833ZM100.052 480.862C99.645 480.959 99.0734 481.053 98.3217 481.138L98.5488 483.126C99.3371 483.035 99.9975 482.931 100.515 482.808L100.052 480.862ZM98.3217 481.138C97.5869 481.222 96.8769 481.264 96.1913 481.264V483.264C96.9577 483.264 97.7436 483.218 98.5488 483.126L98.3217 481.138ZM96.1913 481.264C94.7473 481.264 93.8732 481.016 93.3971 480.685L92.2535 482.325C93.2293 483.006 94.5992 483.264 96.1913 483.264V481.264ZM93.4253 480.705C92.9758 480.368 92.5955 479.773 92.3854 478.761L90.4271 479.167C90.701 480.487 91.2667 481.586 92.2253 482.305L93.4253 480.705ZM92.3895 478.782C92.1868 477.687 92.0763 475.979 92.0763 473.618H90.0763C90.0763 476.009 90.1858 477.865 90.423 479.146L92.3895 478.782ZM92.0763 473.618C92.0763 471.206 92.1649 469.488 92.3286 468.424L90.3519 468.12C90.1636 469.344 90.0763 471.19 90.0763 473.618H92.0763ZM92.3256 468.443C92.4943 467.468 92.8533 466.875 93.3089 466.519L92.0776 464.943C91.1252 465.687 90.5822 466.788 90.3549 468.101L92.3256 468.443ZM93.3089 466.519C93.7474 466.176 94.6039 465.906 96.0923 465.906V463.906C94.4567 463.906 93.0471 464.186 92.0776 464.943L93.3089 466.519ZM96.0923 465.906C97.4429 465.906 98.1885 466.164 98.5567 466.468L99.8318 464.928C98.9241 464.176 97.6016 463.906 96.0923 463.906V465.906ZM98.5729 466.481C98.9412 466.774 99.2588 467.308 99.3916 468.276L101.373 468.004C101.198 466.728 100.723 465.634 99.8157 464.915L98.5729 466.481ZM99.3943 468.295C99.5574 469.334 99.6463 471.082 99.6463 473.585H101.646C101.646 471.072 101.559 469.19 101.37 467.985L99.3943 468.295ZM99.6463 473.585V474.278H101.646V473.585H99.6463ZM96.0593 465.82C95.1341 465.82 94.2403 465.948 93.6016 466.399L94.7549 468.033C94.8643 467.956 95.2244 467.82 96.0593 467.82V465.82ZM93.6016 466.399C92.9002 466.894 92.5808 467.739 92.4336 468.598L94.4049 468.936C94.5217 468.255 94.7083 468.066 94.7549 468.033L93.6016 466.399ZM92.4293 468.626C92.3083 469.472 92.2543 470.822 92.2543 472.628H94.2543C94.2543 470.826 94.3102 469.602 94.4092 468.908L92.4293 468.626ZM93.2543 473.628H98.5673V471.628H93.2543V473.628ZM99.5673 472.628V472.133H97.5673V472.628H99.5673ZM99.5673 472.133C99.5673 470.499 99.5025 469.244 99.3531 468.423L97.3854 468.781C97.5001 469.412 97.5673 470.511 97.5673 472.133H99.5673ZM99.3531 468.423C99.2073 467.621 98.8946 466.786 98.1733 466.335L97.1133 468.031C97.0986 468.022 97.1372 468.038 97.1985 468.158C97.2614 468.281 97.3306 468.48 97.3854 468.781L99.3531 468.423ZM98.2346 466.377C97.6445 465.944 96.8526 465.82 96.0593 465.82V467.82C96.718 467.82 96.982 467.938 97.0519 467.989L98.2346 466.377ZM103.854 488.402H102.854V489.318L103.767 489.398L103.854 488.402ZM103.854 486.554L103.931 485.557L102.854 485.474V486.554H103.854ZM109.629 486.059L109.035 485.255L109.024 485.263L109.013 485.271L109.629 486.059ZM110.586 484.277L109.604 484.091L109.601 484.104L109.599 484.117L110.586 484.277ZM110.817 479.756H111.817V478.756H110.817V479.756ZM110.652 479.756V478.756H109.904L109.693 479.474L110.652 479.756ZM109.497 481.505L108.892 480.709L108.884 480.715L108.877 480.721L109.497 481.505ZM104.778 481.538L104.141 482.309L104.159 482.324L104.178 482.338L104.778 481.538ZM103.755 479.624L102.775 479.82L102.776 479.825L103.755 479.624ZM103.491 465.17V464.17H102.491V465.17H103.491ZM105.669 465.17H106.669V464.17H105.669V465.17ZM105.834 478.436L104.846 478.59L104.849 478.608L104.852 478.626L105.834 478.436ZM106.494 479.822L105.876 480.608L105.907 480.632L105.94 480.654L106.494 479.822ZM109.959 479.426L109.185 478.793L109.176 478.804L109.168 478.815L109.959 479.426ZM110.685 477.446L109.691 477.341L109.691 477.341L110.685 477.446ZM110.817 465.17V464.17H109.817V465.17H110.817ZM112.995 465.17H113.995V464.17H112.995V465.17ZM112.599 484.97L111.622 484.757L111.62 484.767L111.618 484.777L112.599 484.97ZM111.114 487.676L110.507 486.882L110.5 486.887L110.492 486.893L111.114 487.676ZM107.649 487.567C106.402 487.567 105.166 487.513 103.942 487.406L103.767 489.398C105.05 489.511 106.344 489.567 107.649 489.567V487.567ZM104.854 488.402V486.554H102.854V488.402H104.854ZM103.778 487.551C104.672 487.62 105.833 487.653 107.253 487.653V485.653C105.857 485.653 104.753 485.62 103.931 485.557L103.778 487.551ZM107.253 487.653C108.417 487.653 109.479 487.446 110.246 486.847L109.013 485.271C108.767 485.464 108.246 485.653 107.253 485.653V487.653ZM110.224 486.863C110.999 486.29 111.413 485.426 111.573 484.437L109.599 484.117C109.495 484.756 109.272 485.08 109.035 485.255L110.224 486.863ZM111.569 484.463C111.741 483.553 111.817 482.221 111.817 480.515H109.817C109.817 482.197 109.739 483.373 109.604 484.091L111.569 484.463ZM111.817 480.515V479.756H109.817V480.515H111.817ZM110.817 478.756H110.652V480.756H110.817V478.756ZM109.693 479.474C109.525 480.045 109.251 480.436 108.892 480.709L110.102 482.301C110.844 481.738 111.339 480.963 111.612 480.038L109.693 479.474ZM108.877 480.721C108.601 480.939 108.072 481.132 107.121 481.132V483.132C108.282 483.132 109.338 482.907 110.118 482.289L108.877 480.721ZM107.121 481.132C106.189 481.132 105.66 480.949 105.378 480.738L104.178 482.338C104.953 482.919 105.985 483.132 107.121 483.132V481.132ZM105.415 480.767C105.136 480.537 104.88 480.132 104.735 479.423L102.776 479.825C102.982 480.832 103.408 481.703 104.141 482.309L105.415 480.767ZM104.736 479.428C104.579 478.645 104.491 477.468 104.491 475.862H102.491C102.491 477.512 102.579 478.843 102.775 479.82L104.736 479.428ZM104.491 475.862V465.17H102.491V475.862H104.491ZM103.491 466.17H105.669V464.17H103.491V466.17ZM104.669 465.17V475.037H106.669V465.17H104.669ZM104.669 475.037C104.669 476.605 104.723 477.804 104.846 478.59L106.822 478.282C106.725 477.66 106.669 476.593 106.669 475.037H104.669ZM104.852 478.626C104.998 479.38 105.28 480.14 105.876 480.608L107.112 479.036C107.093 479.02 106.934 478.856 106.816 478.246L104.852 478.626ZM105.94 480.654C106.525 481.044 107.314 481.152 108.111 481.152V479.152C107.412 479.152 107.124 479.04 107.049 478.99L105.94 480.654ZM108.111 481.152C109.147 481.152 110.119 480.855 110.751 480.037L109.168 478.815C109.052 478.965 108.792 479.152 108.111 479.152V481.152ZM110.733 480.059C111.288 479.381 111.578 478.515 111.68 477.551L109.691 477.341C109.616 478.049 109.422 478.503 109.185 478.793L110.733 480.059ZM111.68 477.551C111.773 476.66 111.817 475.352 111.817 473.651H109.817C109.817 475.338 109.773 476.56 109.691 477.341L111.68 477.551ZM111.817 473.651V465.17H109.817V473.651H111.817ZM110.817 466.17H112.995V464.17H110.817V466.17ZM111.995 465.17V479.657H113.995V465.17H111.995ZM111.995 479.657C111.995 481.968 111.863 483.653 111.622 484.757L113.576 485.183C113.864 483.867 113.995 482.01 113.995 479.657H111.995ZM111.618 484.777C111.407 485.851 111.004 486.501 110.507 486.882L111.722 488.47C112.72 487.707 113.307 486.553 113.58 485.163L111.618 484.777ZM110.492 486.893C110.003 487.282 109.118 487.567 107.649 487.567V489.567C109.305 489.567 110.73 489.258 111.736 488.459L110.492 486.893ZM124.866 482L123.93 482.352L124.174 483H124.866V482ZM120.939 471.572L121.875 471.22L121.631 470.572H120.939V471.572ZM118.827 471.572V470.572H117.827V471.572H118.827ZM118.827 482V483H119.827V482H118.827ZM116.517 482H115.517V483H116.517V482ZM116.517 459.296V458.296H115.517V459.296H116.517ZM118.827 459.296H119.827V458.296H118.827V459.296ZM118.827 469.394H117.827V470.394H118.827V469.394ZM120.939 469.394V470.394H121.623L121.871 469.756L120.939 469.394ZM124.866 459.296V458.296H124.182L123.934 458.934L124.866 459.296ZM127.242 459.296L128.17 459.669L128.721 458.296H127.242V459.296ZM122.787 470.384L121.859 470.011L121.712 470.377L121.854 470.744L122.787 470.384ZM127.275 482V483H128.733L128.208 481.64L127.275 482ZM125.802 481.648L121.875 471.22L120.003 471.924L123.93 482.352L125.802 481.648ZM120.939 470.572H118.827V472.572H120.939V470.572ZM117.827 471.572V482H119.827V471.572H117.827ZM118.827 481H116.517V483H118.827V481ZM117.517 482V459.296H115.517V482H117.517ZM116.517 460.296H118.827V458.296H116.517V460.296ZM117.827 459.296V469.394H119.827V459.296H117.827ZM118.827 470.394H120.939V468.394H118.827V470.394ZM121.871 469.756L125.798 459.658L123.934 458.934L120.007 469.032L121.871 469.756ZM124.866 460.296H127.242V458.296H124.866V460.296ZM126.314 458.923L121.859 470.011L123.715 470.757L128.17 459.669L126.314 458.923ZM121.854 470.744L126.342 482.36L128.208 481.64L123.72 470.024L121.854 470.744ZM127.275 481H124.866V483H127.275V481ZM129.306 460.154H128.306V461.154H129.306V460.154ZM129.306 457.481V456.481H128.306V457.481H129.306ZM131.583 457.481H132.583V456.481H131.583V457.481ZM131.583 460.154V461.154H132.583V460.154H131.583ZM129.339 482H128.339V483H129.339V482ZM129.339 465.17V464.17H128.339V465.17H129.339ZM131.517 465.17H132.517V464.17H131.517V465.17ZM131.517 482V483H132.517V482H131.517ZM130.306 460.154V457.481H128.306V460.154H130.306ZM129.306 458.481H131.583V456.481H129.306V458.481ZM130.583 457.481V460.154H132.583V457.481H130.583ZM131.583 459.154H129.306V461.154H131.583V459.154ZM130.339 482V465.17H128.339V482H130.339ZM129.339 466.17H131.517V464.17H129.339V466.17ZM130.517 465.17V482H132.517V465.17H130.517ZM131.517 481H129.339V483H131.517V481ZM141.415 467.249L140.824 468.055L140.842 468.069L140.861 468.081L141.415 467.249ZM137.917 467.612L137.143 466.979L137.135 466.99L137.126 467.001L137.917 467.612ZM137.224 469.592L138.219 469.697L138.219 469.697L137.224 469.592ZM137.092 482V483H138.092V482H137.092ZM134.914 482H133.914V483H134.914V482ZM134.914 465.17V464.17H133.914V465.17H134.914ZM136.861 465.17L137.86 465.113L137.806 464.17H136.861V465.17ZM136.993 467.48L135.995 467.537L136.049 468.48H136.993V467.48ZM137.191 467.48V468.48H137.957L138.157 467.741L137.191 467.48ZM138.346 465.599L138.971 466.38L138.98 466.372L138.99 466.365L138.346 465.599ZM143.098 465.533L142.478 466.317L142.488 466.325L142.498 466.333L143.098 465.533ZM144.154 467.447L143.174 467.643L143.175 467.648L144.154 467.447ZM144.418 482V483H145.418V482H144.418ZM142.24 482H141.24V483H142.24V482ZM143.24 472.001C143.24 470.414 143.187 469.211 143.063 468.443L141.088 468.761C141.184 469.357 141.24 470.42 141.24 472.001H143.24ZM143.063 468.443C142.939 467.677 142.654 466.873 141.97 466.417L140.861 468.081C140.844 468.07 140.877 468.083 140.929 468.191C140.983 468.302 141.043 468.483 141.088 468.761L143.063 468.443ZM142.007 466.443C141.413 466.007 140.606 465.886 139.798 465.886V467.886C140.487 467.886 140.758 468.007 140.824 468.055L142.007 466.443ZM139.798 465.886C138.758 465.886 137.793 466.185 137.143 466.979L138.691 468.245C138.834 468.071 139.122 467.886 139.798 467.886V465.886ZM137.126 467.001C136.604 467.677 136.33 468.533 136.23 469.487L138.219 469.697C138.295 468.979 138.483 468.515 138.709 468.223L137.126 467.001ZM136.23 469.487C136.136 470.378 136.092 471.686 136.092 473.387H138.092C138.092 471.7 138.137 470.478 138.219 469.697L136.23 469.487ZM136.092 473.387V482H138.092V473.387H136.092ZM137.092 481H134.914V483H137.092V481ZM135.914 482V465.17H133.914V482H135.914ZM134.914 466.17H136.861V464.17H134.914V466.17ZM135.863 465.227L135.995 467.537L137.992 467.423L137.86 465.113L135.863 465.227ZM136.993 468.48H137.191V466.48H136.993V468.48ZM138.157 467.741C138.333 467.091 138.618 466.663 138.971 466.38L137.722 464.818C136.975 465.415 136.49 466.241 136.226 467.219L138.157 467.741ZM138.99 466.365C139.295 466.108 139.822 465.906 140.722 465.906V463.906C139.554 463.906 138.498 464.166 137.703 464.833L138.99 466.365ZM140.722 465.906C141.673 465.906 142.202 466.099 142.478 466.317L143.719 464.749C142.939 464.131 141.883 463.906 140.722 463.906V465.906ZM142.498 466.333C142.768 466.535 143.029 466.917 143.174 467.643L145.135 467.251C144.928 466.217 144.485 465.323 143.698 464.733L142.498 466.333ZM143.175 467.648C143.33 468.406 143.418 469.569 143.418 471.176H145.418C145.418 469.527 145.331 468.204 145.134 467.246L143.175 467.648ZM143.418 471.176V482H145.418V471.176H143.418ZM144.418 481H142.24V483H144.418V481ZM143.24 482V472.001H141.24V482H143.24ZM147.709 488.402H146.709V489.325L147.629 489.399L147.709 488.402ZM147.709 486.587L147.745 485.588L146.709 485.551V486.587H147.709ZM153.649 486.158L153.103 485.32L153.09 485.329L153.078 485.337L153.649 486.158ZM154.639 484.409L155.623 484.59L154.639 484.409ZM154.87 479.822H155.87V478.822H154.87V479.822ZM154.705 479.822V478.822H153.945L153.742 479.554L154.705 479.822ZM153.583 481.571L153.005 480.755L153.005 480.755L153.583 481.571ZM148.765 481.406L148.119 482.169L148.126 482.175L148.133 482.181L148.765 481.406ZM147.577 478.898L146.593 479.077L146.594 479.08L147.577 478.898ZM147.577 468.14L146.597 467.944L146.595 467.951L146.594 467.958L147.577 468.14ZM148.798 465.632L149.427 466.41L149.43 466.407L148.798 465.632ZM153.583 465.467L153.05 466.313L153.062 466.32L153.073 466.327L153.583 465.467ZM154.804 467.48L153.828 467.697L154.002 468.48H154.804V467.48ZM154.969 467.48V468.48H155.914L155.968 467.537L154.969 467.48ZM155.101 465.17V464.17H154.157L154.103 465.113L155.101 465.17ZM157.048 465.17H158.048V464.17H157.048V465.17ZM156.685 485.003L155.704 484.81L155.704 484.81L156.685 485.003ZM155.167 487.709L154.571 486.906L154.56 486.915L155.167 487.709ZM153.781 479.69L154.417 480.462L154.421 480.458L153.781 479.69ZM154.606 478.04L153.627 477.839L153.626 477.844L154.606 478.04ZM154.672 469.262L155.659 469.098L155.657 469.09L154.672 469.262ZM153.847 467.414L153.183 468.161L153.183 468.161L153.847 467.414ZM150.349 467.315L149.742 466.521L149.73 466.53L149.719 466.539L150.349 467.315ZM149.623 469.097L150.612 469.245L150.613 469.242L149.623 469.097ZM149.623 477.974L148.634 478.119L148.634 478.122L149.623 477.974ZM150.349 479.723L149.719 480.499L149.73 480.508L149.742 480.517L150.349 479.723ZM151.603 487.567C150.401 487.567 149.13 487.513 147.79 487.405L147.629 489.399C149.017 489.511 150.342 489.567 151.603 489.567V487.567ZM148.709 488.402V486.587H146.709V488.402H148.709ZM147.673 487.586C149.515 487.652 150.701 487.686 151.207 487.686V485.686C150.745 485.686 149.599 485.654 147.745 485.588L147.673 487.586ZM151.207 487.686C152.388 487.686 153.458 487.509 154.22 486.979L153.078 485.337C152.829 485.511 152.27 485.686 151.207 485.686V487.686ZM154.195 486.996C155.011 486.463 155.44 485.584 155.623 484.59L153.656 484.228C153.531 484.906 153.299 485.193 153.103 485.32L154.195 486.996ZM155.623 484.59C155.794 483.659 155.87 482.25 155.87 480.416H153.87C153.87 482.234 153.792 483.487 153.656 484.228L155.623 484.59ZM155.87 480.416V479.822H153.87V480.416H155.87ZM154.87 478.822H154.705V480.822H154.87V478.822ZM153.742 479.554C153.566 480.186 153.299 480.547 153.005 480.755L154.161 482.387C154.923 481.847 155.404 481.042 155.669 480.09L153.742 479.554ZM153.005 480.755C152.704 480.968 152.207 481.132 151.405 481.132V483.132C152.451 483.132 153.406 482.922 154.161 482.387L153.005 480.755ZM151.405 481.132C150.355 481.132 149.74 480.911 149.397 480.631L148.133 482.181C148.978 482.869 150.124 483.132 151.405 483.132V481.132ZM149.411 480.643C149.095 480.375 148.762 479.807 148.56 478.716L146.594 479.08C146.832 480.365 147.292 481.469 148.119 482.169L149.411 480.643ZM148.561 478.719C148.358 477.6 148.247 475.879 148.247 473.519H146.247C146.247 475.911 146.357 477.776 146.593 479.077L148.561 478.719ZM148.247 473.519C148.247 471.135 148.358 469.417 148.56 468.322L146.594 467.958C146.357 469.239 146.247 471.107 146.247 473.519H148.247ZM148.558 468.336C148.782 467.212 149.124 466.654 149.427 466.41L148.17 464.854C147.328 465.534 146.856 466.648 146.597 467.944L148.558 468.336ZM149.43 466.407C149.773 466.127 150.388 465.906 151.438 465.906V463.906C150.157 463.906 149.011 464.169 148.166 464.857L149.43 466.407ZM151.438 465.906C152.122 465.906 152.644 466.057 153.05 466.313L154.116 464.621C153.334 464.129 152.426 463.906 151.438 463.906V465.906ZM153.073 466.327C153.337 466.484 153.64 466.849 153.828 467.697L155.78 467.263C155.529 466.131 155.017 465.154 154.093 464.607L153.073 466.327ZM154.804 468.48H154.969V466.48H154.804V468.48ZM155.968 467.537L156.1 465.227L154.103 465.113L153.971 467.423L155.968 467.537ZM155.101 466.17H157.048V464.17H155.101V466.17ZM156.048 465.17V479.525H158.048V465.17H156.048ZM156.048 479.525C156.048 481.928 155.927 483.676 155.704 484.81L157.666 485.196C157.928 483.866 158.048 481.962 158.048 479.525H156.048ZM155.704 484.81C155.495 485.875 155.086 486.524 154.571 486.906L155.763 488.512C156.789 487.75 157.392 486.595 157.666 485.196L155.704 484.81ZM154.56 486.915C154.073 487.287 153.155 487.567 151.603 487.567V489.567C153.307 489.567 154.765 489.275 155.775 488.503L154.56 486.915ZM152.164 481.152C152.998 481.152 153.798 480.971 154.417 480.462L153.145 478.918C153.016 479.025 152.739 479.152 152.164 479.152V481.152ZM154.421 480.458C155.064 479.923 155.41 479.118 155.587 478.236L153.626 477.844C153.494 478.502 153.29 478.797 153.141 478.922L154.421 480.458ZM155.586 478.241C155.784 477.272 155.87 475.673 155.87 473.519H153.87C153.87 475.677 153.78 477.092 153.627 477.839L155.586 478.241ZM155.87 473.519C155.87 471.477 155.806 469.981 155.659 469.098L153.686 469.426C153.803 470.127 153.87 471.469 153.87 473.519H155.87ZM155.657 469.09C155.489 468.126 155.158 467.241 154.512 466.667L153.183 468.161C153.328 468.291 153.548 468.638 153.687 469.434L155.657 469.09ZM154.512 466.667C153.874 466.1 153.044 465.886 152.164 465.886V467.886C152.736 467.886 153.028 468.024 153.183 468.161L154.512 466.667ZM152.164 465.886C151.26 465.886 150.381 466.032 149.742 466.521L150.957 468.109C151.066 468.026 151.397 467.886 152.164 467.886V465.886ZM149.719 466.539C149.052 467.08 148.771 468.016 148.634 468.952L150.613 469.242C150.74 468.374 150.942 468.122 150.98 468.091L149.719 466.539ZM148.634 468.949C148.49 469.909 148.425 471.449 148.425 473.519H150.425C150.425 471.453 150.492 470.045 150.612 469.245L148.634 468.949ZM148.425 473.519C148.425 475.59 148.49 477.139 148.634 478.119L150.613 477.829C150.492 477.005 150.425 475.584 150.425 473.519H148.425ZM148.634 478.122C148.772 479.044 149.057 479.961 149.719 480.499L150.98 478.947C150.938 478.913 150.738 478.664 150.612 477.826L148.634 478.122ZM149.742 480.517C150.381 481.006 151.26 481.152 152.164 481.152V479.152C151.397 479.152 151.066 479.012 150.957 478.929L149.742 480.517ZM160.438 482H159.438V483H160.438V482ZM160.438 479.129V478.129H159.438V479.129H160.438ZM162.946 479.129H163.946V478.129H162.946V479.129ZM162.946 482V483H163.946V482H162.946ZM161.438 482V479.129H159.438V482H161.438ZM160.438 480.129H162.946V478.129H160.438V480.129ZM161.946 479.129V482H163.946V479.129H161.946ZM162.946 481H160.438V483H162.946V481ZM169.768 481.736L169.221 482.573L169.239 482.585L169.258 482.596L169.768 481.736ZM168.58 479.69L169.556 479.473L169.382 478.69H168.58V479.69ZM168.382 479.69V478.69H167.438L167.384 479.633L168.382 479.69ZM168.25 482V483H169.195L169.248 482.057L168.25 482ZM166.303 482H165.303V483H166.303V482ZM166.303 457.481V456.481H165.303V457.481H166.303ZM168.481 457.481H169.481V456.481H168.481V457.481ZM168.481 467.216H167.481V468.216H168.481V467.216ZM168.679 467.216V468.216H169.445L169.644 467.477L168.679 467.216ZM169.801 465.467L170.356 466.299L170.368 466.291L170.379 466.283L169.801 465.467ZM174.586 465.665L173.924 466.414L173.932 466.421L173.94 466.428L174.586 465.665ZM175.774 468.206L174.79 468.385L174.791 468.388L175.774 468.206ZM175.741 479.03L174.761 478.834L174.759 478.842L174.757 478.851L175.741 479.03ZM174.52 481.571L175.148 482.349L175.152 482.346L174.52 481.571ZM173.002 479.855L172.395 479.061L172.383 479.07L172.372 479.079L173.002 479.855ZM173.728 478.073L172.739 477.928L172.737 477.94L172.735 477.952L173.728 478.073ZM173.728 469.097L172.735 469.218L172.737 469.23L172.739 469.242L173.728 469.097ZM173.002 467.315L172.372 468.091L172.383 468.1L172.395 468.109L173.002 467.315ZM169.603 467.348L168.989 466.559L168.989 466.559L169.603 467.348ZM168.778 468.866L167.801 468.652L167.798 468.667L167.795 468.682L168.778 468.866ZM168.745 478.205L167.763 478.392L167.764 478.399L167.766 478.407L168.745 478.205ZM169.57 479.822L168.93 480.59L168.943 480.601L168.956 480.611L169.57 479.822ZM171.913 481.264C171.219 481.264 170.688 481.119 170.278 480.876L169.258 482.596C170.036 483.057 170.936 483.264 171.913 483.264V481.264ZM170.315 480.899C170.048 480.724 169.747 480.33 169.556 479.473L167.604 479.907C167.853 481.03 168.344 482 169.221 482.573L170.315 480.899ZM168.58 478.69H168.382V480.69H168.58V478.69ZM167.384 479.633L167.252 481.943L169.248 482.057L169.38 479.747L167.384 479.633ZM168.25 481H166.303V483H168.25V481ZM167.303 482V457.481H165.303V482H167.303ZM166.303 458.481H168.481V456.481H166.303V458.481ZM167.481 457.481V467.216H169.481V457.481H167.481ZM168.481 468.216H168.679V466.216H168.481V468.216ZM169.644 467.477C169.822 466.819 170.088 466.478 170.356 466.299L169.246 464.635C168.459 465.16 167.976 465.985 167.714 466.955L169.644 467.477ZM170.379 466.283C170.683 466.068 171.172 465.906 171.946 465.906V463.906C170.916 463.906 169.975 464.118 169.223 464.651L170.379 466.283ZM171.946 465.906C173.02 465.906 173.613 466.139 173.924 466.414L175.249 464.916C174.416 464.179 173.248 463.906 171.946 463.906V465.906ZM173.94 466.428C174.253 466.693 174.587 467.267 174.79 468.385L176.758 468.027C176.521 466.725 176.063 465.605 175.232 464.902L173.94 466.428ZM174.791 468.388C174.994 469.483 175.104 471.201 175.104 473.585H177.104C177.104 471.173 176.995 469.305 176.757 468.024L174.791 468.388ZM175.104 473.585C175.104 475.989 174.983 477.724 174.761 478.834L176.722 479.226C176.984 477.916 177.104 476.021 177.104 473.585H175.104ZM174.757 478.851C174.556 479.96 174.215 480.53 173.888 480.796L175.152 482.346C176.014 481.644 176.487 480.52 176.725 479.209L174.757 478.851ZM173.892 480.793C173.576 481.048 172.976 481.264 171.913 481.264V483.264C173.182 483.264 174.321 483.018 175.148 482.349L173.892 480.793ZM171.22 481.284C172.116 481.284 173.004 481.142 173.633 480.631L172.372 479.079C172.296 479.14 171.997 479.284 171.22 479.284V481.284ZM173.61 480.649C174.325 480.102 174.605 479.143 174.721 478.194L172.735 477.952C172.631 478.807 172.427 479.036 172.395 479.061L173.61 480.649ZM174.718 478.218C174.861 477.237 174.926 475.678 174.926 473.585H172.926C172.926 475.672 172.859 477.105 172.739 477.928L174.718 478.218ZM174.926 473.585C174.926 471.492 174.861 469.933 174.718 468.952L172.739 469.242C172.859 470.065 172.926 471.498 172.926 473.585H174.926ZM174.721 468.976C174.605 468.027 174.325 467.068 173.61 466.521L172.395 468.109C172.427 468.134 172.631 468.363 172.735 469.218L174.721 468.976ZM173.633 466.539C173.004 466.028 172.116 465.886 171.22 465.886V467.886C171.997 467.886 172.296 468.03 172.372 468.091L173.633 466.539ZM171.22 465.886C170.395 465.886 169.614 466.072 168.989 466.559L170.217 468.137C170.384 468.008 170.681 467.886 171.22 467.886V465.886ZM168.989 466.559C168.343 467.061 167.984 467.818 167.801 468.652L169.755 469.08C169.88 468.506 170.072 468.251 170.217 468.137L168.989 466.559ZM167.795 468.682C167.58 469.831 167.481 471.48 167.481 473.585H169.481C169.481 471.51 169.581 470.013 169.761 469.05L167.795 468.682ZM167.481 473.585C167.481 475.744 167.568 477.367 167.763 478.392L169.727 478.018C169.571 477.195 169.481 475.738 169.481 473.585H167.481ZM167.766 478.407C167.944 479.274 168.294 480.06 168.93 480.59L170.21 479.054C170.055 478.924 169.854 478.632 169.725 478.003L167.766 478.407ZM168.956 480.611C169.586 481.101 170.382 481.284 171.22 481.284V479.284C170.651 479.284 170.346 479.159 170.184 479.033L168.956 480.611ZM188.174 474.278V475.278H189.174V474.278H188.174ZM180.782 474.278V473.278H179.782V474.278H180.782ZM180.98 478.238L179.993 478.398L179.995 478.414L179.998 478.429L180.98 478.238ZM181.871 479.888L181.297 480.707L181.306 480.714L181.316 480.72L181.871 479.888ZM185.996 480.251L186.089 481.247L185.996 480.251ZM187.811 480.02H188.811V478.831L187.639 479.035L187.811 480.02ZM187.811 481.835L188.042 482.808L188.811 482.625V481.835H187.811ZM180.353 481.505L179.753 482.305L179.767 482.315L179.781 482.325L180.353 481.505ZM178.934 478.964L177.95 479.146L177.952 479.157L177.954 479.167L178.934 478.964ZM178.868 468.272L177.882 468.101L177.881 468.111L177.879 468.12L178.868 468.272ZM180.221 465.731L179.605 464.943L179.605 464.943L180.221 465.731ZM186.722 465.698L186.084 466.468L186.092 466.475L186.1 466.481L186.722 465.698ZM187.91 468.14L186.919 468.276L186.92 468.285L186.922 468.295L187.91 468.14ZM181.706 467.216L181.129 466.399L181.129 466.399L181.706 467.216ZM180.947 468.767L179.961 468.598L179.959 468.612L179.957 468.626L180.947 468.767ZM180.782 472.628H179.782V473.628H180.782V472.628ZM186.095 472.628V473.628H187.095V472.628H186.095ZM185.897 468.602L184.913 468.781L184.913 468.781L185.897 468.602ZM185.171 467.183L184.579 467.989L184.609 468.011L184.641 468.031L185.171 467.183ZM188.174 473.278H180.782V475.278H188.174V473.278ZM179.782 474.278C179.782 476.109 179.847 477.499 179.993 478.398L181.967 478.078C181.849 477.349 181.782 476.099 181.782 474.278H179.782ZM179.998 478.429C180.177 479.35 180.559 480.191 181.297 480.707L182.444 479.069C182.302 478.969 182.09 478.71 181.961 478.047L179.998 478.429ZM181.316 480.72C182.032 481.197 183.029 481.35 184.115 481.35V479.35C183.132 479.35 182.634 479.195 182.425 479.056L181.316 480.72ZM184.115 481.35C184.703 481.35 185.362 481.315 186.089 481.247L185.902 479.255C185.221 479.319 184.626 479.35 184.115 479.35V481.35ZM186.089 481.247C186.81 481.179 187.443 481.099 187.982 481.005L187.639 479.035C187.167 479.117 186.589 479.191 185.902 479.255L186.089 481.247ZM186.811 480.02V481.835H188.811V480.02H186.811ZM187.579 480.862C187.172 480.959 186.601 481.053 185.849 481.138L186.076 483.126C186.864 483.035 187.525 482.931 188.042 482.808L187.579 480.862ZM185.849 481.138C185.114 481.222 184.404 481.264 183.719 481.264V483.264C184.485 483.264 185.271 483.218 186.076 483.126L185.849 481.138ZM183.719 481.264C182.275 481.264 181.401 481.016 180.924 480.685L179.781 482.325C180.757 483.006 182.127 483.264 183.719 483.264V481.264ZM180.953 480.705C180.503 480.368 180.123 479.773 179.913 478.761L177.954 479.167C178.228 480.487 178.794 481.586 179.753 482.305L180.953 480.705ZM179.917 478.782C179.714 477.687 179.604 475.979 179.604 473.618H177.604C177.604 476.009 177.713 477.865 177.95 479.146L179.917 478.782ZM179.604 473.618C179.604 471.206 179.692 469.488 179.856 468.424L177.879 468.12C177.691 469.344 177.604 471.19 177.604 473.618H179.604ZM179.853 468.443C180.022 467.468 180.381 466.875 180.836 466.519L179.605 464.943C178.653 465.687 178.11 466.788 177.882 468.101L179.853 468.443ZM180.836 466.519C181.275 466.176 182.131 465.906 183.62 465.906V463.906C181.984 463.906 180.574 464.186 179.605 464.943L180.836 466.519ZM183.62 465.906C184.97 465.906 185.716 466.164 186.084 466.468L187.359 464.928C186.451 464.176 185.129 463.906 183.62 463.906V465.906ZM186.1 466.481C186.469 466.774 186.786 467.308 186.919 468.276L188.9 468.004C188.725 466.728 188.251 465.634 187.343 464.915L186.1 466.481ZM186.922 468.295C187.085 469.334 187.174 471.082 187.174 473.585H189.174C189.174 471.072 189.087 469.19 188.898 467.985L186.922 468.295ZM187.174 473.585V474.278H189.174V473.585H187.174ZM183.587 465.82C182.661 465.82 181.768 465.948 181.129 466.399L182.282 468.033C182.392 467.956 182.752 467.82 183.587 467.82V465.82ZM181.129 466.399C180.428 466.894 180.108 467.739 179.961 468.598L181.932 468.936C182.049 468.255 182.236 468.066 182.282 468.033L181.129 466.399ZM179.957 468.626C179.836 469.472 179.782 470.822 179.782 472.628H181.782C181.782 470.826 181.838 469.602 181.937 468.908L179.957 468.626ZM180.782 473.628H186.095V471.628H180.782V473.628ZM187.095 472.628V472.133H185.095V472.628H187.095ZM187.095 472.133C187.095 470.499 187.03 469.244 186.88 468.423L184.913 468.781C185.027 469.412 185.095 470.511 185.095 472.133H187.095ZM186.88 468.423C186.735 467.621 186.422 466.786 185.701 466.335L184.641 468.031C184.626 468.022 184.665 468.038 184.726 468.158C184.789 468.281 184.858 468.48 184.913 468.781L186.88 468.423ZM185.762 466.377C185.172 465.944 184.38 465.82 183.587 465.82V467.82C184.245 467.82 184.509 467.938 184.579 467.989L185.762 466.377ZM191.781 482H190.781V483H191.781V482ZM191.781 467.084H192.781V466.084H191.781V467.084ZM189.834 467.084H188.834V468.084H189.834V467.084ZM189.834 465.17V464.17H188.834V465.17H189.834ZM191.781 465.17V466.17H192.781V465.17H191.781ZM191.781 460.286V459.286H190.781V460.286H191.781ZM193.959 460.286H194.959V459.286H193.959V460.286ZM193.959 465.17H192.959V466.17H193.959V465.17ZM196.368 465.17H197.368V464.17H196.368V465.17ZM196.368 467.084V468.084H197.368V467.084H196.368ZM193.959 467.084V466.084H192.959V467.084H193.959ZM193.959 482V483H194.959V482H193.959ZM192.781 482V467.084H190.781V482H192.781ZM191.781 466.084H189.834V468.084H191.781V466.084ZM190.834 467.084V465.17H188.834V467.084H190.834ZM189.834 466.17H191.781V464.17H189.834V466.17ZM192.781 465.17V460.286H190.781V465.17H192.781ZM191.781 461.286H193.959V459.286H191.781V461.286ZM192.959 460.286V465.17H194.959V460.286H192.959ZM193.959 466.17H196.368V464.17H193.959V466.17ZM195.368 465.17V467.084H197.368V465.17H195.368ZM196.368 466.084H193.959V468.084H196.368V466.084ZM192.959 467.084V482H194.959V467.084H192.959ZM193.959 481H191.781V483H193.959V481ZM197.769 482H196.769V483H197.769V482ZM197.769 480.284L196.862 479.864L196.769 480.064V480.284H197.769ZM203.874 467.084L204.782 467.504L205.438 466.084H203.874V467.084ZM197.967 467.084H196.967V468.084H197.967V467.084ZM197.967 465.17V464.17H196.967V465.17H197.967ZM206.316 465.17H207.316V464.17H206.316V465.17ZM206.316 466.886L207.224 467.306L207.316 467.106V466.886H206.316ZM200.211 480.086L199.304 479.666L198.647 481.086H200.211V480.086ZM206.349 480.086H207.349V479.086H206.349V480.086ZM206.349 482V483H207.349V482H206.349ZM198.769 482V480.284H196.769V482H198.769ZM198.677 480.704L204.782 467.504L202.967 466.664L196.862 479.864L198.677 480.704ZM203.874 466.084H197.967V468.084H203.874V466.084ZM198.967 467.084V465.17H196.967V467.084H198.967ZM197.967 466.17H206.316V464.17H197.967V466.17ZM205.316 465.17V466.886H207.316V465.17H205.316ZM205.409 466.466L199.304 479.666L201.119 480.506L207.224 467.306L205.409 466.466ZM200.211 481.086H206.349V479.086H200.211V481.086ZM205.349 480.086V482H207.349V480.086H205.349ZM206.349 481H197.769V483H206.349V481Z" fill="#DAA520"/>
<defs>
<filter id="filter0_i_0_3" x="40" y="142" width="431" height="352" filterUnits="userSpaceOnUse" color-interpolation-filters="sRGB">
<feFlood flood-opacity="0" result="BackgroundImageFix"/>
<feBlend mode="normal" in="SourceGraphic" in2="BackgroundImageFix" result="shape"/>
<feColorMatrix in="SourceAlpha" type="matrix" values="0 0 0 0 0 0 0 0 0 0 0 0 0 0 0 0 0 0 127 0" result="hardAlpha"/>
<feOffset dy="4"/>
<feGaussianBlur stdDeviation="2"/>
<feComposite in2="hardAlpha" operator="arithmetic" k2="-1" k3="1"/>
<feColorMatrix type="matrix" values="0 0 0 0 0 0 0 0 0 0 0 0 0 0 0 0 0 0 0.25 0"/>
<feBlend mode="normal" in2="shape" result="effect1_innerShadow_0_3"/>
</filter>
<filter id="filter1_i_0_3" x="47.5" y="146.5" width="80.3694" height="67.6679" filterUnits="userSpaceOnUse" color-interpolation-filters="sRGB">
<feFlood flood-opacity="0" result="BackgroundImageFix"/>
<feBlend mode="normal" in="SourceGraphic" in2="BackgroundImageFix" result="shape"/>
<feColorMatrix in="SourceAlpha" type="matrix" values="0 0 0 0 0 0 0 0 0 0 0 0 0 0 0 0 0 0 127 0" result="hardAlpha"/>
<feOffset dy="4"/>
<feGaussianBlur stdDeviation="2"/>
<feComposite in2="hardAlpha" operator="arithmetic" k2="-1" k3="1"/>
<feColorMatrix type="matrix" values="0 0 0 0 0 0 0 0 0 0 0 0 0 0 0 0 0 0 0.25 0"/>
<feBlend mode="normal" in2="shape" result="effect1_innerShadow_0_3"/>
</filter>
<linearGradient id="paint0_linear_0_3" x1="40" y1="142" x2="380.188" y2="563.324" gradientUnits="userSpaceOnUse">
<stop stop-color="#575A4B"/>
<stop offset="1" stop-color="#E28B08"/>
</linearGradient>
</defs>
</svg>
