<svg id="Layer_1" data-name="Layer 1" xmlns="http://www.w3.org/2000/svg" xmlns:xlink="http://www.w3.org/1999/xlink" viewBox="0 0 350 350"><defs><style>.cls-1{fill:url(#linear-gradient);}</style><linearGradient id="linear-gradient" x1="-29.67" y1="338.56" x2="171.88" y2="137.01" gradientTransform="matrix(1, 0, 0, -1, 0, 352)" gradientUnits="userSpaceOnUse"><stop offset="0"/><stop offset="1" stop-color="#daa520" stop-opacity="0.88"/></linearGradient></defs><path class="cls-1" d="M257.86,11s-32.23,26-46.28,67a235.09,235.09,0,0,0-11,45.3c-18.66,3.91-52.82,25.27-52.82,25.27l-26.13-2.83,9,13.65-26.93,4.27,11.81,11.11-22.67-1,2.52,9.58-20.16-.51,2,15.52L59.57,195l2,17.63L47.47,209.8,47,224.19,24.8,220.67l2,16.63L0,245.11V366H133.22l50.46-86.39L156.81,245.4l9.43-7.33,33.16,42.2c3.36,3.34,6.91,6.44,9.33,7.47,13.21,5.57,39.76,6.23,52,13.59,6.9,4.12,15.21,20,22.78,22.79a13,13,0,0,0,4.06.5c6.62,0,16.9-2.33,16.9-2.33l9.33,9.08,8.7-7.46L299.7,300.52l8.54-8.35,24.17,24.7,1.63-1.15s7.29-40.41,2.39-52.64c-5.81-14.53-34.14-32.7-42.72-45.8-7.07-10.75-12.69-37-20.51-47.16-7.59-10-23.27-25.1-38.94-35.55a235.3,235.3,0,0,0,19-42.27c14-41,4.63-81.27,4.63-81.27ZM307,27.22s-16.42,8.49-34.29,25.24a159.85,159.85,0,0,1-8.15,43.75,265.19,265.19,0,0,1-14.68,34.87c2.45,1.87,4.83,3.8,7.15,5.75a265.72,265.72,0,0,0,24.59-32.76C305,67.66,307,27.22,307,27.22ZM242.45,187a11.39,11.39,0,1,1-11.39,11.39A11.4,11.4,0,0,1,242.45,187Zm79.86,76.09c2,0,3.65,5.22,3.65,11.72s-1.64,11.72-3.65,11.72-3.64-5.25-3.64-11.72S320.31,263.07,322.31,263.07Z"/></svg>